<svg xmlns="http://www.w3.org/2000/svg" viewBox="0 0 189.46 197.22"><defs><style>.cls-1{fill:#2c2d1e;stroke:#cddc39;stroke-miterlimit:10;stroke-width:10px;}.cls-2{fill:#f3f3f3;}</style></defs><g id="Capa_2" data-name="Capa 2"><g id="Capa_1-2" data-name="Capa 1"><path class="cls-1" d="M184.46,137V60.23a15.8,15.8,0,0,0-8.36-13.94L102.16,6.86a15.77,15.77,0,0,0-14.86,0L13.36,46.29A15.8,15.8,0,0,0,5,60.23V137a15.79,15.79,0,0,0,8.36,13.94L87.3,190.36a15.77,15.77,0,0,0,14.86,0l73.94-39.43A15.79,15.79,0,0,0,184.46,137Z"/><path class="cls-2" d="M114.46,75.6H97.25V59.23H83V75.6H75V89.45h8v30.44c0,14.06,7.79,15.32,7.57,15.53,10.92,5.25,23.61.84,23.61.84s.67-1.89,0-13.22c-11.74,4-15.41,0-16.49-2a3.81,3.81,0,0,1-.42-1.76V89.45h17.21Z"/></g></g></svg>