<svg width="85" height="81" viewBox="0 0 85 81" fill="none" xmlns="http://www.w3.org/2000/svg">
<path d="M15.0521 2H69.9479C77.2097 2 83 7.72439 83 14.7115V66.2885C83 73.2756 77.2097 79 69.9479 79H15.0521C7.79034 79 2 73.2756 2 66.2885V14.7115C2 7.72439 7.79034 2 15.0521 2Z" stroke="#7A6FB9" stroke-width="4"/>
<path d="M41.0833 48.4611H27.9083L25.2167 56.5957C25.1458 56.9072 24.8625 57.1149 24.5437 57.0803H17.8854C17.4958 57.0803 17.3896 56.8726 17.4958 56.4572L28.9 24.3688C29.0062 24.0226 29.1125 23.6419 29.2542 23.2265C29.3958 22.4995 29.4667 21.738 29.4667 20.9765C29.4312 20.8034 29.5729 20.6303 29.75 20.5957H29.8562H38.9229C39.2062 20.5957 39.3479 20.6995 39.3833 20.8726L52.3104 56.5265C52.4167 56.9072 52.3104 57.0803 51.9562 57.0803H44.5542C44.3063 57.1149 44.0583 56.9419 43.9875 56.6995L41.0833 48.4611ZM29.9625 41.4342H38.9583C38.7458 40.7072 38.4625 39.8419 38.1437 38.9419C37.825 38.0072 37.5062 37.0034 37.1875 35.9649C36.8333 34.8919 36.5146 33.8534 36.1604 32.7803C35.8062 31.7072 35.4875 30.7034 35.2042 29.6995C34.9208 28.7303 34.6729 27.8303 34.425 26.9995H34.3542C34.0354 28.488 33.6458 29.9765 33.15 31.4649C32.6187 33.1265 32.0875 34.8572 31.5208 36.588C31.025 38.3534 30.4937 39.9803 29.9625 41.4342Z" fill="#7A6FB9"/>
<path d="M60.2084 26.6533C59.0396 26.6879 57.9063 26.2379 57.0563 25.4418C56.2417 24.5764 55.8167 23.4341 55.8521 22.2572C55.8167 21.0802 56.2771 19.9725 57.1271 19.1764C57.9771 18.3802 59.1105 17.9648 60.2792 17.9648C61.6605 17.9648 62.723 18.3802 63.5021 19.1764C64.2813 20.0072 64.7063 21.1148 64.6709 22.2572C64.7063 23.4341 64.2813 24.5764 63.4313 25.4418C62.6167 26.2725 61.4126 26.7225 60.2084 26.6533ZM56.2417 56.6995V30.0456C56.2417 29.6995 56.3834 29.561 56.7021 29.561H63.7146C64.0334 29.561 64.1751 29.7341 64.1751 30.0456V56.6995C64.1751 57.0803 64.0334 57.2533 63.7146 57.2533H56.773C56.4188 57.2533 56.2417 57.0456 56.2417 56.6995Z" fill="#7A6FB9"/>
</svg>
