<svg width="131" height="244" viewBox="0 0 131 244" fill="none" xmlns="http://www.w3.org/2000/svg">
<path d="M113.375 9.18472L20.5696 7.93501C14.9741 7.85967 10.3814 12.0008 10.3116 17.1845L7.44508 230.058C7.37528 235.241 11.8548 239.505 17.4503 239.58L111.153 239.324C116.749 239.399 120.444 236.764 120.514 231.58L123.38 18.7071C123.45 13.5234 118.971 9.26007 113.375 9.18472Z" fill="#181822" stroke="#564F7C" stroke-width="2" stroke-miterlimit="10"/>
<path d="M111.885 10.5505L22.0218 9.34041C16.4262 9.26506 11.8336 13.4062 11.7637 18.5899L8.93458 228.689C8.86478 233.873 13.3443 238.136 18.9398 238.211L109.372 238.211C114.967 238.287 118.992 235.356 119.062 230.172L121.891 20.0729C121.961 14.8892 117.481 10.6259 111.885 10.5505Z" stroke="#655E8B" stroke-miterlimit="10"/>
<path d="M49.1631 8.32007L84.7813 8.7997" stroke="#333333" stroke-miterlimit="10" stroke-linecap="round"/>
<path d="M66.8139 18.1418C68.2501 18.1612 69.4289 17.0983 69.4468 15.7678C69.4647 14.4373 68.315 13.3431 66.8788 13.3237C65.4426 13.3044 64.2638 14.3673 64.2459 15.6978C64.228 17.0282 65.3777 18.1225 66.8139 18.1418Z" fill="#18181F" stroke="#222222" stroke-miterlimit="10"/>
<path opacity="0.24" d="M67.5962 17.465C67.1964 17.6162 66.2886 17.851 66.1537 17.5534C66.0188 17.2558 67.181 16.7948 67.5327 16.876C68.3 17.0291 68.5246 15.9674 68.9805 16.3911C69.2365 16.6172 67.9961 17.3103 67.5962 17.465Z" fill="white"/>
<path opacity="0.24" d="M65.5698 14.3776C65.9506 13.9687 67.0567 13.4895 67.2521 13.7531C67.4474 14.0167 66.4979 14.0178 65.9707 14.7067C65.734 15.0063 64.9105 15.9556 64.7151 15.6919C64.5197 15.4283 65.3069 14.6699 65.5698 14.3776Z" fill="white"/>
<path d="M66.8385 16.3074C67.2012 16.3122 67.4989 16.0436 67.5034 15.7074C67.5079 15.3711 67.2176 15.0945 66.8549 15.0897C66.4922 15.0848 66.1946 15.3534 66.19 15.6897C66.1855 16.0259 66.4758 16.3025 66.8385 16.3074Z" fill="#333333"/>
<path opacity="0.24" d="M66.9062 15.4628C66.905 15.5534 66.8391 15.4271 66.7453 15.4259C66.6515 15.4246 66.556 15.5487 66.5572 15.4581C66.5639 15.4192 66.5853 15.384 66.6177 15.3588C66.6501 15.3335 66.6914 15.3199 66.7337 15.3205C66.776 15.321 66.8167 15.3357 66.8484 15.3619C66.8801 15.388 66.9006 15.4238 66.9062 15.4628Z" fill="white"/>
<path opacity="0.05" d="M10.69 165.262L100.271 9.11086L50.3856 8.43911L11.848 79.2697L10.69 165.262Z" fill="white"/>
</svg>
