<svg width="413" height="406" viewBox="0 0 413 406" fill="none" xmlns="http://www.w3.org/2000/svg">
<g clip-path="url(#clip0_104_707)">
<path d="M143.89 65.2242L159.315 59.2889C160.296 58.9116 161.167 58.2956 161.85 57.4965C162.532 56.6975 163.004 55.7408 163.223 54.7133L173.824 5.00089C174.123 3.58645 174.899 2.31765 176.023 1.40717C177.147 0.496683 178.549 -0.000130493 179.996 2.57099e-08H239.234C240.655 0.000503302 242.034 0.479691 243.149 1.36018C244.264 2.24067 245.05 3.47106 245.379 4.85267L257.135 54.4749C257.355 55.4064 257.785 56.2754 258.392 57.0158C258.998 57.7563 259.766 58.3485 260.637 58.7476L274.127 64.9536C275.11 65.4067 276.192 65.5996 277.271 65.5139C278.349 65.4281 279.388 65.0665 280.286 64.4638L322.628 36.1082C323.828 35.3018 325.269 34.9321 326.71 35.0612C328.151 35.1902 329.503 35.8102 330.541 36.8171L376.236 81.1098C377.301 82.1413 377.968 83.515 378.121 84.9894C378.273 86.4639 377.9 87.9447 377.068 89.1718L348.049 132.04C347.456 132.918 347.093 133.93 346.994 134.984C346.895 136.038 347.062 137.1 347.481 138.072L353.395 151.805C353.799 152.746 354.425 153.574 355.22 154.218C356.016 154.863 356.956 155.304 357.96 155.504L407.893 165.442C409.325 165.727 410.614 166.499 411.541 167.627C412.467 168.755 412.974 170.169 412.974 171.628V235.203C412.976 236.677 412.461 238.105 411.519 239.239C410.576 240.373 409.266 241.141 407.815 241.409L354.646 251.179L352.93 251.54L270.664 247.666C270.664 247.666 292.28 221.244 283.562 186.058L283.297 185.239C282.195 182.365 275.881 145.928 233.101 130.745C233.256 130.59 165.009 109.962 138.415 178.982C138.322 179.219 138.244 179.462 138.183 179.71C137.08 184.079 118.598 245.018 185.903 274.617C186.083 274.694 186.258 274.765 186.438 274.83C190.346 276.157 238.093 290.289 271.639 246.376C271.639 246.84 354.697 251.127 354.697 251.127L347.649 268.347C347.257 269.314 347.111 270.364 347.224 271.402C347.336 272.44 347.704 273.434 348.294 274.295L376.455 315.539C377.273 316.734 377.655 318.174 377.538 319.617C377.421 321.06 376.811 322.419 375.81 323.466L331.553 369.686C330.511 370.773 329.114 371.452 327.615 371.601C326.115 371.75 324.612 371.359 323.376 370.498L281.298 341.143C280.464 340.558 279.5 340.185 278.489 340.054C277.478 339.924 276.45 340.041 275.495 340.396L261.198 345.661C260.167 346.042 259.253 346.685 258.548 347.527C257.842 348.369 257.368 349.381 257.174 350.462L248.094 400.845C247.824 402.293 247.056 403.602 245.921 404.544C244.787 405.486 243.359 406.001 241.884 406H178.448C176.973 406.002 175.544 405.487 174.409 404.545C173.275 403.603 172.507 402.294 172.238 400.845L163.21 351.287C163.028 350.294 162.612 349.36 161.995 348.562C161.377 347.763 160.578 347.124 159.663 346.698L145.631 340.157C144.642 339.695 143.55 339.496 142.461 339.582C141.372 339.668 140.325 340.035 139.421 340.647L97.7234 368.867C96.5248 369.68 95.0827 370.056 93.6394 369.932C92.1961 369.807 90.8396 369.19 89.798 368.184L42.9289 322.951C41.8389 321.895 41.1649 320.483 41.03 318.972C40.895 317.462 41.3081 315.953 42.1938 314.721L71.948 273.412C72.5705 272.548 72.9638 271.54 73.0913 270.483C73.2187 269.426 73.0761 268.354 72.6767 267.367L66.9439 253.138C66.5404 252.137 65.8869 251.256 65.0459 250.579C64.2048 249.902 63.2042 249.452 62.1396 249.271L5.25566 239.604C3.78533 239.356 2.45063 238.595 1.48847 237.457C0.526308 236.318 -0.0010337 234.876 1.52128e-06 233.386V174.574C0.00181461 173.118 0.506511 171.707 1.42884 170.579C2.35116 169.452 3.63456 168.678 5.06221 168.387L61.1658 157.064C62.153 156.862 63.0777 156.428 63.8629 155.797C64.648 155.166 65.271 154.356 65.6799 153.436L72.5865 137.911C73.0124 136.945 73.1895 135.887 73.1016 134.834C73.0138 133.782 72.6637 132.768 72.0835 131.886L42.1164 86.4264C41.3219 85.2224 40.9646 83.7824 41.1042 82.3468C41.2439 80.9113 41.872 79.567 42.8838 78.5385L85.1743 35.4767C86.2051 34.43 87.5687 33.7751 89.0305 33.6246C90.4922 33.474 91.9608 33.8372 93.1836 34.6518L138.118 64.5862C138.959 65.1469 139.922 65.4975 140.926 65.6085C141.93 65.7195 142.947 65.5878 143.89 65.2242Z" fill="#564F7C"/>
<path d="M168.972 177.338L195.051 203.399" stroke="#564F7C" stroke-width="12" stroke-miterlimit="10" stroke-linecap="round"/>
<path d="M195.051 203.4L169.127 229.306" stroke="#564F7C" stroke-width="12" stroke-miterlimit="10" stroke-linecap="round"/>
<path d="M189.943 231.742H254.946" stroke="#564F7C" stroke-width="12" stroke-miterlimit="10" stroke-linecap="round"/>
</g>
<defs>
<clipPath id="clip0_104_707">
<rect width="413" height="406" fill="#564F7C"/>
</clipPath>
</defs>
</svg>
