<svg width="78" height="80" viewBox="0 0 78 80" fill="none" xmlns="http://www.w3.org/2000/svg">
<g clip-path="url(#clip0_112_1429)">
<path d="M43.0215 77.5782C42.2757 78.0272 41.4896 78.3417 40.6867 78.5222L40.7848 76.8815C40.3742 76.7542 39.6925 76.1975 39.6925 74.3611V44.9236C39.6925 43.4692 40.1139 42.4055 40.8079 41.5109C41.5336 40.5753 42.6047 39.7644 44.0031 38.9308L44.0208 38.9203L44.0382 38.9092L67.3169 24.1529C68.1645 23.6444 68.7579 23.6024 69.0971 23.6783C69.3993 23.746 69.7177 23.9534 69.9655 24.49L71.5879 23.9974C71.6426 24.3985 71.6707 24.8071 71.6707 25.2205V55.2048C71.6707 58.2819 70.1117 61.0833 67.6356 62.5967C67.6355 62.5967 67.6354 62.5968 67.6353 62.5968L43.0245 77.5764C43.0235 77.577 43.0225 77.5776 43.0215 77.5782Z" stroke="#7A6FB9" stroke-width="3"/>
<path d="M61.9734 58.094L55.8339 61.8597C55.6663 61.9534 55.5444 62.0628 55.5444 62.2659V63.9065C55.5444 64.1097 55.6815 64.1878 55.8339 64.094L62.0648 60.219C62.2323 60.1253 62.2476 59.9378 62.2476 59.7347V58.2815C62.2628 58.0784 62.1257 58.0003 61.9734 58.094Z" fill="#897FC0"/>
<path d="M48.9173 44.25C49.1154 44.1406 49.2829 44.2812 49.2829 44.5468L49.2982 46.7187C50.1818 46.3593 50.9587 46.2656 51.6595 46.4218C51.8118 46.4687 51.8728 46.6718 51.8118 46.9218L51.3396 48.8437C51.3091 48.9843 51.2177 49.1406 51.1263 49.2343C51.0806 49.2812 51.0501 49.3125 51.0044 49.3281C50.9435 49.3593 50.8825 49.375 50.8216 49.3593C50.5017 49.2812 49.74 49.1093 48.5517 49.7343C47.3025 50.3906 46.8607 51.5 46.8759 52.3281C46.8911 53.3125 47.3786 53.625 49.0849 53.6406C51.3548 53.6718 52.3451 54.7031 52.3603 57.0468C52.3908 59.3593 51.1872 61.8281 49.3439 63.3593L49.3896 65.5156C49.3896 65.7812 49.222 66.0781 49.0239 66.1718L47.7747 66.9062C47.5767 67.0156 47.4091 66.8906 47.4091 66.6249L47.3939 64.4999C46.3275 64.9531 45.2458 65.0624 44.5603 64.7812C44.4231 64.7343 44.3774 64.5312 44.4231 64.3124L44.8802 62.3593C44.9106 62.2031 45.0021 62.0468 45.1087 61.9531C45.1544 61.9218 45.1849 61.8906 45.2306 61.8593C45.3067 61.8281 45.3677 61.8124 45.4286 61.8437C46.1751 62.0937 47.1196 61.9843 48.0337 61.5C49.1915 60.8906 49.9685 59.6875 49.9532 58.4687C49.938 57.375 49.3591 56.9218 47.9575 56.9062C46.1751 56.9062 44.4993 56.5468 44.4688 53.8437C44.4536 51.625 45.581 49.3125 47.3634 47.8437L47.3482 45.6718C47.3482 45.4062 47.5005 45.1093 47.7138 45L48.9173 44.25Z" fill="#7A6FB9"/>
</g>
<defs>
<clipPath id="clip0_112_1429">
<rect width="78" height="80" fill="white"/>
</clipPath>
</defs>
</svg>
