<svg width="422" height="413" viewBox="0 0 422 413" fill="none" xmlns="http://www.w3.org/2000/svg">
<path d="M159.644 403.484C159.475 403.505 159.315 403.569 159.179 403.67C158.005 404.56 150.858 408.583 129.737 395.914C106.383 381.9 92.1307 372.115 74.9591 370.99C72.7626 370.904 54.9256 366.838 55.1474 357.338C55.1538 357.201 55.1889 357.067 55.2505 356.945C55.3121 356.822 55.3989 356.714 55.5051 356.626C57.394 355.06 62.8316 350.787 45.2522 341.921C36.7022 337.292 26.0701 332.136 33.8045 325.983C33.9195 325.891 34.0124 325.773 34.0761 325.64C34.1398 325.507 34.1729 325.362 34.1729 325.214C34.1729 325.067 34.1398 324.921 34.0761 324.788C34.0124 324.655 33.9195 324.538 33.8045 324.445C31.3074 322.38 26.2204 317.68 34.7489 313.165C34.9028 313.082 35.0319 312.96 35.1233 312.812C35.2147 312.663 35.2651 312.493 35.2695 312.319C35.2738 312.145 35.232 311.973 35.1481 311.82C35.0642 311.667 34.9414 311.539 34.7918 311.449C29.2182 308.116 11.8964 296.943 30.7493 296.9C30.9607 296.899 31.1663 296.831 31.3363 296.706C31.5063 296.582 31.6319 296.406 31.6949 296.205C31.7579 296.004 31.755 295.789 31.6866 295.59C31.6182 295.391 31.4879 295.219 31.3146 295.098C19.8239 287.144 -21.4881 257.355 27.222 270.366C27.3926 270.412 27.5724 270.412 27.7431 270.367C27.9137 270.321 28.069 270.23 28.1929 270.105C28.3168 269.979 28.4049 269.823 28.448 269.653C28.4911 269.482 28.4878 269.303 28.4383 269.134C25.2115 258.139 10.3724 196.433 65.0997 152.274C65.2133 152.182 65.3049 152.067 65.3678 151.935C65.4307 151.804 65.4634 151.661 65.4634 151.515C65.4634 151.37 65.4307 151.226 65.3678 151.095C65.3049 150.964 65.2133 150.848 65.0997 150.757C58.0594 144.782 15.3879 102.795 57.7875 8.6085C57.8488 8.47062 57.941 8.34851 58.057 8.25149C58.173 8.15448 58.3097 8.08512 58.4567 8.04871C58.6037 8.0123 58.7572 8.0098 58.9053 8.04141C59.0534 8.07301 59.1924 8.13788 59.3115 8.23107C70.2298 16.8194 167.908 91.2583 173.968 91.2583C180.407 91.2583 239.384 78.7034 277.713 101.093C277.844 101.17 277.99 101.215 278.142 101.226C278.293 101.237 278.445 101.214 278.586 101.157C298.855 92.7039 361.446 57.3111 369.631 52.6608C369.747 52.5952 369.876 52.5535 370.009 52.5384C370.142 52.5233 370.276 52.5351 370.405 52.573C370.533 52.6109 370.652 52.6741 370.755 52.759C370.858 52.8438 370.943 52.9485 371.005 53.0668C375.348 61.4414 406.922 126.729 379.669 204.957C379.58 205.186 379.58 205.44 379.669 205.669C380.9 208.567 388.384 230.252 384.077 262.397C384.054 262.554 384.069 262.714 384.122 262.864C384.174 263.013 384.262 263.148 384.378 263.257C384.493 263.366 384.634 263.446 384.787 263.489C384.94 263.533 385.101 263.539 385.257 263.508C393.571 261.792 435.47 251.751 386.788 282.629C386.611 282.737 386.473 282.899 386.394 283.09C386.314 283.281 386.298 283.493 386.346 283.694C386.394 283.895 386.505 284.076 386.663 284.211C386.821 284.346 387.017 284.428 387.225 284.445C396.576 285.321 421.89 289.316 373.158 305.061C372.95 305.127 372.77 305.259 372.644 305.436C372.519 305.614 372.456 305.828 372.465 306.045C372.474 306.262 372.554 306.47 372.694 306.637C372.833 306.804 373.024 306.921 373.237 306.969C380.213 308.679 388.627 315.942 343.244 346.749L343.144 346.813C279.687 379.756 272.103 382.334 233.181 394.106H233.038C230.355 394.54 164.502 402.872 159.644 403.484Z" fill="#F2F2F2" stroke="#585181" stroke-width="2" stroke-miterlimit="10"/>
<path d="M122.581 359.967C122.581 359.967 130.691 376.357 159.563 368.045C159.563 368.045 180.089 382.849 203.8 373.508" stroke="#585181" stroke-width="2" stroke-miterlimit="10" stroke-linecap="round"/>
<path d="M102.652 343.973C104.594 343.973 106.169 342.405 106.169 340.471C106.169 338.536 104.594 336.968 102.652 336.968C100.71 336.968 99.1353 338.536 99.1353 340.471C99.1353 342.405 100.71 343.973 102.652 343.973Z" fill="#585181"/>
<path d="M159.563 368.044L160.802 350.244C160.802 350.244 120.988 322.046 132.667 314.644C132.667 314.292 163.456 303.189 193.007 321.694C193.183 322.046 206.44 334.383 161.768 350.068" stroke="#585181" stroke-width="2" stroke-miterlimit="10"/>
<path d="M67.7715 349.782L100.949 340.926" stroke="#585181" stroke-width="2" stroke-miterlimit="10" stroke-linecap="round"/>
<path d="M100.028 330.249C101.97 330.249 103.544 328.681 103.544 326.746C103.544 324.812 101.97 323.243 100.028 323.243C98.0853 323.243 96.5107 324.812 96.5107 326.746C96.5107 328.681 98.0853 330.249 100.028 330.249Z" fill="#585181"/>
<path d="M61.9321 324.8L98.1623 326.651" stroke="#585181" stroke-width="2" stroke-miterlimit="10" stroke-linecap="round"/>
<path d="M100.831 319.601C102.774 319.601 104.348 318.033 104.348 316.098C104.348 314.164 102.774 312.595 100.831 312.595C98.889 312.595 97.3145 314.164 97.3145 316.098C97.3145 318.033 98.889 319.601 100.831 319.601Z" fill="#585181"/>
<path d="M55.2964 290.301L98.693 314.887" stroke="#585181" stroke-width="2" stroke-miterlimit="10" stroke-linecap="round"/>
<path d="M250.965 326.313C253.314 326.313 255.219 324.416 255.219 322.076C255.219 319.736 253.314 317.839 250.965 317.839C248.615 317.839 246.71 319.736 246.71 322.076C246.71 324.416 248.615 326.313 250.965 326.313Z" fill="#585181"/>
<path d="M259.532 338.436C261.881 338.436 263.786 336.539 263.786 334.199C263.786 331.859 261.881 329.962 259.532 329.962C257.182 329.962 255.278 331.859 255.278 334.199C255.278 336.539 257.182 338.436 259.532 338.436Z" fill="#585181"/>
<path d="M257.541 350.112C259.891 350.112 261.795 348.215 261.795 345.875C261.795 343.535 259.891 341.638 257.541 341.638C255.192 341.638 253.287 343.535 253.287 345.875C253.287 348.215 255.192 350.112 257.541 350.112Z" fill="#585181"/>
<path d="M252.373 321.099L308.642 281.974" stroke="#585181" stroke-width="2" stroke-miterlimit="10" stroke-linecap="round"/>
<path d="M259.716 334.141L313.863 315.636" stroke="#585181" stroke-width="2" stroke-miterlimit="10" stroke-linecap="round"/>
<path d="M257.239 346.037L300.591 351.324" stroke="#585181" stroke-width="2" stroke-miterlimit="10" stroke-linecap="round"/>
<path d="M82.7676 256.948L124.704 284.265" stroke="#585181" stroke-width="2" stroke-miterlimit="10" stroke-linecap="round"/>
<path d="M79.8481 285.058L124.705 284.265" stroke="#585181" stroke-width="2" stroke-miterlimit="10" stroke-linecap="round"/>
<path d="M138.938 248.325C141.71 243.852 136.872 235.872 128.133 230.5C119.394 225.128 110.063 224.4 107.291 228.873C104.52 233.346 109.357 241.326 118.097 246.698C126.836 252.069 136.167 252.798 138.938 248.325Z" fill="#EDE8FE" stroke="#585181" stroke-width="2" stroke-miterlimit="10"/>
<path d="M232.38 251.958C241.676 247.611 247.394 240.23 245.151 235.472C242.908 230.715 233.554 230.381 224.258 234.728C214.963 239.075 209.245 246.456 211.488 251.214C213.73 255.971 223.084 256.304 232.38 251.958Z" fill="#EDE8FE" stroke="#585181" stroke-width="2" stroke-miterlimit="10"/>
<path d="M243.683 292.233C254.107 287.359 260.518 279.083 258.004 273.749C255.489 268.415 245.001 268.042 234.577 272.916C224.154 277.791 217.742 286.066 220.256 291.4C222.771 296.734 233.259 297.107 243.683 292.233Z" fill="#57507D"/>
<path d="M75.6354 145.548L113.26 108.698C113.26 108.698 124.182 105.119 119.328 86.329C119.328 86.329 108.753 51.0748 85.6971 33.0004C85.8705 33.5373 64.0279 9.37836 58.2494 4.00971C58.2494 4.00971 46.1146 20.2051 43.601 42.7833C43.6877 42.9622 34.5866 73.8319 45.7679 117.407C45.8402 117.631 51.0408 133.968 61.9043 145.399C63.7216 147.269 66.1749 148.331 68.7404 148.359C71.306 148.387 73.7804 147.378 75.6354 145.548Z" fill="#FFB7AC" stroke="#585181" stroke-width="2" stroke-miterlimit="10"/>
<path d="M84.412 133.361C84.019 133.662 83.5361 133.822 83.0407 133.816C80.5265 133.772 72.4827 132.73 62.9939 120.598C62.8759 120.598 46.1543 96.6007 68.6931 101.146C69.1256 101.245 69.5779 101.212 69.9914 101.052C70.4049 100.891 70.7604 100.611 71.0116 100.247C71.2629 99.8822 71.3983 99.4511 71.4003 99.0091C71.4024 98.5672 71.2708 98.1348 71.0229 97.7683C67.9558 93.0172 63.7606 85.9456 63.2593 82.0023C63.0012 82.2666 60.0816 55.8896 78.7423 75.0555L78.875 75.2024C79.4353 75.8853 83.2176 81.312 86.1004 85.8061C86.1539 85.8959 86.2359 85.9654 86.3335 86.0037C86.4311 86.0419 86.5387 86.0466 86.6393 86.0172C86.74 85.9877 86.8279 85.9257 86.8891 85.8409C86.9504 85.7561 86.9816 85.6535 86.9777 85.5491C86.9777 83.5958 87.0146 80.2693 87.0367 78.6537C87.0421 78.511 87.0773 78.371 87.14 78.2425C87.5823 76.862 89.89 71.4206 93.0382 72.5735C96.533 73.8586 97.8675 73.0655 98.5679 88.5818C98.5679 89.2501 98.5679 89.9256 98.5679 90.5939C98.3467 97.0486 106.966 84.7707 109.775 98.9211C112.724 113.608 111.102 113.329 111.102 113.329L84.412 133.361Z" fill="white" stroke="#585181" stroke-width="2" stroke-miterlimit="10"/>
<path d="M177.9 88.7213C175.57 88.4496 118.674 82.4943 81.2417 144.009C81.2127 144.054 81.1927 144.103 81.1827 144.156C80.9468 145.536 67.4471 176.569 118.217 170.819C122.984 170.271 127.578 168.708 131.687 166.237C141.699 160.245 163.39 150.816 166.288 177.839C166.277 177.883 166.277 177.928 166.288 177.971C167.025 179.69 184.13 214.467 223.059 179.139C223.235 178.963 263.543 203.46 276.925 165.958C276.955 165.869 277.013 165.791 277.089 165.736C277.166 165.681 277.258 165.65 277.352 165.649C279.284 165.649 289.886 164.974 309.675 137.899C329.205 111.221 368.06 60.5012 375.846 50.3381C375.909 50.252 375.94 50.1473 375.936 50.0411C375.931 49.9349 375.89 49.8334 375.82 49.7533C375.75 49.6732 375.654 49.6191 375.549 49.5999C375.444 49.5808 375.336 49.5977 375.242 49.6478L285.123 99.6995C285.054 99.7395 284.975 99.7605 284.895 99.7605C284.814 99.7605 284.736 99.7395 284.666 99.6995C281.157 97.7169 236.868 73.6603 178.047 88.6846C178 88.7043 177.951 88.7166 177.9 88.7213Z" fill="#5332FF" stroke="#554E75" stroke-width="2" stroke-miterlimit="10"/>
<path d="M338.016 185.484C338.016 185.484 384.73 175.879 390.304 194.119C390.304 194.119 399.152 163.63 398.414 142.658C398.591 142.481 397.884 96.3069 390.629 81.5029C390.452 81.5029 381.184 50.2426 378.95 49.5817C376.716 48.9209 343.03 96.9385 343.03 96.9385C343.03 96.9385 352.054 95.2495 353.647 101.947C355.239 108.644 352.548 130.438 352.548 130.438L358.933 133.567L360.651 134.543L361.963 135.469L362.958 136.394L363.976 138.046L363.652 140.506L362.914 142.973L361.218 145.11L357.768 146.909L353.492 148.172L352.179 150.375L353.145 153.599L355.667 163.145V171.443L353.624 177.634C353.624 177.634 348.633 182.51 348.559 182.539C348.486 182.568 338.016 185.484 338.016 185.484Z" fill="#FFB7AC"/>
<path d="M364.16 134.991L385.755 65.9058L380.771 50.8594C380.655 50.4648 380.431 50.1104 380.123 49.8362C379.816 49.5621 379.437 49.3791 379.031 49.308C378.624 49.237 378.206 49.2807 377.823 49.4341C377.44 49.5876 377.107 49.8448 376.864 50.1765L342.536 97.4451L351.538 98.4732L353.75 104.061L354.111 111.698L353.322 123.293L352.106 127.934L364.16 134.991Z" fill="black" fill-opacity="0.21"/>
<path d="M329.795 111.258C329.795 111.258 353.853 80.4528 354.214 114.489C354.221 114.623 354.221 114.758 354.214 114.893C353.823 117.867 353.167 124.439 352.142 127.934C351.939 128.629 352.009 129.374 352.338 130.019C352.666 130.664 353.229 131.161 353.911 131.408C358.468 133.06 366.143 136.379 363.703 140.506C363.469 140.911 363.325 141.362 363.282 141.828C363.164 143.223 362.029 146.322 354.582 147.769C354.166 147.845 353.773 148.014 353.43 148.261C353.087 148.508 352.804 148.828 352.6 149.198C352.397 149.568 352.279 149.978 352.254 150.399C352.23 150.819 352.3 151.24 352.459 151.631C354.752 157.197 358.564 168.579 353.72 177.634L353.521 178.331C353.307 179.491 348.433 185.63 335.922 183.956" stroke="#585181" stroke-width="2" stroke-miterlimit="10" stroke-linecap="round"/>
</svg>
