<svg width="422" height="413" viewBox="0 0 422 413" fill="none" xmlns="http://www.w3.org/2000/svg">
<g clip-path="url(#clip0_72_490)">
<path d="M158.486 407.174C158.315 407.195 158.152 407.26 158.013 407.362C156.818 408.269 149.539 412.368 128.029 399.462C104.246 385.185 89.7318 375.217 72.2445 374.071C70.0075 373.984 51.8426 369.841 52.0684 360.163C52.075 360.024 52.1107 359.887 52.1735 359.762C52.2362 359.637 52.3246 359.527 52.4328 359.438C54.3564 357.842 59.894 353.489 41.9913 344.457C33.2841 339.742 22.4565 334.489 30.3331 328.221C30.4503 328.127 30.5448 328.007 30.6097 327.872C30.6746 327.736 30.7083 327.588 30.7083 327.438C30.7083 327.287 30.6746 327.139 30.6097 327.004C30.5448 326.868 30.4503 326.749 30.3331 326.654C27.7902 324.55 22.6095 319.762 31.2949 315.163C31.4516 315.078 31.5831 314.954 31.6762 314.803C31.7693 314.652 31.8206 314.478 31.825 314.301C31.8295 314.124 31.7868 313.948 31.7014 313.793C31.616 313.637 31.4909 313.506 31.3386 313.414C25.6625 310.019 8.02216 298.637 27.2218 298.593C27.437 298.592 27.6464 298.523 27.8195 298.396C27.9927 298.269 28.1206 298.09 28.1847 297.885C28.2489 297.681 28.2459 297.461 28.1763 297.258C28.1066 297.056 27.974 296.88 27.7975 296.758C16.0955 288.654 -25.9762 258.308 23.6296 271.562C23.8033 271.609 23.9865 271.609 24.1603 271.563C24.3341 271.516 24.4922 271.424 24.6184 271.296C24.7446 271.168 24.8342 271.009 24.8781 270.835C24.9221 270.661 24.9187 270.479 24.8683 270.307C21.5822 259.106 6.47017 196.244 62.2038 151.258C62.3194 151.165 62.4127 151.047 62.4768 150.913C62.5409 150.78 62.5741 150.633 62.5741 150.485C62.5741 150.337 62.5409 150.191 62.4768 150.057C62.4127 149.924 62.3194 149.806 62.2038 149.713C55.034 143.626 11.5779 100.852 54.7571 4.9022C54.8196 4.76174 54.9134 4.63734 55.0316 4.53851C55.1497 4.43967 55.2889 4.36901 55.4386 4.33192C55.5883 4.29483 55.7446 4.29229 55.8955 4.32448C56.0463 4.35668 56.1878 4.42276 56.3091 4.5177C67.4282 13.2668 166.902 89.0999 173.074 89.0999C179.631 89.0999 239.693 76.3099 278.726 99.1186C278.859 99.1968 279.009 99.2434 279.163 99.2547C279.317 99.266 279.472 99.2418 279.615 99.1839C300.258 90.5726 363.999 54.5169 372.335 49.7796C372.453 49.7127 372.584 49.6703 372.719 49.6549C372.855 49.6395 372.992 49.6515 373.122 49.6901C373.253 49.7287 373.374 49.7931 373.479 49.8796C373.584 49.966 373.671 50.0726 373.734 50.1931C378.156 58.7246 410.311 125.235 382.557 204.928C382.466 205.161 382.466 205.42 382.557 205.653C383.811 208.606 391.432 230.697 387.046 263.444C387.023 263.604 387.039 263.767 387.092 263.919C387.145 264.072 387.235 264.209 387.353 264.32C387.47 264.431 387.613 264.512 387.769 264.557C387.925 264.601 388.089 264.608 388.248 264.576C396.715 262.828 439.384 252.598 389.807 284.055C389.627 284.165 389.487 284.33 389.406 284.525C389.325 284.719 389.308 284.935 389.357 285.14C389.406 285.345 389.519 285.529 389.68 285.667C389.841 285.804 390.041 285.887 390.252 285.905C399.775 286.797 425.554 290.867 375.927 306.907C375.715 306.974 375.531 307.108 375.403 307.289C375.276 307.47 375.212 307.688 375.221 307.91C375.23 308.131 375.312 308.343 375.454 308.513C375.596 308.683 375.79 308.802 376.007 308.851C383.111 310.592 391.68 317.992 345.462 349.376L345.36 349.441C280.737 383.001 273.014 385.627 233.376 397.619H233.23C230.498 398.062 163.434 406.55 158.486 407.174Z" stroke="#585181" stroke-width="2" stroke-miterlimit="10"/>
<path d="M122.581 359.967C122.581 359.967 130.691 376.357 159.563 368.045C159.563 368.045 180.089 382.849 203.8 373.508" stroke="#585181" stroke-width="2" stroke-miterlimit="10" stroke-linecap="round"/>
<path d="M102.652 343.973C104.595 343.973 106.169 342.405 106.169 340.471C106.169 338.536 104.595 336.968 102.652 336.968C100.71 336.968 99.1354 338.536 99.1354 340.471C99.1354 342.405 100.71 343.973 102.652 343.973Z" fill="#585181"/>
<path d="M159.563 368.044L160.802 350.244C160.802 350.244 120.989 322.046 132.667 314.644C132.667 314.292 163.456 303.189 193.007 321.694C193.184 322.046 206.44 334.383 161.768 350.068" stroke="#585181" stroke-width="2" stroke-miterlimit="10"/>
<path d="M67.7713 349.782L100.949 340.926" stroke="#585181" stroke-width="2" stroke-miterlimit="10" stroke-linecap="round"/>
<path d="M100.027 330.249C101.97 330.249 103.544 328.681 103.544 326.746C103.544 324.811 101.97 323.243 100.027 323.243C98.0852 323.243 96.5106 324.811 96.5106 326.746C96.5106 328.681 98.0852 330.249 100.027 330.249Z" fill="#585181"/>
<path d="M61.9319 324.8L98.1621 326.651" stroke="#585181" stroke-width="2" stroke-miterlimit="10" stroke-linecap="round"/>
<path d="M100.831 319.601C102.773 319.601 104.348 318.033 104.348 316.098C104.348 314.164 102.773 312.595 100.831 312.595C98.8889 312.595 97.3143 314.164 97.3143 316.098C97.3143 318.033 98.8889 319.601 100.831 319.601Z" fill="#585181"/>
<path d="M55.2964 290.301L98.693 314.887" stroke="#585181" stroke-width="2" stroke-miterlimit="10" stroke-linecap="round"/>
<path d="M250.965 326.313C253.314 326.313 255.219 324.416 255.219 322.076C255.219 319.736 253.314 317.839 250.965 317.839C248.615 317.839 246.71 319.736 246.71 322.076C246.71 324.416 248.615 326.313 250.965 326.313Z" fill="#585181"/>
<path d="M259.532 338.436C261.881 338.436 263.786 336.539 263.786 334.199C263.786 331.859 261.881 329.962 259.532 329.962C257.182 329.962 255.278 331.859 255.278 334.199C255.278 336.539 257.182 338.436 259.532 338.436Z" fill="#585181"/>
<path d="M257.541 350.112C259.891 350.112 261.795 348.215 261.795 345.875C261.795 343.535 259.891 341.638 257.541 341.638C255.192 341.638 253.287 343.535 253.287 345.875C253.287 348.215 255.192 350.112 257.541 350.112Z" fill="#585181"/>
<path d="M252.373 321.099L308.642 281.974" stroke="#585181" stroke-width="2" stroke-miterlimit="10" stroke-linecap="round"/>
<path d="M259.716 334.141L313.862 315.636" stroke="#585181" stroke-width="2" stroke-miterlimit="10" stroke-linecap="round"/>
<path d="M257.239 346.037L300.591 351.324" stroke="#585181" stroke-width="2" stroke-miterlimit="10" stroke-linecap="round"/>
<path d="M82.7676 256.948L124.704 284.265" stroke="#585181" stroke-width="2" stroke-miterlimit="10" stroke-linecap="round"/>
<path d="M79.848 285.058L124.704 284.265" stroke="#585181" stroke-width="2" stroke-miterlimit="10" stroke-linecap="round"/>
<path d="M138.939 248.325C141.71 243.852 136.872 235.872 128.133 230.5C119.394 225.128 110.063 224.4 107.291 228.873C104.52 233.346 109.358 241.326 118.097 246.698C126.836 252.069 136.167 252.798 138.939 248.325Z" fill="#EDE8FE" fill-opacity="0.16" stroke="#585181" stroke-width="2" stroke-miterlimit="10"/>
<path d="M232.38 251.958C241.676 247.611 247.394 240.23 245.151 235.472C242.908 230.714 233.554 230.381 224.258 234.728C214.963 239.075 209.245 246.456 211.488 251.214C213.731 255.971 223.084 256.304 232.38 251.958Z" fill="#EDE8FE" fill-opacity="0.13" stroke="#585181" stroke-width="2" stroke-miterlimit="10"/>
<path d="M243.683 292.233C254.107 287.359 260.518 279.083 258.004 273.749C255.489 268.415 245.001 268.042 234.577 272.916C224.154 277.791 217.742 286.066 220.256 291.4C222.771 296.734 233.259 297.107 243.683 292.233Z" fill="#57507D"/>
<path d="M72.9342 143.674L109.215 109.628C109.215 109.628 119.747 106.321 115.066 88.961C115.066 88.961 104.869 56.3897 82.6366 39.6908C82.8037 40.1868 61.7412 17.8663 56.1691 12.9062C56.1691 12.9062 44.4678 27.8692 42.0439 48.7292C42.1275 48.8945 33.3514 77.415 44.1334 117.674C44.2031 117.881 49.2179 132.975 59.6935 143.536C61.4459 145.263 63.8116 146.245 66.2855 146.27C68.7594 146.296 71.1455 145.364 72.9342 143.674Z" fill="#FFB7AC" fill-opacity="0.07" stroke="#585181" stroke-width="2" stroke-miterlimit="10"/>
<path d="M84.4118 133.361C84.0188 133.662 83.5359 133.822 83.0405 133.816C80.5263 133.772 72.4826 132.73 62.9937 120.598C62.8757 120.598 46.1541 96.6007 68.6929 101.146C69.1254 101.245 69.5778 101.212 69.9912 101.052C70.4047 100.891 70.7602 100.611 71.0114 100.247C71.2627 99.8822 71.3982 99.4511 71.4002 99.0091C71.4022 98.5672 71.2706 98.1348 71.0227 97.7683C67.9556 93.0172 63.7605 85.9456 63.2591 82.0023C63.0011 82.2666 60.0814 55.8896 78.7421 75.0555L78.8748 75.2024C79.4351 75.8853 83.2174 81.312 86.1002 85.8061C86.1537 85.8959 86.2357 85.9654 86.3333 86.0037C86.4309 86.0419 86.5385 86.0466 86.6392 86.0172C86.7398 85.9877 86.8277 85.9257 86.8889 85.8409C86.9502 85.7561 86.9814 85.6534 86.9776 85.5491C86.9776 83.5958 87.0144 80.2693 87.0366 78.6537C87.0419 78.511 87.0771 78.371 87.1398 78.2425C87.5822 76.862 89.8899 71.4206 93.0381 72.5735C96.5328 73.8586 97.8673 73.0655 98.5677 88.5818C98.5677 89.2501 98.5677 89.9256 98.5677 90.5939C98.3465 97.0486 106.965 84.7707 109.774 98.9211C112.724 113.608 111.102 113.329 111.102 113.329L84.4118 133.361Z" stroke="#585181" stroke-width="2" stroke-miterlimit="10"/>
<path d="M177.9 88.7213C175.57 88.4496 118.673 82.4942 81.2415 144.009C81.2125 144.053 81.1924 144.103 81.1825 144.156C80.9466 145.536 67.4469 176.569 118.216 170.819C122.984 170.271 127.578 168.708 131.687 166.237C141.699 160.245 163.39 150.816 166.287 177.839C166.276 177.883 166.276 177.928 166.287 177.971C167.025 179.69 184.13 214.467 223.058 179.139C223.235 178.963 263.543 203.46 276.924 165.958C276.955 165.869 277.012 165.791 277.089 165.736C277.165 165.681 277.257 165.65 277.352 165.649C279.284 165.649 289.886 164.974 309.675 137.899C329.205 111.221 368.06 60.5012 375.846 50.3381C375.909 50.252 375.94 50.1473 375.935 50.0411C375.93 49.9349 375.89 49.8334 375.819 49.7533C375.749 49.6732 375.654 49.6191 375.549 49.5999C375.444 49.5808 375.335 49.5977 375.241 49.6478L285.123 99.6995C285.054 99.7395 284.975 99.7605 284.894 99.7605C284.814 99.7605 284.735 99.7395 284.666 99.6995C281.156 97.7168 236.868 73.6603 178.047 88.6846C178 88.7043 177.95 88.7166 177.9 88.7213Z" fill="#5332FF" fill-opacity="0.08" stroke="#554E75" stroke-width="2" stroke-miterlimit="10"/>
<path d="M338.016 185.484C338.016 185.484 384.73 175.879 390.304 194.119C390.304 194.119 399.151 163.63 398.414 142.658C398.591 142.481 397.883 96.3069 390.629 81.5029C390.452 81.5029 381.184 50.2426 378.95 49.5817C376.716 48.9208 343.029 96.9384 343.029 96.9384C343.029 96.9384 352.054 95.2495 353.646 101.947C355.239 108.644 352.548 130.438 352.548 130.438L358.933 133.567L360.65 134.543L361.963 135.469L362.958 136.394L363.976 138.046L363.651 140.506L362.914 142.973L361.218 145.11L357.768 146.909L353.491 148.172L352.179 150.375L353.145 153.599L355.666 163.145V171.443L353.624 177.634C353.624 177.634 348.633 182.51 348.559 182.539C348.485 182.568 338.016 185.484 338.016 185.484Z" fill="#FFB7AC" fill-opacity="0.1"/>
<path d="M364.16 134.991L385.755 65.9058L380.771 50.8594C380.655 50.4648 380.431 50.1104 380.123 49.8362C379.815 49.5621 379.437 49.3791 379.03 49.308C378.624 49.237 378.205 49.2807 377.822 49.4341C377.439 49.5876 377.107 49.8448 376.863 50.1765L342.535 97.4451L351.538 98.4732L353.749 104.061L354.111 111.698L353.322 123.293L352.105 127.934L364.16 134.991Z" fill="black" fill-opacity="0.21"/>
<path d="M329.795 111.258C329.795 111.258 353.853 80.4528 354.214 114.489C354.221 114.623 354.221 114.758 354.214 114.893C353.823 117.867 353.167 124.439 352.142 127.934C351.939 128.629 352.009 129.374 352.338 130.019C352.667 130.664 353.229 131.161 353.912 131.408C358.468 133.06 366.143 136.379 363.703 140.506C363.469 140.911 363.326 141.362 363.283 141.828C363.165 143.223 362.029 146.322 354.583 147.769C354.167 147.845 353.773 148.014 353.43 148.261C353.087 148.508 352.804 148.828 352.601 149.198C352.397 149.568 352.279 149.978 352.255 150.399C352.23 150.819 352.3 151.24 352.459 151.631C354.752 157.197 358.564 168.579 353.72 177.634L353.521 178.331C353.307 179.491 348.434 185.63 335.922 183.956" stroke="#585181" stroke-width="2" stroke-miterlimit="10" stroke-linecap="round"/>
</g>
<defs>
<clipPath id="clip0_72_490">
<rect width="422" height="413" fill="white"/>
</clipPath>
</defs>
</svg>
