<svg width="78" height="76" viewBox="0 0 78 76" fill="none" xmlns="http://www.w3.org/2000/svg">
<g clip-path="url(#clip0_116_1286)">
<path d="M29.2937 74.9277C29.262 74.9316 29.2318 74.9436 29.2061 74.9624C28.9852 75.1293 27.6398 75.8835 23.6641 73.5086C19.2683 70.8813 16.5855 69.047 13.3532 68.8361C12.9398 68.8201 9.58227 68.0578 9.62402 66.2769C9.62523 66.2512 9.63184 66.2261 9.64344 66.2031C9.65504 66.1801 9.67136 66.1597 9.69136 66.1434C10.0469 65.8497 11.0705 65.0487 7.76143 63.3866C6.15204 62.5189 4.15073 61.5523 5.60659 60.3989C5.62826 60.3815 5.64572 60.3595 5.65772 60.3346C5.66972 60.3096 5.67595 60.2823 5.67595 60.2547C5.67595 60.2271 5.66972 60.1998 5.65772 60.1748C5.64572 60.1499 5.62826 60.1279 5.60659 60.1105C5.13657 59.7234 4.17901 58.8423 5.78437 57.9959C5.81333 57.9803 5.83764 57.9575 5.85484 57.9296C5.87204 57.9018 5.88153 57.87 5.88235 57.8373C5.88317 57.8047 5.87529 57.7724 5.85951 57.7438C5.84372 57.7151 5.82059 57.6911 5.79245 57.6741C4.74331 57.0494 1.48277 54.9548 5.03152 54.9467C5.0713 54.9466 5.10999 54.9339 5.142 54.9105C5.174 54.887 5.19764 54.8541 5.2095 54.8165C5.22136 54.7788 5.22081 54.7384 5.20794 54.7011C5.19507 54.6638 5.17054 54.6315 5.13792 54.609C2.975 53.1178 -4.80128 47.5335 4.36756 49.9725C4.39966 49.9812 4.43352 49.9812 4.46564 49.9726C4.49776 49.964 4.52699 49.9471 4.55032 49.9236C4.57364 49.9 4.59021 49.8708 4.59833 49.8388C4.60645 49.8068 4.60582 49.7732 4.59651 49.7416C3.98912 47.6803 1.19591 36.1126 11.4974 27.8342C11.5188 27.8171 11.536 27.7954 11.5478 27.7708C11.5597 27.7462 11.5658 27.7193 11.5658 27.6921C11.5658 27.6648 11.5597 27.6379 11.5478 27.6133C11.536 27.5887 11.5188 27.567 11.4974 27.5499C10.1722 26.4298 2.14 18.5586 10.121 0.901937C10.1325 0.87609 10.1499 0.853198 10.1717 0.83501C10.1935 0.816823 10.2193 0.80382 10.2469 0.796995C10.2746 0.790169 10.3035 0.789701 10.3314 0.795626C10.3593 0.801551 10.3854 0.813711 10.4078 0.831181C12.463 2.44119 30.8492 16.3959 31.9899 16.3959C33.202 16.3959 44.3035 14.0423 51.5181 18.2396C51.5427 18.254 51.5704 18.2625 51.5989 18.2646C51.6274 18.2667 51.656 18.2622 51.6824 18.2516C55.4978 16.667 67.2794 10.032 68.8201 9.16025C68.842 9.14793 68.8662 9.14013 68.8913 9.1373C68.9163 9.13447 68.9416 9.13667 68.9658 9.14377C68.9899 9.15088 69.0123 9.16274 69.0318 9.17864C69.0512 9.19455 69.0671 9.21417 69.0787 9.23634C69.8962 10.8063 75.8395 23.0456 70.7097 37.7106C70.6928 37.7535 70.6928 37.8011 70.7097 37.8441C70.9413 38.3874 72.35 42.4525 71.5393 48.4787C71.535 48.5081 71.538 48.5381 71.5478 48.5661C71.5577 48.5941 71.5742 48.6194 71.596 48.6398C71.6177 48.6603 71.6441 48.6752 71.6729 48.6834C71.7017 48.6916 71.7321 48.6928 71.7615 48.6869C73.3264 48.3652 81.2132 46.4828 72.0497 52.2714C72.0164 52.2918 71.9904 52.322 71.9755 52.3579C71.9605 52.3937 71.9574 52.4334 71.9665 52.4711C71.9756 52.5088 71.9965 52.5427 72.0262 52.568C72.0559 52.5933 72.0928 52.6086 72.1319 52.6118C73.8921 52.776 78.657 53.525 69.4841 56.4767C69.445 56.489 69.411 56.5137 69.3874 56.547C69.3638 56.5804 69.3519 56.6205 69.3536 56.6611C69.3553 56.7018 69.3704 56.7408 69.3967 56.7721C69.4229 56.8035 69.4589 56.8253 69.4989 56.8344C70.812 57.1548 72.3958 58.5165 63.8532 64.2917L63.8344 64.3038C51.8898 70.4795 50.4623 70.9627 43.1358 73.1695H43.1089C42.6038 73.2509 30.2081 74.8129 29.2937 74.9277Z" stroke="#585181" stroke-width="2" stroke-miterlimit="10"/>
<path d="M22.6572 66.2407C22.6572 66.2407 24.1563 69.2568 29.4928 67.7272C29.4928 67.7272 33.2867 70.4514 37.6693 68.7325" stroke="#585181" stroke-width="2" stroke-miterlimit="10" stroke-linecap="round"/>
<path d="M18.9736 63.2979C19.3326 63.2979 19.6237 63.0093 19.6237 62.6534C19.6237 62.2974 19.3326 62.0088 18.9736 62.0088C18.6146 62.0088 18.3236 62.2974 18.3236 62.6534C18.3236 63.0093 18.6146 63.2979 18.9736 63.2979Z" fill="#585181"/>
<path d="M29.4927 67.7273L29.7216 64.4517C29.7216 64.4517 22.3628 59.2627 24.5214 57.9006C24.5214 57.8357 30.2122 55.7926 35.6741 59.1979C35.7069 59.2627 38.1571 61.5329 29.9002 64.4193" stroke="#585181" stroke-width="2" stroke-miterlimit="10"/>
<path d="M12.5265 64.3665L18.6589 62.7368" stroke="#585181" stroke-width="2" stroke-miterlimit="10" stroke-linecap="round"/>
<path d="M18.4885 60.7721C18.8475 60.7721 19.1386 60.4835 19.1386 60.1275C19.1386 59.7715 18.8475 59.4829 18.4885 59.4829C18.1295 59.4829 17.8385 59.7715 17.8385 60.1275C17.8385 60.4835 18.1295 60.7721 18.4885 60.7721Z" fill="#585181"/>
<path d="M11.4471 59.7695L18.1437 60.1101" stroke="#585181" stroke-width="2" stroke-miterlimit="10" stroke-linecap="round"/>
<path d="M18.6371 58.8126C18.9961 58.8126 19.2871 58.524 19.2871 58.168C19.2871 57.812 18.9961 57.5234 18.6371 57.5234C18.2781 57.5234 17.9871 57.812 17.9871 58.168C17.9871 58.524 18.2781 58.8126 18.6371 58.8126Z" fill="#585181"/>
<path d="M10.2207 53.4209L18.2419 57.9451" stroke="#585181" stroke-width="2" stroke-miterlimit="10" stroke-linecap="round"/>
<path d="M46.3868 60.0477C46.821 60.0477 47.1731 59.6986 47.1731 59.268C47.1731 58.8374 46.821 58.4883 46.3868 58.4883C45.9525 58.4883 45.6005 58.8374 45.6005 59.268C45.6005 59.6986 45.9525 60.0477 46.3868 60.0477Z" fill="#585181"/>
<path d="M47.9704 62.2786C48.4046 62.2786 48.7567 61.9296 48.7567 61.4989C48.7567 61.0683 48.4046 60.7192 47.9704 60.7192C47.5361 60.7192 47.1841 61.0683 47.1841 61.4989C47.1841 61.9296 47.5361 62.2786 47.9704 62.2786Z" fill="#585181"/>
<path d="M47.6023 64.4276C48.0366 64.4276 48.3887 64.0785 48.3887 63.6479C48.3887 63.2173 48.0366 62.8682 47.6023 62.8682C47.1681 62.8682 46.816 63.2173 46.816 63.6479C46.816 64.0785 47.1681 64.4276 47.6023 64.4276Z" fill="#585181"/>
<path d="M46.6471 59.0884L57.0476 51.8887" stroke="#585181" stroke-width="2" stroke-miterlimit="10" stroke-linecap="round"/>
<path d="M48.0044 61.4883L58.0125 58.083" stroke="#585181" stroke-width="2" stroke-miterlimit="10" stroke-linecap="round"/>
<path d="M47.5465 63.6772L55.5595 64.6502" stroke="#585181" stroke-width="2" stroke-miterlimit="10" stroke-linecap="round"/>
<path d="M15.2983 47.2837L23.0497 52.3105" stroke="#585181" stroke-width="2" stroke-miterlimit="10" stroke-linecap="round"/>
<path d="M14.7587 52.4565L23.0497 52.3105" stroke="#585181" stroke-width="2" stroke-miterlimit="10" stroke-linecap="round"/>
<path d="M25.6806 45.6967C26.1929 44.8736 25.2987 43.405 23.6834 42.4165C22.0681 41.4281 20.3433 41.294 19.8311 42.1171C19.3188 42.9402 20.213 44.4087 21.8283 45.3972C23.4436 46.3857 25.1683 46.5198 25.6806 45.6967Z" fill="#EDE8FE" fill-opacity="0.16" stroke="#585181" stroke-width="2" stroke-miterlimit="10"/>
<path d="M42.9518 46.3652C44.67 45.5653 45.7268 44.2071 45.3123 43.3316C44.8978 42.4561 43.1688 42.3948 41.4507 43.1947C39.7325 43.9946 38.6756 45.3528 39.0902 46.2283C39.5047 47.1038 41.2336 47.1651 42.9518 46.3652Z" fill="#EDE8FE" fill-opacity="0.13" stroke="#585181" stroke-width="2" stroke-miterlimit="10"/>
<path d="M45.0409 53.7767C46.9676 52.8798 48.1527 51.3569 47.6879 50.3753C47.2232 49.3937 45.2846 49.3251 43.3579 50.2221C41.4312 51.1191 40.2461 52.6419 40.7109 53.6235C41.1757 54.6051 43.1143 54.6737 45.0409 53.7767Z" fill="#57507D"/>
<path d="M13.4807 26.4387L20.1867 20.1737C20.1867 20.1737 22.1332 19.5652 21.2681 16.3706C21.2681 16.3706 19.3834 10.3768 15.274 7.30387C15.3049 7.39514 11.4118 3.28775 10.3819 2.375C10.3819 2.375 8.2191 5.12847 7.77109 8.96711C7.78653 8.99753 6.16442 14.2459 8.1573 21.6544C8.17018 21.6924 9.09709 24.47 11.0333 26.4134C11.3572 26.7313 11.7945 26.9118 12.2518 26.9166C12.709 26.9213 13.15 26.7498 13.4807 26.4387Z" fill="#FFB7AC" fill-opacity="0.07" stroke="#585181" stroke-width="2" stroke-miterlimit="10"/>
<path d="M15.6022 24.5412C15.5296 24.5965 15.4403 24.626 15.3487 24.625C14.884 24.6169 13.3973 24.425 11.6434 22.1927C11.6216 22.1927 8.53088 17.7766 12.6968 18.6131C12.7768 18.6313 12.8604 18.6252 12.9368 18.5957C13.0132 18.5662 13.0789 18.5145 13.1254 18.4475C13.1718 18.3805 13.1968 18.3011 13.1972 18.2198C13.1976 18.1385 13.1733 18.0589 13.1274 17.9915C12.5605 17.1172 11.7851 15.8159 11.6925 15.0902C11.6448 15.1389 11.1051 10.285 14.5543 13.8119L14.5788 13.8389C14.6824 13.9646 15.3814 14.9632 15.9143 15.7902C15.9242 15.8067 15.9393 15.8195 15.9574 15.8265C15.9754 15.8336 15.9953 15.8345 16.0139 15.829C16.0325 15.8236 16.0487 15.8122 16.0601 15.7966C16.0714 15.781 16.0772 15.7621 16.0765 15.7429C16.0765 15.3834 16.0833 14.7713 16.0874 14.474C16.0883 14.4478 16.0948 14.422 16.1064 14.3983C16.1882 14.1443 16.6147 13.143 17.1966 13.3551C17.8426 13.5916 18.0892 13.4457 18.2187 16.301C18.2187 16.4239 18.2187 16.5483 18.2187 16.6712C18.1778 17.859 19.7709 15.5997 20.2901 18.2036C20.8352 20.9062 20.5354 20.8549 20.5354 20.8549L15.6022 24.5412Z" stroke="#585181" stroke-width="2" stroke-miterlimit="10"/>
<path d="M32.8819 16.3265C32.4513 16.2765 21.9349 15.1806 15.0162 26.5005C15.0108 26.5087 15.0071 26.5179 15.0053 26.5275C14.9617 26.7815 12.4665 32.4921 21.8504 31.4341C22.7317 31.3332 23.5808 31.0456 24.3402 30.5908C26.1908 29.4882 30.2 27.7531 30.7356 32.7259C30.7336 32.7339 30.7336 32.7422 30.7356 32.7502C30.8719 33.0664 34.0334 39.4662 41.2288 32.9651C41.2615 32.9327 48.7117 37.4406 51.1851 30.5395C51.1907 30.5231 51.2013 30.5088 51.2155 30.4987C51.2296 30.4885 51.2466 30.4829 51.2641 30.4827C51.6212 30.4827 53.5808 30.3584 57.2384 25.3762C60.8484 20.4669 68.0301 11.1334 69.4692 9.26322C69.4807 9.24738 69.4866 9.22812 69.4857 9.20857C69.4848 9.18902 69.4772 9.17035 69.4643 9.15561C69.4513 9.14087 69.4337 9.13092 69.4143 9.12739C69.3948 9.12387 69.3748 9.12697 69.3574 9.1362L52.7005 18.3467C52.6876 18.354 52.673 18.3579 52.6582 18.3579C52.6434 18.3579 52.6288 18.354 52.616 18.3467C51.9673 17.9818 43.7812 13.555 32.9092 16.3197C32.9005 16.3233 32.8913 16.3256 32.8819 16.3265Z" fill="#5332FF" fill-opacity="0.08" stroke="#554E75" stroke-width="2" stroke-miterlimit="10"/>
<path d="M62.4769 34.1324C62.4769 34.1324 71.1113 32.3649 72.1416 35.7215C72.1416 35.7215 73.7769 30.1109 73.6406 26.2516C73.6733 26.2191 73.5425 17.7221 72.2015 14.9979C72.1688 14.9979 70.4559 9.24542 70.0429 9.1238C69.63 9.00219 63.4036 17.8384 63.4036 17.8384C63.4036 17.8384 65.0716 17.5276 65.366 18.7599C65.6603 19.9923 65.1629 24.003 65.1629 24.003L66.3431 24.5787L66.6606 24.7584L66.9032 24.9286L67.0871 25.0989L67.2752 25.403L67.2152 25.8556L67.079 26.3097L66.7655 26.7029L66.1277 27.034L65.3373 27.2664L65.0948 27.6718L65.2733 28.265L65.7394 30.0217V31.5487L65.3619 32.6878C65.3619 32.6878 64.4393 33.5851 64.4257 33.5905C64.412 33.5959 62.4769 34.1324 62.4769 34.1324Z" fill="#FFB7AC" fill-opacity="0.1"/>
<path d="M67.3092 24.8409L71.3007 12.1278L70.3795 9.35897C70.3581 9.28636 70.3166 9.22113 70.2597 9.17068C70.2029 9.12023 70.1329 9.08656 70.0578 9.07348C69.9826 9.06041 69.9053 9.06845 69.8345 9.09669C69.7637 9.12493 69.7023 9.17225 69.6572 9.2333L63.3123 17.9316L64.9762 18.1208L65.385 19.1492L65.4518 20.5545L65.306 22.6882L65.0811 23.5423L67.3092 24.8409Z" fill="black" fill-opacity="0.21"/>
<path d="M60.9574 20.4737C60.9574 20.4737 65.4041 14.805 65.4708 21.0682C65.4722 21.093 65.4722 21.1178 65.4708 21.1426C65.3986 21.6898 65.2773 22.8993 65.0879 23.5425C65.0504 23.6703 65.0634 23.8074 65.1241 23.9261C65.1848 24.0448 65.2888 24.1362 65.415 24.1816C66.2572 24.4857 67.6758 25.0965 67.2247 25.8559C67.1815 25.9305 67.155 26.0135 67.147 26.0991C67.1252 26.3559 66.9154 26.9261 65.539 27.1923C65.4621 27.2065 65.3893 27.2374 65.3259 27.2829C65.2626 27.3284 65.2102 27.3873 65.1726 27.4554C65.135 27.5234 65.1132 27.5989 65.1087 27.6763C65.1042 27.7538 65.1171 27.8313 65.1465 27.9031C65.5703 28.9274 66.2749 31.0219 65.3795 32.6881L65.3427 32.8165C65.3032 33.03 64.4024 34.1597 62.0898 33.8516" stroke="#585181" stroke-width="2" stroke-miterlimit="10" stroke-linecap="round"/>
</g>
<defs>
<clipPath id="clip0_116_1286">
<rect width="78" height="76" fill="white"/>
</clipPath>
</defs>
</svg>
