<svg width="85" height="38" viewBox="0 0 85 38" fill="none" xmlns="http://www.w3.org/2000/svg">
<path d="M17.3162 0.899997C20.2162 0.899997 22.7495 1.75 24.9162 3.45C27.0829 5.15 28.1662 7.35 28.1662 10.05C28.1662 11.4833 27.7662 12.6667 26.9662 13.6C26.1662 14.5333 25.1829 15 24.0162 15C22.8495 15 21.9162 14.85 21.2162 14.55C21.3162 14.0167 21.3662 13.45 21.3662 12.85C21.3329 10.75 20.8162 9.05 19.8162 7.75C18.8162 6.41667 17.3495 5.75 15.4162 5.75C13.5162 5.75 11.7495 6.36667 10.1162 7.6C9.14954 9 8.39954 10.8333 7.86621 13.1C7.33288 15.3667 7.06621 17.6 7.06621 19.8C7.06621 23.4667 7.76621 26.55 9.16621 29.05C10.5995 31.5167 12.8162 32.75 15.8162 32.75C18.5829 32.75 20.4495 31.7 21.4162 29.6C22.3162 27.7667 22.7662 25.3333 22.7662 22.3C24.4662 22.3 25.8829 22.6167 27.0162 23.25C28.1495 23.85 28.7162 24.85 28.7162 26.25C28.7162 29.5167 27.2829 32.2333 24.4162 34.4C21.5495 36.5333 18.3162 37.6 14.7162 37.6C10.0162 37.6 6.44954 36.05 4.01621 32.95C1.58288 29.8167 0.366211 25.5833 0.366211 20.25C0.366211 14.9167 1.88288 10.3667 4.91621 6.6C7.98288 2.8 12.1162 0.899997 17.3162 0.899997ZM48.5314 12.3C48.6648 11.6333 48.7314 10.95 48.7314 10.25C48.7314 7.01667 47.1481 5.4 43.9814 5.4C42.5481 5.4 41.3314 5.7 40.3314 6.3C39.3981 7.4 38.9314 8.71667 38.9314 10.25C38.9314 11.25 39.3648 12.1167 40.2314 12.85C41.0981 13.55 42.1648 14.1 43.4314 14.5C44.7314 14.9 46.1314 15.4 47.6314 16C49.1314 16.6 50.5148 17.25 51.7814 17.95C53.0814 18.6167 54.1648 19.6333 55.0314 21C55.8981 22.3333 56.3314 23.9167 56.3314 25.75C56.3314 29.25 54.9814 32.1 52.2814 34.3C49.6148 36.5 46.3981 37.6 42.6314 37.6C39.5981 37.6 37.0148 36.85 34.8814 35.35C32.7814 33.8167 31.7314 31.6833 31.7314 28.95C31.7314 27.55 32.1481 26.3833 32.9814 25.45C33.8481 24.4833 34.8648 24 36.0314 24C37.2314 24 38.1148 24.15 38.6814 24.45C38.4148 25.45 38.2814 26.35 38.2814 27.15C38.2814 28.95 38.7814 30.3833 39.7814 31.45C40.8148 32.4833 42.2314 33 44.0314 33C45.8314 33 47.2814 32.5333 48.3814 31.6C49.4814 30.6667 50.0314 29.4333 50.0314 27.9C50.0314 26.3333 49.4148 25.05 48.1814 24.05C46.9814 23.05 45.5148 22.25 43.7814 21.65C42.0481 21.05 40.3148 20.4167 38.5814 19.75C36.8481 19.0833 35.3648 18.1 34.1314 16.8C32.9314 15.4667 32.3314 13.8 32.3314 11.8C32.3314 8.66666 33.6814 6.06666 36.3814 4C39.1148 1.93333 42.1981 0.899997 45.6314 0.899997C48.1648 0.899997 50.3481 1.41666 52.1814 2.45C54.0481 3.45 54.9814 4.98333 54.9814 7.05C54.9814 8.55 54.4981 9.83333 53.5314 10.9C52.5648 11.9333 51.3481 12.45 49.8814 12.45C49.4814 12.45 49.0314 12.4 48.5314 12.3ZM76.6076 12.3C76.741 11.6333 76.8076 10.95 76.8076 10.25C76.8076 7.01667 75.2243 5.4 72.0576 5.4C70.6243 5.4 69.4076 5.7 68.4076 6.3C67.4743 7.4 67.0076 8.71667 67.0076 10.25C67.0076 11.25 67.441 12.1167 68.3076 12.85C69.1743 13.55 70.241 14.1 71.5076 14.5C72.8076 14.9 74.2076 15.4 75.7076 16C77.2076 16.6 78.591 17.25 79.8576 17.95C81.1576 18.6167 82.241 19.6333 83.1076 21C83.9743 22.3333 84.4076 23.9167 84.4076 25.75C84.4076 29.25 83.0576 32.1 80.3576 34.3C77.691 36.5 74.4743 37.6 70.7076 37.6C67.6743 37.6 65.091 36.85 62.9576 35.35C60.8576 33.8167 59.8076 31.6833 59.8076 28.95C59.8076 27.55 60.2243 26.3833 61.0576 25.45C61.9243 24.4833 62.941 24 64.1076 24C65.3076 24 66.191 24.15 66.7576 24.45C66.491 25.45 66.3576 26.35 66.3576 27.15C66.3576 28.95 66.8576 30.3833 67.8576 31.45C68.891 32.4833 70.3076 33 72.1076 33C73.9076 33 75.3576 32.5333 76.4576 31.6C77.5576 30.6667 78.1076 29.4333 78.1076 27.9C78.1076 26.3333 77.491 25.05 76.2576 24.05C75.0576 23.05 73.591 22.25 71.8576 21.65C70.1243 21.05 68.391 20.4167 66.6576 19.75C64.9243 19.0833 63.441 18.1 62.2076 16.8C61.0076 15.4667 60.4076 13.8 60.4076 11.8C60.4076 8.66666 61.7576 6.06666 64.4576 4C67.191 1.93333 70.2743 0.899997 73.7076 0.899997C76.241 0.899997 78.4243 1.41666 80.2576 2.45C82.1243 3.45 83.0576 4.98333 83.0576 7.05C83.0576 8.55 82.5743 9.83333 81.6076 10.9C80.641 11.9333 79.4243 12.45 77.9576 12.45C77.5576 12.45 77.1076 12.4 76.6076 12.3Z" fill="#7A6FB9"/>
</svg>
