<svg width="472" height="244" viewBox="0 0 472 244" fill="none" xmlns="http://www.w3.org/2000/svg">
<path d="M454.375 9.18472L361.57 7.93501C355.974 7.85967 351.381 12.0008 351.312 17.1845L348.445 230.058C348.375 235.241 352.855 239.505 358.45 239.58L452.153 239.324C457.749 239.399 461.444 236.764 461.514 231.58L464.38 18.7071C464.45 13.5234 459.971 9.26007 454.375 9.18472Z" fill="#181822" stroke="#564F7C" stroke-width="2" stroke-miterlimit="10"/>
<path d="M452.885 10.5505L363.022 9.34041C357.426 9.26506 352.834 13.4062 352.764 18.5899L349.935 228.689C349.865 233.873 354.344 238.136 359.94 238.211L450.372 238.211C455.967 238.287 459.992 235.356 460.062 230.172L462.891 20.0729C462.961 14.8892 458.481 10.6259 452.885 10.5505Z" stroke="#655E8B" stroke-miterlimit="10"/>
<path d="M390.163 8.32007L425.781 8.7997" stroke="#333333" stroke-miterlimit="10" stroke-linecap="round"/>
<path d="M407.814 18.1418C409.25 18.1612 410.429 17.0983 410.447 15.7678C410.465 14.4373 409.315 13.3431 407.879 13.3237C406.443 13.3044 405.264 14.3673 405.246 15.6978C405.228 17.0282 406.378 18.1225 407.814 18.1418Z" fill="#18181F" stroke="#222222" stroke-miterlimit="10"/>
<path opacity="0.24" d="M408.596 17.465C408.196 17.6162 407.289 17.851 407.154 17.5534C407.019 17.2558 408.181 16.7948 408.533 16.876C409.3 17.0291 409.525 15.9674 409.981 16.3911C410.236 16.6172 408.996 17.3103 408.596 17.465Z" fill="white"/>
<path opacity="0.24" d="M406.57 14.3776C406.951 13.9687 408.057 13.4895 408.252 13.7531C408.447 14.0167 407.498 14.0178 406.971 14.7067C406.734 15.0063 405.91 15.9556 405.715 15.6919C405.52 15.4283 406.307 14.6699 406.57 14.3776Z" fill="white"/>
<path d="M407.839 16.3074C408.201 16.3122 408.499 16.0436 408.503 15.7074C408.508 15.3711 408.218 15.0945 407.855 15.0897C407.492 15.0848 407.195 15.3534 407.19 15.6897C407.186 16.0259 407.476 16.3025 407.839 16.3074Z" fill="#333333"/>
<path opacity="0.24" d="M407.906 15.4628C407.905 15.5534 407.839 15.4271 407.745 15.4259C407.651 15.4246 407.556 15.5487 407.557 15.4581C407.564 15.4192 407.585 15.384 407.618 15.3588C407.65 15.3335 407.691 15.3199 407.734 15.3205C407.776 15.321 407.817 15.3357 407.848 15.3619C407.88 15.388 407.901 15.4238 407.906 15.4628V15.4628Z" fill="white"/>
<path opacity="0.05" d="M351.69 165.262L441.271 9.11086L391.386 8.43911L352.848 79.2697L351.69 165.262Z" fill="white"/>
<path d="M249.527 11.7544H41.2449C37.4014 11.7544 34.2856 14.8621 34.2856 18.6956V147.604C34.2856 151.437 37.4014 154.545 41.2449 154.545H249.527C253.37 154.545 256.486 151.437 256.486 147.604V18.6956C256.486 14.8621 253.37 11.7544 249.527 11.7544Z" fill="#181822" stroke="#564F7C" stroke-width="2" stroke-miterlimit="10"/>
<path d="M275.638 238.245H9.36184C8.27752 238.247 7.20954 237.981 6.25298 237.471C5.29643 236.962 4.48078 236.225 3.87836 235.326C3.27594 234.427 2.90565 233.393 2.79994 232.317C2.69422 231.24 2.85657 230.155 3.27257 229.156L32.601 158.601C33.1009 157.394 33.9495 156.362 35.0387 155.638C36.128 154.913 37.4086 154.528 38.718 154.531H251.784C253.158 154.537 254.495 154.971 255.61 155.772C256.724 156.573 257.559 157.702 257.998 159L281.879 229.59C282.211 230.577 282.302 231.629 282.146 232.659C281.99 233.689 281.591 234.666 280.981 235.512C280.371 236.357 279.569 237.046 278.64 237.522C277.711 237.997 276.682 238.245 275.638 238.245Z" stroke="#564F7C" stroke-width="2" stroke-miterlimit="10"/>
<path opacity="0.1" d="M260.85 228.749H25.6971C21.5546 228.749 18.7308 225.065 20.3188 221.719L46.2229 167.181C46.7348 166.208 47.5103 165.399 48.4613 164.845C49.4122 164.291 50.5004 164.015 51.6012 164.048H239.758C240.918 164.006 242.064 164.312 243.048 164.925C244.033 165.539 244.81 166.432 245.281 167.491L266.373 222.022C267.643 225.334 264.833 228.749 260.85 228.749Z" fill="#564F7C"/>
<path opacity="0.05" d="M36.48 148.615L129.766 14.7382L77.5994 14.0374L37.4768 74.7696L36.48 148.615Z" fill="white"/>
</svg>
