<svg width="641" height="709" viewBox="0 0 641 709" fill="none" xmlns="http://www.w3.org/2000/svg">
<path d="M113.375 9.18472L20.5696 7.93501C14.9741 7.85967 10.3814 12.0008 10.3116 17.1845L7.44508 230.058C7.37528 235.241 11.8548 239.505 17.4503 239.58L111.153 239.324C116.749 239.399 120.444 236.764 120.514 231.58L123.38 18.7071C123.45 13.5234 118.971 9.26007 113.375 9.18472Z" fill="#181822" stroke="#564F7C" stroke-width="2" stroke-miterlimit="10"/>
<path d="M111.885 10.5505L22.0218 9.34041C16.4262 9.26506 11.8336 13.4062 11.7637 18.5899L8.93458 228.689C8.86478 233.873 13.3443 238.136 18.9398 238.211L109.372 238.211C114.967 238.287 118.992 235.356 119.062 230.172L121.891 20.0729C121.961 14.8892 117.481 10.6259 111.885 10.5505Z" stroke="#655E8B" stroke-miterlimit="10"/>
<path d="M49.1631 8.32007L84.7813 8.7997" stroke="#333333" stroke-miterlimit="10" stroke-linecap="round"/>
<path d="M66.8139 18.1418C68.2501 18.1612 69.4289 17.0983 69.4468 15.7678C69.4647 14.4373 68.315 13.3431 66.8788 13.3237C65.4426 13.3044 64.2638 14.3673 64.2459 15.6978C64.228 17.0282 65.3777 18.1225 66.8139 18.1418Z" fill="#18181F" stroke="#222222" stroke-miterlimit="10"/>
<path opacity="0.24" d="M67.5962 17.465C67.1964 17.6162 66.2886 17.851 66.1537 17.5534C66.0188 17.2558 67.181 16.7948 67.5327 16.876C68.3 17.0291 68.5246 15.9674 68.9805 16.3911C69.2365 16.6172 67.9961 17.3103 67.5962 17.465Z" fill="white"/>
<path opacity="0.24" d="M65.5698 14.3776C65.9506 13.9687 67.0567 13.4895 67.2521 13.7531C67.4474 14.0167 66.4979 14.0178 65.9707 14.7067C65.734 15.0063 64.9105 15.9556 64.7151 15.6919C64.5197 15.4283 65.3069 14.6699 65.5698 14.3776Z" fill="white"/>
<path d="M66.8385 16.3074C67.2012 16.3122 67.4989 16.0436 67.5034 15.7074C67.5079 15.3711 67.2176 15.0945 66.8549 15.0897C66.4922 15.0848 66.1946 15.3534 66.19 15.6897C66.1855 16.0259 66.4758 16.3025 66.8385 16.3074Z" fill="#333333"/>
<path opacity="0.24" d="M66.9062 15.4628C66.905 15.5534 66.8391 15.4271 66.7453 15.4259C66.6515 15.4246 66.556 15.5487 66.5572 15.4581C66.5639 15.4192 66.5853 15.384 66.6177 15.3588C66.6501 15.3335 66.6914 15.3199 66.7337 15.3205C66.776 15.321 66.8167 15.3357 66.8484 15.3619C66.8801 15.388 66.9006 15.4238 66.9062 15.4628V15.4628Z" fill="white"/>
<path opacity="0.05" d="M10.69 165.262L100.271 9.11086L50.3856 8.43911L11.848 79.2697L10.69 165.262Z" fill="white"/>
<path d="M596.527 11.7544H388.245C384.401 11.7544 381.286 14.8621 381.286 18.6956V147.604C381.286 151.437 384.401 154.545 388.245 154.545H596.527C600.37 154.545 603.486 151.437 603.486 147.604V18.6956C603.486 14.8621 600.37 11.7544 596.527 11.7544Z" fill="#181822" stroke="#564F7C" stroke-width="2" stroke-miterlimit="10"/>
<path d="M622.638 238.245H356.362C355.278 238.247 354.21 237.981 353.253 237.471C352.296 236.962 351.481 236.225 350.878 235.326C350.276 234.427 349.906 233.393 349.8 232.317C349.694 231.24 349.857 230.155 350.273 229.156L379.601 158.601C380.101 157.394 380.949 156.362 382.039 155.638C383.128 154.913 384.409 154.528 385.718 154.531H598.784C600.158 154.537 601.495 154.971 602.61 155.772C603.724 156.573 604.559 157.702 604.998 159L628.879 229.59C629.211 230.577 629.302 231.629 629.146 232.659C628.99 233.689 628.591 234.666 627.981 235.512C627.371 236.357 626.569 237.046 625.64 237.522C624.711 237.997 623.682 238.245 622.638 238.245Z" stroke="#564F7C" stroke-width="2" stroke-miterlimit="10"/>
<path opacity="0.1" d="M607.85 228.749H372.697C368.555 228.749 365.731 225.065 367.319 221.719L393.223 167.181C393.735 166.208 394.51 165.399 395.461 164.845C396.412 164.291 397.5 164.015 398.601 164.048H586.758C587.918 164.006 589.064 164.312 590.048 164.925C591.033 165.539 591.81 166.432 592.281 167.491L613.373 222.022C614.643 225.334 611.833 228.749 607.85 228.749Z" fill="#564F7C"/>
<path opacity="0.05" d="M383.48 148.615L476.766 14.7382L424.599 14.0374L384.477 74.7696L383.48 148.615Z" fill="white"/>
<g clip-path="url(#clip0_147_1068)">
<path d="M9.11279 375.305H637.887V684.229C637.887 686.663 636.643 688.997 634.428 690.719C632.213 692.44 629.208 693.407 626.076 693.407H20.9243C17.7917 693.407 14.7874 692.44 12.5723 690.719C10.3572 688.997 9.11279 686.663 9.11279 684.229V375.305Z" stroke="#564F7C" stroke-width="5" stroke-miterlimit="10"/>
<path d="M21.2144 344.119H628.902C631.81 344.119 634.6 345.062 636.657 346.742C638.713 348.422 639.869 350.7 639.869 353.075V375.277H9.11279V354.002C9.11279 351.38 10.3878 348.867 12.6573 347.013C14.9268 345.16 18.0049 344.119 21.2144 344.119V344.119Z" stroke="#564F7C" stroke-width="4" stroke-miterlimit="10"/>
<path d="M22.4926 364.969C27.0064 364.969 30.6654 361.981 30.6654 358.295C30.6654 354.609 27.0064 351.621 22.4926 351.621C17.9789 351.621 14.3198 354.609 14.3198 358.295C14.3198 361.981 17.9789 364.969 22.4926 364.969Z" fill="#504070"/>
<path d="M47.4521 364.969C51.9658 364.969 55.6249 361.981 55.6249 358.295C55.6249 354.609 51.9658 351.621 47.4521 351.621C42.9384 351.621 39.2793 354.609 39.2793 358.295C39.2793 361.981 42.9384 364.969 47.4521 364.969Z" fill="#504070"/>
<path d="M69.6386 364.969C74.1523 364.969 77.8114 361.981 77.8114 358.295C77.8114 354.609 74.1523 351.621 69.6386 351.621C65.1249 351.621 61.4658 354.609 61.4658 358.295C61.4658 361.981 65.1249 364.969 69.6386 364.969Z" fill="#504070"/>
</g>
<defs>
<clipPath id="clip0_147_1068">
<rect width="635" height="368" fill="white" transform="translate(6 341)"/>
</clipPath>
</defs>
</svg>
