<svg width="94" height="41" viewBox="0 0 94 41" fill="none" xmlns="http://www.w3.org/2000/svg">
<rect x="1.7002" y="2.2334" width="90.7333" height="36.4667" rx="5.5" stroke="#7A6FB9" stroke-opacity="0.42" stroke-width="3"/>
<path d="M24.1488 22.0611C24.1488 22.8431 24.3244 23.4721 24.6758 23.9481C25.0271 24.4241 25.5484 24.6621 26.2398 24.6621C26.4664 24.6621 26.6761 24.6564 26.8688 24.6451C27.0614 24.6224 27.2201 24.5998 27.3448 24.5771V19.9701C27.1861 19.8681 26.9764 19.7831 26.7158 19.7151C26.4664 19.6471 26.2114 19.6131 25.9508 19.6131C24.7494 19.6131 24.1488 20.4291 24.1488 22.0611ZM29.8778 26.3111C29.6511 26.3791 29.3904 26.4471 29.0958 26.5151C28.8011 26.5718 28.4894 26.6228 28.1608 26.6681C27.8434 26.7134 27.5148 26.7474 27.1748 26.7701C26.8461 26.8041 26.5288 26.8211 26.2228 26.8211C25.4861 26.8211 24.8288 26.7134 24.2508 26.4981C23.6728 26.2828 23.1854 25.9768 22.7888 25.5801C22.3921 25.1721 22.0861 24.6848 21.8708 24.1181C21.6668 23.5401 21.5648 22.8941 21.5648 22.1801C21.5648 21.4548 21.6554 20.8031 21.8368 20.2251C22.0181 19.6358 22.2788 19.1371 22.6188 18.7291C22.9588 18.3211 23.3724 18.0094 23.8598 17.7941C24.3584 17.5788 24.9251 17.4711 25.5598 17.4711C25.9111 17.4711 26.2228 17.5051 26.4948 17.5731C26.7781 17.6411 27.0614 17.7374 27.3448 17.8621V13.8161L29.8778 13.4081V26.3111ZM31.4165 29.7451C31.2579 29.7451 31.0255 29.7281 30.7195 29.6941C30.4022 29.6601 30.1075 29.5978 29.8355 29.5071L30.1755 27.4501C30.3455 27.5068 30.5042 27.5464 30.6515 27.5691C30.7875 27.5918 30.9632 27.6031 31.1785 27.6031C31.5752 27.6031 31.8529 27.4841 32.0115 27.2461C32.1702 27.0081 32.2495 26.6624 32.2495 26.2091V17.6581H34.7825V26.2771C34.7825 27.4558 34.4935 28.3284 33.9155 28.8951C33.3375 29.4618 32.5045 29.7451 31.4165 29.7451ZM35.0205 15.0741C35.0205 15.5388 34.8675 15.9071 34.5615 16.1791C34.2669 16.4398 33.9155 16.5701 33.5075 16.5701C33.0995 16.5701 32.7425 16.4398 32.4365 16.1791C32.1419 15.9071 31.9945 15.5388 31.9945 15.0741C31.9945 14.6094 32.1419 14.2468 32.4365 13.9861C32.7425 13.7141 33.0995 13.5781 33.5075 13.5781C33.9155 13.5781 34.2669 13.7141 34.5615 13.9861C34.8675 14.2468 35.0205 14.6094 35.0205 15.0741ZM40.5806 24.8321C40.8299 24.8321 41.0679 24.8264 41.2946 24.8151C41.5213 24.8038 41.7026 24.7868 41.8386 24.7641V22.8431C41.7366 22.8204 41.5836 22.7978 41.3796 22.7751C41.1756 22.7524 40.9886 22.7411 40.8186 22.7411C40.5806 22.7411 40.3539 22.7581 40.1386 22.7921C39.9346 22.8148 39.7533 22.8658 39.5946 22.9451C39.4359 23.0244 39.3113 23.1321 39.2206 23.2681C39.1299 23.4041 39.0846 23.5741 39.0846 23.7781C39.0846 24.1748 39.2149 24.4524 39.4756 24.6111C39.7476 24.7584 40.1159 24.8321 40.5806 24.8321ZM40.3766 17.4201C41.1246 17.4201 41.7479 17.5051 42.2466 17.6751C42.7453 17.8451 43.1419 18.0888 43.4366 18.4061C43.7426 18.7234 43.9579 19.1088 44.0826 19.5621C44.2073 20.0154 44.2696 20.5198 44.2696 21.0751V26.3451C43.9069 26.4244 43.4026 26.5151 42.7566 26.6171C42.1106 26.7304 41.3286 26.7871 40.4106 26.7871C39.8326 26.7871 39.3056 26.7361 38.8296 26.6341C38.3649 26.5321 37.9626 26.3678 37.6226 26.1411C37.2826 25.9031 37.0219 25.5971 36.8406 25.2231C36.6592 24.8491 36.5686 24.3901 36.5686 23.8461C36.5686 23.3248 36.6706 22.8828 36.8746 22.5201C37.0899 22.1574 37.3732 21.8684 37.7246 21.6531C38.0759 21.4378 38.4782 21.2848 38.9316 21.1941C39.3849 21.0921 39.8553 21.0411 40.3426 21.0411C40.6713 21.0411 40.9603 21.0581 41.2096 21.0921C41.4703 21.1148 41.6799 21.1488 41.8386 21.1941V20.9561C41.8386 20.5254 41.7083 20.1798 41.4476 19.9191C41.1869 19.6584 40.7336 19.5281 40.0876 19.5281C39.6569 19.5281 39.2319 19.5621 38.8126 19.6301C38.3933 19.6868 38.0306 19.7718 37.7246 19.8851L37.4016 17.8451C37.5489 17.7998 37.7302 17.7544 37.9456 17.7091C38.1722 17.6524 38.4159 17.6071 38.6766 17.5731C38.9373 17.5278 39.2093 17.4938 39.4926 17.4711C39.7873 17.4371 40.0819 17.4201 40.3766 17.4201ZM46.5601 17.9641C46.9907 17.8394 47.5461 17.7261 48.2261 17.6241C48.9061 17.5108 49.6201 17.4541 50.3681 17.4541C51.1274 17.4541 51.7564 17.5561 52.2551 17.7601C52.7651 17.9528 53.1674 18.2304 53.4621 18.5931C53.7567 18.9558 53.9664 19.3864 54.0911 19.8851C54.2157 20.3838 54.2781 20.9391 54.2781 21.5511V26.6001H51.7451V21.8571C51.7451 21.0411 51.6374 20.4631 51.4221 20.1231C51.2067 19.7831 50.8044 19.6131 50.2151 19.6131C50.0337 19.6131 49.8411 19.6244 49.6371 19.6471C49.4331 19.6584 49.2517 19.6754 49.0931 19.6981V26.6001H46.5601V17.9641ZM58.7298 21.8401C58.7298 23.2568 59.3021 23.9651 60.4468 23.9651C60.7075 23.9651 60.9511 23.9311 61.1778 23.8631C61.4045 23.7951 61.5971 23.7158 61.7558 23.6251V19.5791C61.6311 19.5564 61.4838 19.5394 61.3138 19.5281C61.1438 19.5054 60.9455 19.4941 60.7188 19.4941C60.0501 19.4941 59.5515 19.7151 59.2228 20.1571C58.8941 20.5991 58.7298 21.1601 58.7298 21.8401ZM64.2888 25.4781C64.2888 26.9401 63.9148 28.0224 63.1668 28.7251C62.4301 29.4391 61.2855 29.7961 59.7328 29.7961C59.1888 29.7961 58.6448 29.7451 58.1008 29.6431C57.5568 29.5524 57.0525 29.4278 56.5878 29.2691L57.0298 27.1441C57.4265 27.3028 57.8401 27.4274 58.2708 27.5181C58.7128 27.6088 59.2115 27.6541 59.7668 27.6541C60.4921 27.6541 61.0021 27.4954 61.2968 27.1781C61.6028 26.8608 61.7558 26.4528 61.7558 25.9541V25.6311C61.4838 25.7558 61.2005 25.8521 60.9058 25.9201C60.6225 25.9768 60.3108 26.0051 59.9708 26.0051C58.7355 26.0051 57.7891 25.6424 57.1318 24.9171C56.4745 24.1804 56.1458 23.1548 56.1458 21.8401C56.1458 21.1828 56.2478 20.5878 56.4518 20.0551C56.6558 19.5111 56.9505 19.0464 57.3358 18.6611C57.7325 18.2758 58.2141 17.9811 58.7808 17.7771C59.3475 17.5618 59.9878 17.4541 60.7018 17.4541C61.0078 17.4541 61.3195 17.4711 61.6368 17.5051C61.9655 17.5278 62.2885 17.5618 62.6058 17.6071C62.9231 17.6524 63.2235 17.7091 63.5068 17.7771C63.8015 17.8338 64.0621 17.8961 64.2888 17.9641V25.4781ZM75.0286 22.1121C75.0286 22.8148 74.9266 23.4608 74.7226 24.0501C74.5186 24.6281 74.2239 25.1268 73.8386 25.5461C73.4532 25.9541 72.9886 26.2714 72.4446 26.4981C71.9119 26.7248 71.3112 26.8381 70.6426 26.8381C69.9852 26.8381 69.3846 26.7248 68.8406 26.4981C68.3079 26.2714 67.8489 25.9541 67.4636 25.5461C67.0782 25.1268 66.7779 24.6281 66.5626 24.0501C66.3472 23.4608 66.2396 22.8148 66.2396 22.1121C66.2396 21.4094 66.3472 20.7691 66.5626 20.1911C66.7892 19.6131 67.0952 19.1201 67.4806 18.7121C67.8772 18.3041 68.3419 17.9868 68.8746 17.7601C69.4186 17.5334 70.0079 17.4201 70.6426 17.4201C71.2886 17.4201 71.8779 17.5334 72.4106 17.7601C72.9546 17.9868 73.4192 18.3041 73.8046 18.7121C74.1899 19.1201 74.4902 19.6131 74.7056 20.1911C74.9209 20.7691 75.0286 21.4094 75.0286 22.1121ZM72.4446 22.1121C72.4446 21.3301 72.2859 20.7181 71.9686 20.2761C71.6626 19.8228 71.2206 19.5961 70.6426 19.5961C70.0646 19.5961 69.6169 19.8228 69.2996 20.2761C68.9822 20.7181 68.8236 21.3301 68.8236 22.1121C68.8236 22.8941 68.9822 23.5174 69.2996 23.9821C69.6169 24.4354 70.0646 24.6621 70.6426 24.6621C71.2206 24.6621 71.6626 24.4354 71.9686 23.9821C72.2859 23.5174 72.4446 22.8941 72.4446 22.1121Z" fill="#7A6FB9" fill-opacity="0.42"/>
</svg>
