<svg width="74" height="20" viewBox="0 0 74 20" fill="none" xmlns="http://www.w3.org/2000/svg">
<path d="M9.89453 13.1299L9.36719 11.917C8.20703 12.4971 7.1084 12.7871 6.07129 12.7871C4.33105 12.7871 3.12695 11.9521 2.45898 10.2822C2.16016 9.52637 2.00195 8.65625 1.98438 7.67188H10.1846V7.0127C10.1494 2.74121 8.55859 0.59668 5.41211 0.579102C3.54883 0.579102 2.14258 1.41406 1.19336 3.08398C0.525391 4.24414 0.191406 5.66797 0.191406 7.35547C0.191406 10.2734 1.0791 12.2949 2.85449 13.4199C3.71582 13.9648 4.71777 14.2373 5.86035 14.2373C7.23145 14.2197 8.57617 13.8506 9.89453 13.1299ZM5.38574 1.97656C6.91504 1.97656 7.87305 2.85547 8.25977 4.61328C8.36523 5.12305 8.41797 5.67676 8.41797 6.27441L2.03711 6.30078C2.26562 4.0332 3.04785 2.64453 4.38379 2.13477C4.7002 2.0293 5.03418 1.97656 5.38574 1.97656ZM21.8125 12.8926H21.6807C21.3291 12.8574 21.0039 12.6377 20.7051 12.2334L17.4092 7.30273L21.7598 0.816406H19.9932L16.5918 6.03711L13.2959 0.816406H11.292L15.5898 7.3291L11.0811 14H12.874L16.4336 8.62109L19.1494 12.8398C19.8174 13.7363 20.4854 14.2021 21.1533 14.2373C21.3994 14.2373 21.6455 14.2109 21.8916 14.1582L21.8125 12.8926ZM28.3516 12.8135C27.5254 12.7959 26.6992 12.5762 25.873 12.1543V6.32715C25.873 4.49902 26.4268 3.21582 27.5342 2.47754C28.0088 2.16113 28.5098 2.00293 29.0371 2.00293C30.127 2.00293 30.9795 2.57422 31.5947 3.7168C32.0342 4.54297 32.2539 5.57129 32.2539 6.80176C32.2539 9.38574 31.6123 11.1699 30.3291 12.1543C29.749 12.5938 29.0898 12.8135 28.3516 12.8135ZM25.8467 19.3789V13.7891C26.6904 14.0879 27.5518 14.2373 28.4307 14.2373C30.3818 14.2373 31.876 13.3496 32.9131 11.5742C33.6689 10.2734 34.0469 8.67383 34.0469 6.77539C34.0469 4.33203 33.3525 2.55664 31.9639 1.44922C31.208 0.869141 30.3555 0.579102 29.4062 0.579102C27.877 0.59668 26.6816 1.32617 25.8203 2.76758L25.7676 0.816406H24.1592L24.1328 19.3789H25.8467ZM38.8721 14V6.45898C38.8721 4.73633 39.3467 3.48828 40.2959 2.71484C40.7705 2.3457 41.2891 2.16113 41.8516 2.16113C42.1855 2.16113 42.5195 2.21387 42.8535 2.31934L43.0645 0.68457C42.8008 0.614258 42.5195 0.579102 42.2207 0.579102C40.7617 0.579102 39.6631 1.31738 38.9248 2.79395C38.8896 2.88184 38.8545 2.96094 38.8193 3.03125L38.7666 0.790039H37.1582V14H38.8721ZM53.5059 13.1299L52.9785 11.917C51.8184 12.4971 50.7197 12.7871 49.6826 12.7871C47.9424 12.7871 46.7383 11.9521 46.0703 10.2822C45.7715 9.52637 45.6133 8.65625 45.5957 7.67188H53.7959V7.0127C53.7607 2.74121 52.1699 0.59668 49.0234 0.579102C47.1602 0.579102 45.7539 1.41406 44.8047 3.08398C44.1367 4.24414 43.8027 5.66797 43.8027 7.35547C43.8027 10.2734 44.6904 12.2949 46.4658 13.4199C47.3271 13.9648 48.3291 14.2373 49.4717 14.2373C50.8428 14.2197 52.1875 13.8506 53.5059 13.1299ZM48.9971 1.97656C50.5264 1.97656 51.4844 2.85547 51.8711 4.61328C51.9766 5.12305 52.0293 5.67676 52.0293 6.27441L45.6484 6.30078C45.877 4.0332 46.6592 2.64453 47.9951 2.13477C48.3115 2.0293 48.6455 1.97656 48.9971 1.97656ZM63.5518 10.5195C63.5518 9.18359 62.875 8.11133 61.5215 7.30273C61.2402 7.12695 60.792 6.89844 60.1768 6.61719C59.0166 6.03711 58.2783 5.53613 57.9619 5.11426C57.6982 4.7627 57.5664 4.37598 57.5664 3.9541C57.5664 3.05762 58.0059 2.44238 58.8848 2.1084C59.1836 2.00293 59.4912 1.9502 59.8076 1.9502C60.8623 1.9502 61.6709 2.33691 62.2334 3.11035C62.2861 3.19824 62.3301 3.27734 62.3652 3.34766L63.6309 2.66211C62.9805 1.43164 61.8818 0.746094 60.335 0.605469C60.1768 0.587891 60.0098 0.579102 59.834 0.579102C58.4805 0.579102 57.4082 1.01855 56.6172 1.89746C56.1074 2.49512 55.8525 3.18945 55.8525 3.98047C55.8525 5.29883 56.5205 6.3623 57.8564 7.1709C58.1377 7.3291 58.5771 7.55762 59.1748 7.85645C60.3525 8.41895 61.0996 8.91113 61.416 9.33301C61.6973 9.70215 61.8379 10.1152 61.8379 10.5723C61.8379 11.5918 61.3809 12.2861 60.4668 12.6553C60.1328 12.7783 59.7812 12.8398 59.4121 12.8398C58.3047 12.8223 57.2061 12.4531 56.1162 11.7324L55.4307 12.8926C56.626 13.7891 57.9619 14.2373 59.4385 14.2373C60.8623 14.2373 61.9697 13.7539 62.7607 12.7871C63.2881 12.1543 63.5518 11.3984 63.5518 10.5195ZM73.7031 10.5195C73.7031 9.18359 73.0264 8.11133 71.6729 7.30273C71.3916 7.12695 70.9434 6.89844 70.3281 6.61719C69.168 6.03711 68.4297 5.53613 68.1133 5.11426C67.8496 4.7627 67.7178 4.37598 67.7178 3.9541C67.7178 3.05762 68.1572 2.44238 69.0361 2.1084C69.335 2.00293 69.6426 1.9502 69.959 1.9502C71.0137 1.9502 71.8223 2.33691 72.3848 3.11035C72.4375 3.19824 72.4814 3.27734 72.5166 3.34766L73.7822 2.66211C73.1318 1.43164 72.0332 0.746094 70.4863 0.605469C70.3281 0.587891 70.1611 0.579102 69.9854 0.579102C68.6318 0.579102 67.5596 1.01855 66.7686 1.89746C66.2588 2.49512 66.0039 3.18945 66.0039 3.98047C66.0039 5.29883 66.6719 6.3623 68.0078 7.1709C68.2891 7.3291 68.7285 7.55762 69.3262 7.85645C70.5039 8.41895 71.251 8.91113 71.5674 9.33301C71.8486 9.70215 71.9893 10.1152 71.9893 10.5723C71.9893 11.5918 71.5322 12.2861 70.6182 12.6553C70.2842 12.7783 69.9326 12.8398 69.5635 12.8398C68.4561 12.8223 67.3574 12.4531 66.2676 11.7324L65.582 12.8926C66.7773 13.7891 68.1133 14.2373 69.5898 14.2373C71.0137 14.2373 72.1211 13.7539 72.9121 12.7871C73.4395 12.1543 73.7031 11.3984 73.7031 10.5195Z" fill="#BFBBDA"/>
</svg>
