<svg width="134" height="100" viewBox="0 0 134 100" fill="none" xmlns="http://www.w3.org/2000/svg">
<path d="M23.5072 8.62699C22.2378 10.7807 20.3469 13.4968 17.8343 16.775C15.3505 20.0703 13.5416 22.6799 12.4076 24.6039C11.2736 26.5279 10.8427 28.4407 11.1149 30.3423C11.404 32.2151 12.568 33.7524 14.6069 34.954C15.4396 35.4449 16.5632 35.8362 17.9775 36.1281C19.3919 36.42 20.6298 36.4532 21.6914 36.2276C23.9434 33.2601 26.5419 29.278 29.4869 24.2813C32.4488 19.2558 34.4932 14.9665 35.6201 11.4132C36.7421 11.6103 37.82 12.0134 38.8539 12.6227C39.8877 13.232 40.5832 14.0869 40.9406 15.1875C41.3267 16.3049 41.2066 17.3949 40.5804 18.4575C39.9541 19.52 38.7502 21.2673 36.9684 23.6995C35.2154 26.1486 33.3911 28.9813 31.4955 32.1976C29.6168 35.3851 28.1018 38.284 26.9503 40.8942C20.7266 41.8691 15.461 41.0872 11.1535 38.5484C7.87982 36.6189 5.81486 34.2798 4.95865 31.531C4.14808 28.7705 4.68214 25.7964 6.56083 22.6089C7.15321 21.6038 8.30564 19.8454 10.0181 17.3337C11.7763 14.8103 13.0108 12.9455 13.7216 11.7394C16.2773 7.40314 17.8688 4.04633 18.4962 1.66894C19.6182 1.86595 20.6961 2.2691 21.7299 2.8784C22.7637 3.48771 23.4593 4.34263 23.8167 5.44317C24.2027 6.56063 24.0996 7.62191 23.5072 8.62699ZM53.7486 59.2423C53.2747 60.0464 52.5298 60.5553 51.5139 60.7691C50.5267 60.9998 49.5592 60.8358 48.6116 60.2773C47.6926 59.7357 46.9717 58.9239 46.4487 57.8418C45.9257 56.7597 45.5599 55.6735 45.3512 54.5832C45.1713 53.5099 45.1117 52.1012 45.1723 50.3571C45.2489 47.7324 45.4863 44.835 45.8845 41.6648C39.5566 43.9326 35.1033 46.8602 32.5246 50.4477C28.9063 48.3151 27.7995 46.0571 29.2043 43.6736C29.6782 42.8695 30.5847 42.185 31.9237 41.62C33.3083 41.0431 35.572 40.2879 38.7146 39.3543C41.886 38.4376 44.4437 37.6429 46.3879 36.9702C47.3726 27.6841 46.2712 22.1018 43.0837 20.2231C43.7268 19.1318 44.5505 18.4565 45.5546 18.1971C46.5587 17.9377 47.6064 18.1295 48.6976 18.7727C50.6217 19.9067 51.8469 21.9637 52.3734 24.9437C52.9285 27.9407 52.9213 31.3994 52.3518 35.3199C57.3761 33.7541 61.1911 31.0887 63.797 27.3238C67.4153 29.4563 68.5729 31.6282 67.2696 33.8394C66.7957 34.6435 65.8749 35.3196 64.5072 35.8677C63.1564 36.3871 61.1489 37.0031 58.4847 37.7157C55.8206 38.4283 53.6077 39.0974 51.8461 39.7229C51.5008 42.3439 51.3025 44.0262 51.2512 44.7698C51.2285 45.5303 51.1592 46.5342 51.0432 47.7813C50.9729 49.0167 50.9746 49.9657 51.0484 50.6283C51.1392 51.2621 51.245 52.0016 51.366 52.8467C51.4869 53.6919 51.701 54.3791 52.0081 54.9083C52.3322 55.4089 52.724 55.7945 53.1834 56.0653C53.6429 56.3361 54.1244 56.5039 54.628 56.5685C54.5156 57.547 54.2225 58.4382 53.7486 59.2423ZM54.7453 61.5709C57.57 60.9142 61.1188 59.2913 65.3918 56.7024C68.2935 54.9303 70.1112 53.8156 70.8451 53.3582C71.6246 52.889 74.0242 51.2466 78.0439 48.431C82.0923 45.6323 84.4522 44.0245 85.1235 43.6077C87.2118 42.3622 89.0169 42.188 90.5389 43.085C92.0609 43.982 92.888 45.2046 93.0202 46.7529C89.7591 47.8875 84.6874 50.6828 77.805 55.1387C77.1167 55.5843 75.5441 56.6113 73.0871 58.2199C67.1432 62.0682 63.6818 64.2649 62.7027 64.8099C60.5114 66.0333 58.6547 66.1965 57.1327 65.2995C55.6394 64.4194 54.8436 63.1765 54.7453 61.5709ZM102.759 55.3364C101.489 57.4902 99.5983 60.2062 97.0858 63.4845C94.6019 66.7797 92.793 69.3893 91.6591 71.3133C90.5251 73.2373 90.0942 75.1501 90.3663 77.0517C90.6554 78.9245 91.8194 80.4618 93.8583 81.6635C94.6911 82.1543 95.8147 82.5457 97.229 82.8376C98.6433 83.1294 99.8813 83.1626 100.943 82.937C103.195 79.9695 105.793 75.9874 108.738 70.9907C111.7 65.9653 113.745 61.6759 114.872 58.1227C115.994 58.3197 117.072 58.7228 118.105 59.3321C119.139 59.9414 119.835 60.7964 120.192 61.8969C120.578 63.0144 120.458 64.1043 119.832 65.1669C119.206 66.2294 118.002 67.9767 116.22 70.4089C114.467 72.858 112.643 75.6907 110.747 78.907C108.868 82.0945 107.353 84.9934 106.202 87.6036C99.9781 88.5785 94.7125 87.7966 90.405 85.2578C87.1313 83.3284 85.0663 80.9892 84.2101 78.2405C83.3995 75.4799 83.9336 72.5058 85.8123 69.3183C86.4047 68.3132 87.5571 66.5548 89.2696 64.0431C91.0277 61.5197 92.2622 59.6549 92.9731 58.4488C95.5288 54.1126 97.1203 50.7557 97.7476 48.3784C98.8697 48.5754 99.9476 48.9785 100.981 49.5878C102.015 50.1971 102.711 51.052 103.068 52.1526C103.454 53.27 103.351 54.3313 102.759 55.3364ZM115.828 98.8489C114.706 98.6519 113.628 98.2488 112.594 97.6395C111.561 97.0302 110.851 96.1668 110.465 95.0493C110.107 93.9488 110.267 92.8242 110.944 91.6755C111.621 90.5268 113.059 88.4146 115.259 85.3389C117.476 82.2344 119.16 79.7058 120.311 77.7531C123.272 72.7277 125.315 68.5727 126.438 65.2882C127.56 65.4852 128.638 65.8883 129.672 66.4976C130.706 67.1069 131.401 67.9618 131.759 69.0624C132.145 70.1798 131.999 71.3129 131.322 72.4616C130.645 73.6103 129.199 75.7368 126.982 78.8413C124.782 81.917 123.107 84.4313 121.956 86.384C118.994 91.4094 116.952 95.5644 115.828 98.8489Z" fill="#7A6FB9"/>
</svg>
