<svg width="53" height="77" viewBox="0 0 53 77" fill="none" xmlns="http://www.w3.org/2000/svg">
<path d="M13.2527 76.9996C20.5653 76.9996 26.5001 71.2503 26.5001 64.1663V51.333H13.2527C5.94018 51.333 0.00537109 57.0823 0.00537109 64.1663C0.00537109 71.2503 5.94018 76.9996 13.2527 76.9996Z" fill="#564F7C"/>
<path d="M0.00537109 38.5003C0.00537109 31.4163 5.94018 25.667 13.2527 25.667H26.5001V51.3336H13.2527C5.94018 51.3336 0.00537109 45.5843 0.00537109 38.5003Z" fill="#7A6FB9"/>
<path d="M0.00585938 12.8333C0.00585938 5.74933 5.94067 0 13.2532 0H26.5006V25.6667H13.2532C5.94067 25.6667 0.00585938 19.9173 0.00585938 12.8333Z" fill="#564F7C"/>
<path d="M26.5 0H39.7474C47.0599 0 52.9947 5.74933 52.9947 12.8333C52.9947 19.9173 47.0599 25.6667 39.7474 25.6667H26.5V0Z" fill="#7A6FB9"/>
<path d="M52.9947 38.5003C52.9947 45.5843 47.0599 51.3336 39.7474 51.3336C32.4348 51.3336 26.5 45.5843 26.5 38.5003C26.5 31.4163 32.4348 25.667 39.7474 25.667C47.0599 25.667 52.9947 31.4163 52.9947 38.5003Z" fill="#564F7C"/>
</svg>
