<svg width="154" height="59" viewBox="0 0 154 59" fill="none" xmlns="http://www.w3.org/2000/svg">
<g clip-path="url(#clip0_112_1385)">
<path d="M11.6212 17.8459C11.3213 17.8459 11.2463 17.6921 11.3963 17.4613L12.9708 15.3844C13.1207 15.1536 13.4956 14.9998 13.7955 14.9998H40.5618C40.8617 14.9998 40.9367 15.2305 40.7867 15.4613L39.5121 17.4613C39.3622 17.6921 38.9873 17.9228 38.7624 17.9228L11.6212 17.8459Z" fill="#7A6FB9"/>
<path d="M0.299903 24.9228C0 24.9228 -0.0749757 24.769 0.0749757 24.5382L1.64946 22.4613C1.79942 22.2305 2.17429 22.0767 2.4742 22.0767H36.6631C36.963 22.0767 37.113 22.3074 37.038 22.5382L36.4382 24.3844C36.3632 24.692 36.0633 24.8459 35.7634 24.8459L0.299903 24.9228Z" fill="#7A6FB9"/>
<path d="M18.4439 32C18.144 32 18.0691 31.7692 18.219 31.5384L19.2687 29.6153C19.4186 29.3846 19.7185 29.1538 20.0184 29.1538H35.0136C35.3135 29.1538 35.4634 29.3846 35.4634 29.6923L35.3135 31.5384C35.3135 31.8461 35.0136 32.0769 34.7886 32.0769L18.4439 32Z" fill="#7A6FB9"/>
<path d="M95.3792 15.1434C93.6073 11.1883 91.0128 7.94278 87.4801 5.5493L87.472 5.54384L87.464 5.53827C81.7897 1.58522 75.4719 0.761787 68.7281 2.0128C60.4952 3.5555 53.7721 7.87552 48.6631 14.7414L48.6609 14.7444C43.9151 21.0888 41.6514 28.2501 42.5767 36.2108L95.3792 15.1434ZM95.3792 15.1434C92.9809 15.7714 90.9351 16.3287 88.8623 16.8933C87.1016 17.3729 85.3214 17.8578 83.289 18.3959L83.289 18.3959L83.2771 18.3991C83.2267 18.4129 83.1815 18.4254 83.14 18.4368C83.0771 18.4542 83.0225 18.4692 82.9708 18.4831C82.8906 18.396 82.7859 18.2761 82.6446 18.1088L82.6446 18.1087L82.6359 18.0986C81.4661 16.7384 80.4835 15.7116 78.642 14.8102C73.3575 12.1461 68.2117 12.97 63.574 16.0582C58.0445 19.7293 55.1758 25.2105 55.2568 31.9409L55.2568 31.9411C55.3399 38.7609 59.9405 44.5239 66.6663 45.4847L66.6663 45.4847L66.6766 45.4861C72.3306 46.2539 77.0919 44.1679 80.7616 39.9009L80.7797 39.8798L80.797 39.8581C81.3343 39.1843 81.8374 38.4504 82.3565 37.693C82.5285 37.4421 82.7023 37.1885 82.8797 36.9338L84.5207 34.5767H81.6486H81.6328H81.617H81.6011H81.5852H81.5694H81.5535H81.5375H81.5216H81.5056H81.4897H81.4737H81.4577H81.4417H81.4256H81.4096H81.3935H81.3774H81.3613H81.3451H81.329H81.3128H81.2966H81.2804H81.2642H81.2479H81.2316H81.2154H81.199H81.1827H81.1664H81.15H81.1336H81.1172H81.1007H81.0843H81.0678H81.0513H81.0347H81.0182H81.0016H80.985H80.9684H80.9517H80.9351H80.9184H80.9016H80.8849H80.8681H80.8513H80.8345H80.8177H80.8008H80.7839H80.767H80.75H80.7331H80.7161H80.6991H80.682H80.6649H80.6478H80.6307H80.6135H80.5963H80.5791H80.5619H80.5446H80.5273H80.51H80.4926H80.4752H80.4578H80.4404H80.4229H80.4054H80.3879H80.3703H80.3527H80.3351H80.3174H80.2997H80.282H80.2642H80.2465H80.2286H80.2108H80.1929H80.175H80.1571H80.1391H80.1211H80.103H80.085H80.0669H80.0487H80.0305H80.0123H79.9941H79.9758H79.9575H79.9391H79.9208H79.9023H79.8839H79.8654H79.8469H79.8283H79.8097H79.7911H79.7724H79.7537H79.7349H79.7162H79.6973H79.6785H79.6596H79.6407H79.6217H79.6027H79.5836H79.5645H79.5454H79.5262H79.507H79.4878H79.4685H79.4492H79.4298H79.4104H79.391H79.3715H79.352H79.3324H79.3128H79.2931H79.2734H79.2537H79.2339H79.2141H79.1942H79.1743H79.1544H79.1344H79.1144H79.0943H79.0742H79.054H79.0338H79.0135H78.9933H78.9729H78.9525H78.9321H78.9116H78.8911H78.8705H78.8499H78.8293H78.8086H78.7878H78.767H78.7462H78.7253H78.7043H78.6833H78.6623H78.6412H78.6201H78.5989H78.5777H78.5564H78.5351H78.5137H78.4923H78.4708H78.4493H78.4277H78.4061H78.3845H78.3627H78.341H78.3192H78.2973H78.2754H78.2534H78.2314H78.2093H78.1872H78.165H78.1427H78.1205H78.0981H78.0757H78.0533H78.0308H78.0082H77.9856H77.963H77.9403H77.9175H77.8947H77.8718H77.8489H77.8259H77.8029H77.7798H77.7566H77.7334H77.7102H77.6868H77.6635H77.64H77.6165H77.593H77.5694H77.5457H77.522H77.4983H77.4744H77.4505H77.4266H77.4026H77.3785H77.3544H77.3302H77.306H77.2817H77.2573H77.2329H77.2084H77.1839H77.1593H77.1346H77.1099H77.0851H77.0603H77.0354H77.0104H76.9854H76.9603H76.9351H76.9099H76.8847H76.8593H76.8339H76.8084H76.7829H76.7573H76.7317H76.7059H76.6802H76.6543H76.6284H76.6024H76.5764H76.5503H76.5241H76.4979H76.4716H76.4452H76.4188H76.3923H76.3657H76.3391H76.3124H76.2856H76.2588H76.2319H76.2049H76.1779H76.1508H76.1236H76.0963H76.069H76.0416H76.0142H75.9867H75.9591H75.9314H75.9037H75.8759H75.8481H75.8201H75.7921H75.764H75.7359H75.7077H75.6794H75.651H75.6226H75.5941H75.5655H75.5369H75.5081H75.4793H75.4505H75.4215H75.3925H75.3634H75.3343H75.305H75.2757H75.2464H75.2169H75.1874H75.1578H75.1281H75.0983H75.0685H75.0386H75.0086H74.9786H74.9484H74.9182H74.8879H74.8576H74.8271H74.7966H74.766H74.7353H74.7046H74.6738H74.6429H74.6119H74.5808H74.5497H74.5185H74.4872H74.4558H74.4243H74.3928H74.3612H74.3295H74.2977H74.2658H74.2339H74.2019H74.1698H74.1376H74.1053H74.073H74.0406H74.0081H73.9755H73.9428H73.9101H73.8772H73.8443H73.8113H73.7782H73.745H73.7118H73.6784H73.645H73.6115H73.5779H73.5443H73.5105H73.4767H73.4427H73.4087H73.3746H73.3404H73.3062H73.2718H73.2373H73.2028H73.1682H73.1335H73.0987H73.0638H73.0289H72.9938H72.9587H72.9234H72.8881H72.8527H72.8172H72.7816H72.7459H72.7102H72.6743H72.6384H72.6023H72.5662H72.53H72.4937H72.4573H72.4208H72.3842H72.3476H72.3108H72.274H72.237H72.2H72.1629H72.1256H72.0883H72.0509H72.0134H71.9758H71.9381H71.9004H71.8625H71.8245H71.7865H71.7483H71.7101H71.6717H71.6333H71.5947H71.5561H71.5174H71.4786H71.4397H71.4006H71.3615H71.3223H71.283H71.2436H71.2041H71.1645H71.1248H71.0851H71.0452H71.0052H70.9651H70.9249H70.8846H70.8443H70.8038H70.7632H70.7225H70.6818H70.6409H70.5999H70.5588H70.5177H70.4764H70.435H70.3935H70.3519H70.3103H70.2685H70.2266H70.1846H70.1425H70.1003H70.058H70.0156H69.9731H69.9305H69.8878H69.845H69.8021H69.7591H69.716H69.6727H69.6294H69.586H69.5424H69.4988H69.455H69.4112H69.3672H69.3232H69.279H69.2347H69.1903H69.1458H69.1012H69.0565H69.0117H68.9668H68.9218H68.8766H68.8314H68.786H68.7406H68.695H68.6493H68.6035H68.5576H68.5116H68.4655H68.4193H68.373H68.3265H68.28H68.2333H68.1865H68.1396H68.0926H68.0455H67.9983H67.951H67.9035H67.856H67.8083H67.7605H67.7126H67.6646H67.6165H67.5683H67.5199H67.4715H67.4229H67.3742H67.3254H67.2765H67.2275H67.1783C67.1354 34.5767 67.0972 34.5755 67.0634 34.5734C67.0807 34.507 67.1064 34.4265 67.1443 34.3317C68.1092 31.9714 69.8868 28.0229 70.9057 26.0815L70.9161 26.0617L70.9259 26.0415C70.9867 25.9169 71.0601 25.8129 71.1378 25.7481C71.1719 25.7197 71.206 25.6994 71.2444 25.685C71.2815 25.671 71.3458 25.6536 71.4519 25.6536H71.4745H71.4972H71.5202H71.5434H71.5669H71.5906H71.6145H71.6386H71.663H71.6876H71.7125H71.7375H71.7628H71.7883H71.8141H71.8401H71.8662H71.8927H71.9193H71.9462H71.9732H72.0005H72.0281H72.0558H72.0838H72.112H72.1404H72.169H72.1978H72.2269H72.2561H72.2856H72.3153H72.3452H72.3753H72.4056H72.4362H72.4669H72.4979H72.5291H72.5604H72.592H72.6238H72.6558H72.688H72.7204H72.753H72.7859H72.8189H72.8521H72.8855H72.9191H72.953H72.987H73.0212H73.0556H73.0902H73.1251H73.1601H73.1953H73.2307H73.2663H73.3021H73.338H73.3742H73.4106H73.4471H73.4839H73.5208H73.558H73.5953H73.6328H73.6705H73.7083H73.7464H73.7846H73.8231H73.8617H73.9005H73.9394H73.9786H74.0179H74.0575H74.0972H74.137H74.1771H74.2173H74.2577H74.2983H74.3391H74.38H74.4211H74.4624H74.5039H74.5455H74.5873H74.6293H74.6714H74.7137H74.7562H74.7988H74.8417H74.8846H74.9278H74.9711H75.0146H75.0582H75.102H75.146H75.1901H75.2344H75.2789H75.3235H75.3682H75.4132H75.4583H75.5035H75.5489H75.5945H75.6402H75.6861H75.7321H75.7782H75.8246H75.8711H75.9177H75.9645H76.0114H76.0585H76.1057H76.1531H76.2006H76.2483H76.2961H76.3441H76.3922H76.4404H76.4888H76.5373H76.586H76.6348H76.6838H76.7329H76.7822H76.8315H76.881H76.9307H76.9805H77.0304H77.0805H77.1307H77.181H77.2315H77.2821H77.3328H77.3836H77.4346H77.4858H77.537H77.5884H77.6399H77.6915H77.7433H77.7952H77.8472H77.8993H77.9516H78.0039H78.0564H78.1091H78.1618H78.2147H78.2677H78.3208H78.374H78.4273H78.4808H78.5344H78.5881H78.6419H78.6958H78.7498H78.804H78.8582H78.9126H78.9671H79.0217H79.0764H79.1312H79.1861H79.2411H79.2963H79.3515H79.4069H79.4623H79.5179H79.5735H79.6293H79.6852H79.7411H79.7972H79.8534H79.9096H79.966H80.0225H80.079H80.1357H80.1924H80.2493H80.3062H80.3633H80.4204H80.4776H80.535H80.5924H80.6499H80.7075H80.7652H80.8229H80.8808H80.9387H80.9968H81.0549H81.1131H81.1714H81.2298H81.2882H81.3468H81.4054H81.4641H81.5229H81.5818H81.6407H81.6997H81.7589H81.818H81.8773H81.9366H81.996H82.0555H82.1151H82.1747H82.2344H82.2942H82.3541H82.414H82.474H82.534H82.5942H82.6544H82.7146H82.775H82.8354H82.8958H82.9563H83.0169H83.0776H83.1383H83.1991H83.2599H83.3208H83.3818H83.4428H83.5039H83.5651H83.6262H83.6875H83.7488H83.8102H83.8716H83.9331H83.9946H84.0562H84.1178H84.1795H84.2412H84.303H84.3649H84.4267H84.4887H84.5507H84.6127H84.6748H84.7369H84.799H84.8612H84.9235H84.9858H85.0481H85.1105H85.1729H85.2354H85.2979H85.3604H85.423H85.4856H85.5482H85.6109H85.6736H85.7364H85.7992H85.862H85.9248H85.9877H86.0506H86.1136H86.1766H86.2396H86.3026H86.3657H86.4288H86.4919H86.555H86.6182H86.6814H86.7446H86.8078H86.8711H86.9344H86.9977H87.061H87.1243H87.1877H87.2511H87.3145H87.3779H87.4414H87.5048H87.5683H87.6318H87.6952H87.7588H87.8223H87.8858H87.9494H88.0129H88.0765H88.14H88.2036H88.2672H88.3308H88.3944H88.458H88.5216H88.5853H88.6489H88.7125H88.7761H88.8398H88.9034H88.967H89.0307H89.0943H89.1579H89.2215H89.2852H89.3488H89.4124H89.476H89.5396H89.6032H89.6668H89.7304H89.794H89.8576H89.9211H89.9847H90.0482H90.1117H90.1752H90.2387H90.3022H90.3657H90.4292H90.4926H90.556H90.6194H90.6828H90.7462H90.8096H90.8729H90.9362H90.9995H91.0628H91.126H91.1892H91.2524H91.3156H91.3788H91.4419H91.505H91.5681H91.6311H91.6941H91.7571H91.8201H91.883H91.9459H92.0088H92.0716H92.1344H92.1972H92.2599H92.3226H92.3853H92.4479H92.5105H92.5731H92.6356H92.698H92.7605H92.8229H92.8852H92.9475H93.0098H93.072H93.1342H93.1963H93.2584H93.3205H93.3825H93.4444H93.5063H93.5682H93.63H93.6918H93.7535H93.8151H93.8767H93.9383H93.9998H94.0612H94.1226H94.184H94.2452H94.3065H94.3676H94.4287H94.4898H94.5508H94.6117H94.6726H94.7334H94.7941H94.8548H94.9154H94.976H95.0365H95.0969H95.1573H95.2176H95.2778H95.3379H95.398H95.4581H95.518H95.5779H95.6377H95.6974H95.7571H95.8167H95.8762H95.9357H95.995H96.0543H96.1135H96.1727H96.2317H96.2907H96.3496H96.4085H96.4672H96.5259H96.5844H96.6429H96.7013H96.7597H96.8179H96.8761H96.9342H96.9921H97.05H97.1078H97.1518C97.1417 25.8562 97.1322 26.0566 97.1227 26.2553C97.059 27.5915 96.999 28.8504 96.8091 30.1668C96.0181 35.4755 94.0829 40.3178 90.9391 44.5695L90.9387 44.5701C85.7557 51.5864 79.0547 55.8817 70.5739 57.0521C63.5749 58.0044 57.1675 56.6146 51.5257 52.2743C46.3068 48.2211 43.3562 42.8987 42.5767 36.2112L95.3792 15.1434ZM95.7773 15.9979C95.7792 16.0013 95.7799 16.0029 95.7799 16.0029C95.7798 16.0028 95.7789 16.0012 95.7773 15.9979Z" stroke="#7A6FB9" stroke-width="3"/>
<path d="M103.785 51.1064C99.6201 47.4119 97.0233 42.7279 96.1775 37.1593L96.1767 37.1544C94.8961 28.9058 97.0831 21.6126 101.971 15.0497L101.973 15.0469C107.204 7.98912 113.455 4.33568 122.028 2.7836C129.399 1.44906 136.161 2.21078 142.27 6.46025C147.871 10.3892 151.295 15.6396 152.212 22.5741C153.43 32.5066 150.656 40.5164 143.998 47.4202L143.996 47.4226C139.272 52.3427 133.479 55.432 126.79 56.8366C125.53 57.0751 124.338 57.1818 123.086 57.2937C122.419 57.3533 121.736 57.4145 121.016 57.4978C114.526 57.3328 108.698 55.4258 103.785 51.1064ZM140.428 28.0078L140.433 27.9093L140.426 27.8108C140.409 27.5868 140.396 27.3543 140.382 27.1174C140.345 26.4558 140.305 25.759 140.18 25.1106C138.675 16.6561 131.025 11.805 123.068 13.6934C119.344 14.5566 116.212 16.2191 113.784 18.6887C111.357 21.1578 109.703 24.3631 108.827 28.2048L108.826 28.2092C107.332 34.8529 110.476 41.6653 116.565 44.4416L116.565 44.4417L116.574 44.4459C121.141 46.4904 125.746 46.2217 130.103 43.9447L130.103 43.9447L130.113 43.9393C136.484 40.547 140.022 35.1627 140.428 28.0078Z" stroke="#7A6FB9" stroke-width="3"/>
</g>
<defs>
<clipPath id="clip0_112_1385">
<rect width="154" height="59" fill="white"/>
</clipPath>
</defs>
</svg>
