<svg width="57" height="57" viewBox="0 0 57 57" fill="none" xmlns="http://www.w3.org/2000/svg">
<path d="M39.1875 9.5C35.055 9.5 31.0888 11.4238 28.5 14.4637C25.9113 11.4238 21.945 9.5 17.8125 9.5C10.4975 9.5 4.75 15.2475 4.75 22.5625C4.75 31.54 12.825 38.855 25.0563 49.97L28.5 53.0812L31.9438 49.9462C44.175 38.855 52.25 31.54 52.25 22.5625C52.25 15.2475 46.5025 9.5 39.1875 9.5ZM28.7375 46.4312L28.5 46.6687L28.2625 46.4312C16.9575 36.195 9.5 29.4262 9.5 22.5625C9.5 17.8125 13.0625 14.25 17.8125 14.25C21.47 14.25 25.0325 16.6012 26.2913 19.855H30.7325C31.9675 16.6012 35.53 14.25 39.1875 14.25C43.9375 14.25 47.5 17.8125 47.5 22.5625C47.5 29.4262 40.0425 36.195 28.7375 46.4312Z" fill="#564F7C"/>
</svg>
