<svg width="79" height="104" viewBox="0 0 79 104" fill="none" xmlns="http://www.w3.org/2000/svg">
<g clip-path="url(#clip0_112_1407)">
<path d="M38.9818 19.1086C34.165 22.4511 28.7181 26.2567 25.8118 32.539C20.7307 43.4928 36.1771 55.4533 36.8478 55.9566C37.0104 56.0775 37.1933 56.1379 37.3762 56.1379C37.5794 56.1379 37.7624 56.0775 37.925 55.9365C38.2298 55.6748 38.3111 55.2519 38.1282 54.8895C38.0672 54.7888 32.5187 44.117 32.7423 36.4453C32.8236 33.7874 36.5836 30.747 40.5671 27.5454C44.2254 24.6056 48.3512 21.2833 50.7901 17.3971C56.0947 8.85965 50.1804 0.443001 50.1195 0.362459C49.8756 0.0402904 49.4488 -0.0805227 49.0829 0.0805615C48.7171 0.241646 48.5138 0.644356 48.5951 1.02693C48.6155 1.08734 49.7536 6.64474 46.5627 12.3834C45.2417 14.7594 42.3353 16.7729 38.9818 19.1086Z" fill="#7A6FB9"/>
<path d="M59.2451 22.8741C59.5906 22.6123 59.6922 22.1492 59.4687 21.7868C59.2654 21.4243 58.8183 21.2633 58.4118 21.4042C57.5989 21.7062 38.4128 29.0356 38.4128 37.8952C38.4128 43.9963 41.0347 47.218 42.9655 49.5738C43.7174 50.5001 44.3678 51.2853 44.5914 51.9699C45.2011 53.9231 43.7581 57.4871 43.1687 58.6751C42.9858 59.0174 43.0874 59.4402 43.3719 59.6819C43.5345 59.8228 43.7378 59.8832 43.9207 59.8832C44.0833 59.8832 44.2662 59.8429 44.4085 59.7221C44.7337 59.5006 52.4772 54.0842 51.0748 47.5603C50.5667 45.0836 49.3269 43.2714 48.2497 41.6606C46.5628 39.1839 45.3637 37.3918 47.1929 34.0896C49.3676 30.2638 59.1435 22.9546 59.2451 22.8741Z" fill="#7A6FB9"/>
<path d="M9.30871 60.0445C8.98352 61.011 9.12579 61.9976 9.75584 62.8433C11.8289 65.7025 19.2066 67.2731 30.5068 67.2731C32.0311 67.2731 33.6571 67.253 35.3033 67.1926C53.3715 66.5482 60.0581 60.9707 60.3427 60.7492C60.6475 60.4874 60.7288 60.0646 60.5459 59.7223C60.363 59.38 59.9565 59.1988 59.5704 59.2994C53.1886 61.011 41.3193 61.615 33.0677 61.615C23.8405 61.615 19.1456 60.9506 18.0074 60.4673C18.5968 59.6619 22.2349 58.2323 26.7468 57.3463C27.1736 57.2658 27.4785 56.863 27.4379 56.4402C27.3972 56.0174 27.0314 55.675 26.5842 55.675C23.9421 55.6952 10.6908 55.8965 9.30871 60.0445Z" stroke="#7A6FB9" stroke-width="3" stroke-miterlimit="10"/>
<path d="M69.7526 54.3057C66.0333 54.3057 62.4969 56.1581 62.3546 56.2387C62.0091 56.4199 61.8262 56.8226 61.9278 57.185C62.0294 57.5676 62.3546 57.8294 62.7611 57.8294C62.8424 57.8294 70.7078 57.8898 71.4192 62.3397C72.0492 66.1856 63.9805 72.4075 60.81 74.4815C60.4645 74.7029 60.3425 75.1459 60.4848 75.5084C60.6271 75.8305 60.9319 76.0319 61.2774 76.0319C61.3384 76.0319 61.3994 76.0319 61.4603 76.0118C62.2123 75.8507 79.8334 72.0048 77.9636 61.8363C76.8051 55.6145 72.8622 54.3057 69.7526 54.3057Z" stroke="#7A6FB9" stroke-width="3" stroke-miterlimit="10"/>
<path d="M57.6596 73.2532C57.7206 72.9311 57.5783 72.5888 57.3141 72.4076L53.0867 69.4678C52.8835 69.3268 52.6192 69.2866 52.3754 69.347C52.3347 69.3671 47.904 70.5148 41.5019 71.2196C38.9614 71.5015 36.0957 71.6424 33.2503 71.6424C26.8279 71.6424 22.6411 70.8974 22.0314 70.3537C21.9501 70.1927 21.9704 70.1322 21.9907 70.092C22.0923 69.7899 22.7021 69.4275 23.0882 69.2866C23.515 69.1255 23.7386 68.6825 23.6167 68.2395C23.4947 67.8167 23.0476 67.5549 22.6004 67.6556C18.3527 68.6624 16.2796 70.092 16.4422 71.8639C16.7064 75.0252 24.1044 76.636 30.344 77.079C31.2382 77.1394 32.2138 77.1797 33.23 77.1797C43.6156 77.1797 56.928 73.958 57.0499 73.9177C57.3548 73.8372 57.5987 73.5754 57.6596 73.2532Z" stroke="#7A6FB9" stroke-width="3" stroke-miterlimit="10"/>
<path d="M25.8117 80.0186C26.1368 79.8173 26.2791 79.4146 26.1572 79.0521C26.0352 78.6897 25.71 78.4481 25.3239 78.4682C24.7548 78.4883 19.7754 78.7098 19.4095 81.851C19.3079 82.7973 19.5721 83.643 20.2225 84.4082C22.011 86.5023 26.8482 87.7708 34.9982 88.2339C35.9534 88.2943 36.9493 88.3145 37.9045 88.3145C48.2698 88.3145 55.2614 85.0928 55.5459 84.9518C55.8304 84.8109 56.0134 84.5491 56.0337 84.227C56.054 83.9048 55.8914 83.6229 55.6272 83.4618L50.2819 80.2401C50.099 80.1193 49.8755 80.0992 49.6722 80.1395C49.6316 80.1395 46.2578 80.8442 41.1361 81.5288C40.1605 81.6496 38.9614 81.7302 37.5387 81.7302C32.4373 81.7302 26.7466 80.9046 25.6491 80.3609C25.6287 80.2603 25.6491 80.1395 25.8117 80.0186Z" stroke="#7A6FB9" stroke-width="3" stroke-miterlimit="10"/>
<path d="M33.0877 98.04C56.8466 98.0198 69.5899 93.8317 72.0491 91.1939C72.923 90.2677 73.0043 89.3817 72.9434 88.7978C72.7605 87.3883 71.4597 86.5023 71.3174 86.4218C70.9516 86.2003 70.4841 86.2607 70.1996 86.5627C69.9151 86.8849 69.9151 87.348 70.1996 87.6702C70.3419 87.8514 70.4435 88.1736 69.9964 88.6165C69.0208 89.5226 59.1229 92.2812 42.6197 93.1068C40.3637 93.2276 37.9858 93.288 35.5876 93.288C20.8322 93.288 10.0198 91.2946 8.61742 90.1267C9.16617 89.3414 12.9871 88.1132 17.0519 87.4084C17.5194 87.3279 17.8243 86.905 17.743 86.4419C17.682 85.9788 17.2552 85.6768 16.7877 85.7372C16.6658 85.7573 16.2796 85.7774 15.8325 85.7976C9.12552 86.2003 1.38202 87.1064 0.975535 90.5294C0.85359 91.5765 1.15845 92.5228 1.91045 93.3484C3.67865 95.3418 8.88163 98.0198 33.0877 98.04Z" stroke="#7A6FB9" stroke-width="3" stroke-miterlimit="10"/>
<path d="M76.7035 91.9388C76.358 91.7777 75.9719 91.8582 75.728 92.1401C75.6873 92.1804 72.1306 95.8854 61.3791 98.0399C57.2736 98.8654 49.5505 99.2681 38.4535 99.2681C27.3361 99.2681 16.7473 98.8251 16.6253 98.8251C16.1782 98.805 15.8124 99.1272 15.7514 99.55C15.6904 99.9729 15.9749 100.396 16.4018 100.496C16.5034 100.517 27.6004 103.094 42.7825 103.094C50.0586 103.094 57.1314 102.51 63.818 101.362C76.297 99.1876 77.171 93.0664 77.1913 92.8046C77.232 92.4422 77.0287 92.0797 76.7035 91.9388Z" stroke="#7A6FB9" stroke-width="3" stroke-miterlimit="10"/>
</g>
<defs>
<clipPath id="clip0_112_1407">
<rect width="79" height="104" fill="white"/>
</clipPath>
</defs>
</svg>
