<svg width="79" height="79" viewBox="0 0 79 79" fill="none" xmlns="http://www.w3.org/2000/svg">
<g clip-path="url(#clip0_112_1382)">
<path d="M2.99531 0.187256H76.0048C77.5524 0.187256 78.8129 1.44776 78.8129 2.99531V76.0048C78.8129 77.5524 77.5524 78.8129 76.0048 78.8129H2.99531C1.44776 78.8129 0.187256 77.5524 0.187256 76.0048V2.99531C0.187256 1.44776 1.44776 0.187256 2.99531 0.187256Z" stroke="#7A6FB9" stroke-width="4" stroke-miterlimit="10"/>
<path d="M52.1798 62.0892C52.6291 61.8271 53.2032 61.9644 53.5028 62.3887C55.0253 64.5728 57.0222 66.0954 60.292 66.0954C63.3497 66.0954 65.3091 64.5603 65.3091 62.4511C65.3091 59.9176 63.2998 59.0191 59.9301 57.5464L58.083 56.7477C52.7539 54.4763 49.2095 51.6308 49.2095 45.6153C49.2095 40.074 53.4279 35.8557 60.0299 35.8557C64.398 35.8557 67.6304 37.266 70.0141 40.9102C70.3136 41.372 70.1888 41.996 69.7146 42.2955L65.6336 44.9164C65.1843 45.2034 64.5727 45.0911 64.2732 44.6418C63.15 42.9819 61.877 42.308 60.0299 42.308C57.8708 42.308 56.498 43.6808 56.498 45.478C56.498 47.6995 57.8708 48.5981 61.0408 49.9709L62.8879 50.7571C69.1655 53.4529 72.7099 56.1985 72.7099 62.3638C72.7099 69.0157 67.4806 72.66 60.4667 72.66C54.0768 72.66 49.7961 69.827 47.4873 65.983C47.2002 65.5088 47.3625 64.8973 47.8492 64.6102L52.1798 62.0892ZM26.0337 62.7756C26.508 62.4886 27.1195 62.6383 27.4066 63.1126C28.405 64.7725 29.4908 66.0454 31.6623 66.0454C34.096 66.0454 35.6186 65.0969 35.6186 61.4028V37.2909C35.6186 36.7418 36.0678 36.2925 36.617 36.2925H42.0084C42.5576 36.2925 43.0069 36.7418 43.0069 37.2909V61.5151C43.0069 69.1655 38.5265 72.6475 31.9743 72.6475C26.5329 72.6475 23.1882 70.0516 21.3412 66.7693C21.0791 66.295 21.2288 65.696 21.6906 65.4214L26.0337 62.7756Z" fill="#7A6FB9"/>
</g>
<defs>
<clipPath id="clip0_112_1382">
<rect width="79" height="79" rx="2" fill="white"/>
</clipPath>
</defs>
</svg>
