<svg width="73" height="82" viewBox="0 0 73 82" fill="none" xmlns="http://www.w3.org/2000/svg">
<mask id="path-1-inside-1_112_1445" fill="white">
<path d="M36.6166 81.5661C35.5211 81.5661 34.4332 81.2797 33.4728 80.7287L23.4658 74.8254C21.9712 73.9926 22.7005 73.698 23.1934 73.5283C25.1863 72.833 25.5907 72.676 27.7178 71.4723C27.9414 71.3452 28.2341 71.3901 28.4629 71.5246L36.1507 76.0702C36.4283 76.2198 36.8222 76.2198 37.0795 76.0702L67.0547 58.8298C67.3323 58.6728 67.5124 58.3514 67.5124 58.0224V23.5566C67.5124 23.2127 67.3323 22.9061 67.0487 22.7342L37.0855 5.50875C36.8079 5.34427 36.4403 5.34427 36.1627 5.50875L6.20553 22.7342C5.91516 22.8987 5.73058 23.2201 5.73058 23.5491V58.0149C5.73058 58.3439 5.91066 58.6579 6.19578 58.8149L14.4042 63.5399C18.8611 65.7604 21.5848 63.1437 21.5848 60.512V26.4948C21.5848 26.0088 21.9674 25.635 22.4551 25.635H26.2517C26.7244 25.635 27.1146 26.0088 27.1146 26.4948V60.527C27.1146 66.4482 23.8732 69.8499 18.2384 69.8499C16.5051 69.8499 15.1395 69.8499 11.3279 67.9809L3.46463 63.4652C1.52131 62.3437 0.320801 60.2504 0.320801 58.0149V23.5491C0.320801 21.3062 1.52131 19.2128 3.46463 18.1063L33.4698 0.858476C35.3681 -0.210638 37.8891 -0.210638 39.7724 0.858476L69.74 18.1138C71.6759 19.2278 72.8839 21.3137 72.8839 23.5566V58.0224C72.8839 60.2578 71.6759 62.3437 69.74 63.4652L39.7724 80.713C38.812 81.2663 37.7241 81.5504 36.6136 81.5504"/>
</mask>
<path d="M33.4728 80.7287L27.8837 90.203L27.941 90.2368L27.9988 90.27L33.4728 80.7287ZM23.4658 74.8254L29.0549 65.3511L28.9384 65.2824L28.8202 65.2166L23.4658 74.8254ZM23.1934 73.5283L26.7742 83.9292L26.7957 83.9218L26.8171 83.9143L23.1934 73.5283ZM27.7178 71.4723L33.1352 81.0458L33.1445 81.0406L33.1537 81.0353L27.7178 71.4723ZM28.4629 71.5246L34.0615 62.056L34.0502 62.0493L34.0388 62.0426L28.4629 71.5246ZM36.1507 76.0702L30.552 85.5389L30.7411 85.6507L30.9345 85.7548L36.1507 76.0702ZM37.0795 76.0702L31.5952 66.5349L31.5743 66.5469L31.5535 66.5591L37.0795 76.0702ZM67.0547 58.8298L61.6397 49.255L61.605 49.2746L61.5703 49.2945L67.0547 58.8298ZM67.0487 22.7342L72.7515 13.328L72.6421 13.2616L72.531 13.1977L67.0487 22.7342ZM37.0855 5.50875L31.4786 14.9725L31.5406 15.0092L31.6032 15.0452L37.0855 5.50875ZM36.1627 5.50875L41.6459 15.0447L41.708 15.009L41.7696 14.9725L36.1627 5.50875ZM6.20553 22.7342L11.627 32.3053L11.6579 32.2878L11.6887 32.2701L6.20553 22.7342ZM6.19578 58.8149L11.6835 49.2815L11.5931 49.2295L11.5017 49.1792L6.19578 58.8149ZM14.4042 63.5399L8.91654 73.0733L9.20307 73.2382L9.49898 73.3857L14.4042 63.5399ZM11.3279 67.9809L5.84995 77.5198L6.16189 77.699L6.48486 77.8573L11.3279 67.9809ZM3.46463 63.4652L-2.03343 72.9926L-2.0234 72.9984L-2.01336 73.0041L3.46463 63.4652ZM3.46463 18.1063L8.90742 27.6654L8.92703 27.6543L8.94659 27.643L3.46463 18.1063ZM33.4698 0.858476L28.0718 -8.72601L28.0297 -8.70228L27.9878 -8.67819L33.4698 0.858476ZM39.7724 0.858476L45.2613 -8.6742L45.2322 -8.69099L45.2029 -8.7076L39.7724 0.858476ZM69.74 18.1138L64.2511 27.6465L64.2536 27.6479L69.74 18.1138ZM69.74 63.4652L75.2272 72.9989L75.2406 72.9911L75.2541 72.9833L69.74 63.4652ZM39.7724 80.713L34.2853 71.1793L34.2817 71.1814L39.7724 80.713ZM36.6166 70.5661C37.4283 70.5661 38.2295 70.7759 38.9468 71.1875L27.9988 90.27C30.6369 91.7835 33.614 92.5661 36.6166 92.5661V70.5661ZM39.0618 71.2544L29.0549 65.3511L17.8767 84.2997L27.8837 90.203L39.0618 71.2544ZM28.8202 65.2166C28.9032 65.2628 29.131 65.3935 29.4396 65.6161C29.7277 65.8239 30.2659 66.2399 30.8595 66.8923C31.9136 68.0509 34.6441 71.7841 33.1572 76.9634C31.9383 81.2095 28.7058 82.9935 28.2221 83.2663C27.7251 83.5467 27.3195 83.7182 27.1209 83.7984C27.0095 83.8434 26.9206 83.8766 26.8657 83.8966C26.8114 83.9164 26.7747 83.929 26.7742 83.9292L19.6127 63.1274C19.513 63.1617 18.5014 63.4909 17.4136 64.1045C16.7012 64.5063 13.2874 66.4479 12.0113 70.8929C10.4673 76.2712 13.2649 80.2449 14.5872 81.6982C15.9154 83.1579 17.3715 84.022 18.1114 84.4343L28.8202 65.2166ZM26.8171 83.9143C29.3841 83.0187 30.3941 82.5969 33.1352 81.0458L22.3005 61.8988C21.2541 62.4909 21.0082 62.6073 20.8997 62.656C20.787 62.7066 20.6344 62.7708 19.5698 63.1423L26.8171 83.9143ZM33.1537 81.0353C30.9395 82.2939 28.7198 82.5076 27.0625 82.3524C25.4284 82.1993 24.0198 81.6728 22.887 81.0067L34.0388 62.0426C31.7666 60.7064 27.098 59.1717 22.282 61.9093L33.1537 81.0353ZM22.8643 80.9933L30.552 85.5389L41.7493 66.6016L34.0615 62.056L22.8643 80.9933ZM30.9345 85.7548C34.3372 87.5876 38.81 87.7867 42.6056 85.5814L31.5535 66.5591C33.4328 65.4671 35.2674 65.1824 36.6227 65.1824C38.0045 65.1824 39.6778 65.4759 41.3668 66.3857L30.9345 85.7548ZM42.5639 85.6056L72.539 68.3652L61.5703 49.2945L31.5952 66.5349L42.5639 85.6056ZM72.4696 68.4047C76.4 66.1819 78.5124 62.0792 78.5124 58.0224H56.5124C56.5124 54.6235 58.2645 51.1638 61.6397 49.255L72.4696 68.4047ZM78.5124 58.0224V23.5566H56.5124V58.0224H78.5124ZM78.5124 23.5566C78.5124 19.2767 76.246 15.4466 72.7515 13.328L61.3458 32.1404C58.4186 30.3657 56.5124 27.1486 56.5124 23.5566H78.5124ZM72.531 13.1977L42.5679 -4.02768L31.6032 15.0452L61.5663 32.2706L72.531 13.1977ZM42.6925 -3.95498C38.9575 -6.16782 34.2907 -6.16782 30.5557 -3.95498L41.7696 14.9725C38.5899 16.8564 34.6583 16.8564 31.4786 14.9725L42.6925 -3.95498ZM30.6795 -4.02721L0.722329 13.1982L11.6887 32.2701L41.6459 15.0447L30.6795 -4.02721ZM0.784023 13.163C-2.98127 15.2958 -5.26942 19.2894 -5.26942 23.5491H16.7306C16.7306 27.1509 14.8116 30.5015 11.627 32.3053L0.784023 13.163ZM-5.26942 23.5491V58.0149H16.7306V23.5491H-5.26942ZM-5.26942 58.0149C-5.26942 62.2042 -3.03649 66.2886 0.889829 68.4506L11.5017 49.1792C14.8578 51.0272 16.7306 54.4836 16.7306 58.0149H-5.26942ZM0.708081 68.3483L8.91654 73.0733L19.8919 54.0066L11.6835 49.2815L0.708081 68.3483ZM9.49898 73.3857C14.1149 75.6854 19.907 76.3691 25.1125 73.4024C30.0191 70.606 32.5848 65.5014 32.5848 60.512H10.5848C10.5848 58.1542 11.7886 55.6739 14.2191 54.2887C16.9486 52.7331 19.1505 53.615 19.3095 53.6942L9.49898 73.3857ZM32.5848 60.512V26.4948H10.5848V60.512H32.5848ZM32.5848 26.4948C32.5848 32.2453 27.8799 36.635 22.4551 36.635V14.635C16.0549 14.635 10.5848 19.7723 10.5848 26.4948H32.5848ZM22.4551 36.635H26.2517V14.635H22.4551V36.635ZM26.2517 36.635C20.8122 36.635 16.1146 32.2456 16.1146 26.4948H38.1146C38.1146 19.772 32.6366 14.635 26.2517 14.635V36.635ZM16.1146 26.4948V60.527H38.1146V26.4948H16.1146ZM16.1146 60.527C16.1146 61.5456 15.857 60.8382 16.8237 59.8231C17.2763 59.3478 17.7707 59.0649 18.1374 58.9273C18.4709 58.8021 18.5514 58.8499 18.2384 58.8499V80.8499C23.2953 80.8499 28.6868 79.2672 32.7554 74.9948C36.7515 70.7985 38.1146 65.4296 38.1146 60.527H16.1146ZM18.2384 58.8499C18.0051 58.8499 17.89 58.8497 17.7907 58.8479C17.7061 58.8465 17.688 58.8446 17.7065 58.8459C17.781 58.8509 17.8947 58.866 17.9858 58.8865C18.1034 58.9131 17.6635 58.8362 16.171 58.1044L6.48486 77.8573C8.804 78.9946 10.9526 79.8522 13.1393 80.3461C15.4725 80.873 17.3224 80.8499 18.2384 80.8499V58.8499ZM16.8059 58.4419L8.94261 53.9262L-2.01336 73.0041L5.84995 77.5198L16.8059 58.4419ZM8.96269 53.9378C10.4413 54.7911 11.3208 56.3398 11.3208 58.0149H-10.6792C-10.6792 64.1609 -7.39873 69.8964 -2.03343 72.9926L8.96269 53.9378ZM11.3208 58.0149V23.5491H-10.6792V58.0149H11.3208ZM11.3208 23.5491C11.3208 25.1974 10.4535 26.7851 8.90742 27.6654L-1.97816 8.54726C-7.41088 11.6406 -10.6792 17.415 -10.6792 23.5491H11.3208ZM8.94659 27.643L38.9517 10.3951L27.9878 -8.67819L-2.01734 8.56967L8.94659 27.643ZM38.8677 10.443C38.031 10.9142 37.2497 11.0566 36.6267 11.0566C36.0048 11.0566 35.2047 10.9143 34.3419 10.4245L45.2029 -8.7076C39.9384 -11.6962 33.3079 -11.6749 28.0718 -8.72601L38.8677 10.443ZM34.2835 10.3912L64.2511 27.6465L75.229 8.58115L45.2613 -8.6742L34.2835 10.3912ZM64.2536 27.6479C62.7755 26.7973 61.8839 25.2459 61.8839 23.5566H83.8839C83.8839 17.3815 80.5762 11.6583 75.2265 8.57972L64.2536 27.6479ZM61.8839 23.5566V58.0224H83.8839V23.5566H61.8839ZM61.8839 58.0224C61.8839 56.3125 62.7847 54.782 64.226 53.947L75.2541 72.9833C80.567 69.9054 83.8839 64.2031 83.8839 58.0224H61.8839ZM64.2529 53.9315L34.2853 71.1793L45.2595 90.2467L75.2272 72.9989L64.2529 53.9315ZM34.2817 71.1814C35.0323 70.749 35.8447 70.5504 36.6136 70.5504V92.5504C39.6034 92.5504 42.5917 91.7836 45.2632 90.2446L34.2817 71.1814Z" fill="#7A6FB9" mask="url(#path-1-inside-1_112_1445)"/>
<mask id="path-3-inside-2_112_1445" fill="white">
<path d="M30.0103 46.7864C30.0103 51.818 32.7602 57.817 45.8757 57.817L45.8322 57.8521C55.3312 57.8521 60.7784 54.1214 60.7784 47.617C60.7784 41.165 56.4041 39.4454 47.1902 38.2268C37.8863 37.0007 36.9409 36.3652 36.9409 34.1896C36.9409 32.3952 37.7438 30.0028 44.6392 30.0028C50.7993 30.0028 53.0652 31.3261 54.0031 35.4605C54.0856 35.8493 54.4383 36.1334 54.8435 36.1334H58.7376C58.9777 36.1334 59.2103 36.0287 59.3754 35.8568C59.5404 35.6773 59.6305 35.4381 59.608 35.1914C59.0077 28.059 54.2507 24.7395 44.6542 24.7395C36.1081 24.7395 31.0059 28.3281 31.0059 34.354C31.0059 40.8958 36.0781 42.6976 44.2865 43.505C54.1006 44.462 54.866 45.89 54.866 47.8114C54.866 51.1496 52.1798 52.5716 45.8622 52.5716C37.9313 52.5716 36.1906 50.5889 35.6054 46.6578C35.5378 46.2369 35.1777 45.9266 34.75 45.9266H30.8784C30.3974 45.9266 30.0103 46.3079 30.0103 46.7864Z"/>
</mask>
<path d="M45.8757 57.817L52.786 66.3754L77.009 46.817H45.8757V57.817ZM35.6054 46.6578L46.4854 45.038L46.4763 44.9766L46.4665 44.9154L35.6054 46.6578ZM44.2865 43.505L43.2097 54.4522L43.219 54.4531L44.2865 43.505ZM59.608 35.1914L48.6467 36.1139L48.6499 36.1524L48.6535 36.1909L59.608 35.1914ZM59.3754 35.8568L67.3108 43.4745L67.3917 43.3902L67.4708 43.3042L59.3754 35.8568ZM54.0031 35.4605L64.7633 33.1762L64.7474 33.1015L64.7305 33.027L54.0031 35.4605ZM47.1902 38.2268L48.6325 27.3217L48.6274 27.3211L47.1902 38.2268ZM45.8322 57.8521L38.9218 49.2937L14.6988 68.8521H45.8322V57.8521ZM45.8757 46.817C40.7829 46.817 39.9675 45.6314 40.4494 46.0723C40.6921 46.2943 40.8851 46.6058 40.9802 46.8668C41.0525 47.0652 41.0103 47.0713 41.0103 46.7864H19.0103C19.0103 51.2622 20.2785 57.4367 25.5999 62.3047C30.7357 67.003 37.853 68.817 45.8757 68.817V46.817ZM41.0103 46.7864C41.0103 52.5007 36.3543 56.9266 30.8784 56.9266V34.9266C24.4406 34.9266 19.0103 40.1152 19.0103 46.7864H41.0103ZM30.8784 56.9266H34.75V34.9266H30.8784V56.9266ZM34.75 56.9266C29.7256 56.9266 25.5246 53.2646 24.7442 48.4003L46.4665 44.9154C45.551 39.2092 40.6298 34.9266 34.75 34.9266V56.9266ZM24.7253 48.2776C25.203 51.4868 26.5815 56.7559 31.9316 60.2772C36.3013 63.1533 41.5575 63.5716 45.8622 63.5716V41.5716C44.2784 41.5716 43.4341 41.4676 43.0708 41.3978C42.714 41.3293 43.2166 41.3672 44.0267 41.9004C44.448 42.1777 44.8858 42.5458 45.2901 43.0072C45.692 43.4659 45.9801 43.9245 46.1779 44.3201C46.5389 45.0419 46.5479 45.4577 46.4854 45.038L24.7253 48.2776ZM45.8622 63.5716C49.3715 63.5716 53.9167 63.2609 57.8756 61.1673C60.1056 59.988 62.3034 58.1639 63.8564 55.4936C65.3891 52.8581 65.866 50.1344 65.866 47.8114H43.866C43.866 47.1575 44.0071 45.8633 44.8387 44.4334C45.6906 42.9685 46.822 42.1259 47.5907 41.7194C48.2529 41.3692 48.5746 41.3738 48.1682 41.4399C47.7948 41.5007 47.0698 41.5716 45.8622 41.5716V63.5716ZM65.866 47.8114C65.866 46.7189 65.799 44.0784 64.2834 41.257C62.6976 38.305 60.3018 36.5323 58.2187 35.4794C54.7477 33.7249 50.1812 33.0277 45.3541 32.557L43.219 54.4531C45.4634 54.672 46.9331 54.8946 47.8649 55.0861C48.8781 55.2944 48.8243 55.3816 48.2943 55.1137C47.6293 54.7776 46.0383 53.782 44.9027 51.668C43.8373 49.6847 43.866 47.9432 43.866 47.8114H65.866ZM45.3634 32.5579C43.5499 32.3795 42.2338 32.1749 41.2753 31.9487C40.2934 31.7169 40.0579 31.5462 40.2052 31.6342C40.4574 31.7846 41.0874 32.2576 41.5726 33.1428C42.0368 33.9896 42.0059 34.5548 42.0059 34.354H20.0059C20.0059 37.4242 20.6091 40.6677 22.2808 43.7175C23.9735 46.8056 26.3846 49.0061 28.9309 50.5257C33.5134 53.2605 39.0308 54.0411 43.2097 54.4522L45.3634 32.5579ZM42.0059 34.354C42.0059 34.4344 41.9786 34.838 41.7086 35.3602C41.4382 35.8834 41.1036 36.1788 40.9584 36.281C40.8485 36.3584 41.01 36.2133 41.6471 36.05C42.2823 35.8872 43.2665 35.7395 44.6542 35.7395V13.7395C39.0487 13.7395 33.1302 14.8863 28.2921 18.2931C23.0006 22.0191 20.0059 27.7891 20.0059 34.354H42.0059ZM44.6542 35.7395C46.4548 35.7395 47.6731 35.8987 48.4468 36.0799C49.2062 36.2577 49.3558 36.4136 49.2046 36.308C48.9941 36.1609 48.747 35.8921 48.599 35.6063C48.4818 35.3798 48.5915 35.4581 48.6467 36.1139L70.5692 34.2689C70.0587 28.203 67.5136 22.2623 61.8047 18.2736C56.6627 14.6811 50.4186 13.7395 44.6542 13.7395V35.7395ZM48.6535 36.1909C48.3706 33.0904 49.5215 30.3208 51.2799 28.4093L67.4708 43.3042C69.5594 41.0339 70.8904 37.7858 70.5625 34.1919L48.6535 36.1909ZM51.4399 28.2391C53.2378 26.3663 55.8252 25.1334 58.7376 25.1334V47.1334C62.1302 47.1334 65.1828 45.6912 67.3108 43.4745L51.4399 28.2391ZM58.7376 25.1334H54.8435V47.1334H58.7376V25.1334ZM54.8435 25.1334C59.5431 25.1334 63.7485 28.3959 64.7633 33.1762L43.2429 37.7449C44.4228 43.3027 49.3335 47.1334 54.8435 47.1334V25.1334ZM64.7305 33.027C63.874 29.2512 61.8506 24.6117 56.8202 21.6786C52.675 19.2617 48.0108 19.0028 44.6392 19.0028V41.0028C45.8414 41.0028 46.4545 41.0718 46.6987 41.114C46.9287 41.1537 46.4698 41.1102 45.7388 40.6839C44.8961 40.1926 44.1695 39.4731 43.6806 38.6903C43.2647 38.0244 43.213 37.618 43.2757 37.8941L64.7305 33.027ZM44.6392 19.0028C40.3775 19.0028 35.4396 19.6535 31.4718 22.7242C26.6684 26.4417 25.9409 31.4814 25.9409 34.1896H47.9409C47.9409 34.5171 47.9129 35.4979 47.4431 36.7214C46.9223 38.0779 46.0357 39.2719 44.9367 40.1224C43.9405 40.8934 43.1544 41.0865 43.1093 41.0973C43.0732 41.1061 43.5037 41.0028 44.6392 41.0028V19.0028ZM25.9409 34.1896C25.9409 35.3097 25.998 38.2607 27.8362 41.2826C29.7406 44.4132 32.4936 45.945 34.3395 46.7154C37.3696 47.9802 41.5495 48.5785 45.753 49.1325L48.6274 27.3211C46.3563 27.0218 44.8024 26.7846 43.7212 26.5788C42.5324 26.3524 42.4409 26.2574 42.8137 26.413C43.2602 26.5994 45.1954 27.4878 46.6318 29.849C48.0021 32.1016 47.9409 34.1572 47.9409 34.1896H25.9409ZM45.7479 49.1318C47.8884 49.4149 49.3991 49.6844 50.4918 49.9621C51.6132 50.247 51.8422 50.4314 51.6534 50.3146C51.3212 50.1091 50.6378 49.5509 50.1496 48.5925C49.7107 47.731 49.7784 47.2232 49.7784 47.617H71.7785C71.7785 44.7848 71.2994 41.6425 69.7524 38.6059C68.156 35.4724 65.8032 33.1983 63.2257 31.6041C58.7242 28.82 53.0809 27.9101 48.6325 27.3217L45.7479 49.1318ZM49.7784 47.617C49.7784 47.6751 49.7766 47.3513 50.0246 46.8757C50.2754 46.3944 50.5786 46.1483 50.6522 46.0979C50.683 46.0768 50.3956 46.2786 49.5628 46.4822C48.7333 46.685 47.5108 46.8521 45.8322 46.8521V68.8521C51.7814 68.8521 58.0123 67.7218 63.0827 64.2495C68.6897 60.4097 71.7785 54.4211 71.7785 47.617H49.7784ZM52.7425 66.4105L52.786 66.3754L38.9653 49.2585L38.9218 49.2937L52.7425 66.4105Z" fill="#7A6FB9" mask="url(#path-3-inside-2_112_1445)"/>
</svg>
