<svg width="285" height="232" viewBox="0 0 285 232" fill="none" xmlns="http://www.w3.org/2000/svg">
<path d="M249.527 2.75439H41.2449C37.4014 2.75439 34.2856 5.86208 34.2856 9.6956V138.604C34.2856 142.437 37.4014 145.545 41.2449 145.545H249.527C253.37 145.545 256.486 142.437 256.486 138.604V9.6956C256.486 5.86208 253.37 2.75439 249.527 2.75439Z" fill="#181822" stroke="#564F7C" stroke-width="2" stroke-miterlimit="10"/>
<path d="M275.638 229.245H9.36184C8.27752 229.247 7.20954 228.981 6.25298 228.471C5.29643 227.962 4.48078 227.225 3.87836 226.326C3.27594 225.427 2.90565 224.393 2.79994 223.317C2.69422 222.24 2.85657 221.155 3.27257 220.156L32.601 149.601C33.1009 148.394 33.9495 147.362 35.0387 146.638C36.128 145.913 37.4086 145.528 38.718 145.531H251.784C253.158 145.537 254.495 145.971 255.61 146.772C256.724 147.573 257.559 148.702 257.998 150L281.879 220.59C282.211 221.577 282.302 222.629 282.146 223.659C281.99 224.689 281.591 225.666 280.981 226.512C280.371 227.357 279.569 228.046 278.64 228.522C277.711 228.997 276.682 229.245 275.638 229.245Z" stroke="#564F7C" stroke-width="2" stroke-miterlimit="10"/>
<path opacity="0.1" d="M260.85 219.749H25.6971C21.5546 219.749 18.7308 216.065 20.3188 212.719L46.2229 158.181C46.7348 157.208 47.5103 156.399 48.4613 155.845C49.4122 155.291 50.5004 155.015 51.6012 155.048H239.758C240.918 155.006 242.064 155.312 243.048 155.925C244.033 156.539 244.81 157.432 245.281 158.491L266.373 213.022C267.643 216.334 264.833 219.749 260.85 219.749Z" fill="#564F7C"/>
<path opacity="0.05" d="M36.48 139.615L129.766 5.73817L77.5994 5.0374L37.4768 65.7696L36.48 139.615Z" fill="white"/>
</svg>
