<svg width="84" height="83" viewBox="0 0 84 83" fill="none" xmlns="http://www.w3.org/2000/svg">
<g clip-path="url(#clip0_112_1424)">
<path d="M22.7341 9.24663V9.17685L22.7258 9.11772C22.7257 9.11749 22.7257 9.11723 22.7257 9.11695C22.7252 9.11161 22.724 9.09912 22.7228 9.07994C22.7202 9.03954 22.7175 8.96986 22.7198 8.87511C22.7245 8.6854 22.7496 8.39739 22.8362 8.04341C23.0076 7.34324 23.4256 6.35956 24.4523 5.34781C26.5173 3.31288 31.1996 1.02441 41.745 1.02441C52.7171 1.02441 57.5015 3.75158 59.5881 6.19243C60.6358 7.41801 61.0558 8.6279 61.2193 9.51721C61.3015 9.964 61.319 10.3312 61.317 10.5787C61.316 10.7023 61.3102 10.7953 61.3054 10.8526C61.303 10.8813 61.3008 10.9009 61.2996 10.9108L61.2989 10.9165L61.2988 10.9169L61.2987 10.9184L61.2884 10.9854V11.0608H62.2884L61.2884 11.0609V11.0612V11.0616V11.0622V11.0629V11.0638V11.0649V11.0661V11.0676V11.0691V11.0709V11.0728V11.0748V11.077V11.0794V11.082V11.0847V11.0876V11.0906V11.0939V11.0972V11.1008V11.1045V11.1083V11.1123V11.1165V11.1209V11.1254V11.1301V11.1349V11.1399V11.145V11.1504V11.1558V11.1615V11.1673V11.1732V11.1793V11.1856V11.1921V11.1987V11.2054V11.2123V11.2194V11.2267V11.234V11.2416V11.2493V11.2572V11.2652V11.2734V11.2818V11.2903V11.2989V11.3078V11.3167V11.3259V11.3352V11.3446V11.3542V11.364V11.3739V11.384V11.3942V11.4046V11.4152V11.4259V11.4367V11.4477V11.4589V11.4702V11.4817V11.4933V11.5051V11.5171V11.5292V11.5414V11.5538V11.5664V11.5791V11.592V11.605V11.6181V11.6315V11.645V11.6586V11.6724V11.6863V11.7004V11.7146V11.729V11.7436V11.7583V11.7731V11.7881V11.8033V11.8186V11.8341V11.8497V11.8654V11.8813V11.8974V11.9136V11.9299V11.9465V11.9631V11.9799V11.9969V12.014V12.0312V12.0486V12.0662V12.0839V12.1017V12.1197V12.1379V12.1562V12.1746V12.1932V12.212V12.2308V12.2499V12.2691V12.2884V12.3079V12.3275V12.3473V12.3672V12.3872V12.4074V12.4278V12.4483V12.4689V12.4897V12.5106V12.5317V12.553V12.5743V12.5958V12.6175V12.6393V12.6612V12.6833V12.7056V12.7279V12.7505V12.7731V12.7959V12.8189V12.842V12.8652V12.8886V12.9121V12.9358V12.9596V12.9835V13.0076V13.0319V13.0562V13.0808V13.1054V13.1302V13.1551V13.1802V13.2054V13.2308V13.2563V13.2819V13.3077V13.3336V13.3597V13.3859V13.4122V13.4387V13.4653V13.4921V13.519V13.546V13.5732V13.6005V13.6279V13.6555V13.6833V13.7111V13.7391V13.7673V13.7955V13.8239V13.8525V13.8812V13.91V13.9389V13.968V13.9973V14.0266V14.0561V14.0858V14.1155V14.1455V14.1755V14.2057V14.236V14.2664V14.297V14.3277V14.3586V14.3896V14.4207V14.4519V14.4833V14.5148V14.5465V14.5783V14.6102V14.6423V14.6744V14.7068V14.7392V14.7718V14.8045V14.8373V14.8703V14.9034V14.9367V14.97V15.0035V15.0372V15.0709V15.1048V15.1389V15.173V15.2073V15.2417V15.2763V15.3109V15.3457V15.3807V15.4157V15.4509V15.4863V15.5217V15.5573V15.593V15.6288V15.6648V15.7009V15.7371V15.7735V15.8099V15.8465V15.8833V15.9201V15.9571V15.9942V16.0314V16.0688V16.1063V16.1439V16.1817V16.2195V16.2575V16.2956V16.3339V16.3723V16.4108V16.4494V16.4881V16.527V16.566V16.6051V16.6443V16.6837V16.7232V16.7628V16.8025V16.8424V16.8824V16.9225V16.9627V17.0031V17.0435V17.0841V17.1249V17.1657V17.2067V17.2478V17.289V17.3303V17.3717V17.4133V17.455V17.4968V17.5387V17.5808V17.623V17.6653V17.7077V17.7502V17.7929V17.8356V17.8785V17.9216V17.9647V18.0079V18.0513V18.0948V18.1384V18.1821V18.226V18.2699V18.314V18.3582V18.4025V18.447V18.4915V18.5362V18.581V18.6259V18.6709V18.716V18.7613V18.8066V18.8521V18.8977V18.9434V18.9892V19.0352V19.0813V19.1274V19.1737V19.2201V19.2666V19.3133V19.36V19.4069V19.4539V19.501V19.5482V19.5955V19.6429V19.6905V19.7381V19.7859V19.8338V19.8818V19.9299V19.9781V20.0264V20.0749V20.1234V20.1721V20.2209V20.2698V20.3188V20.3679V20.4171V20.4664V20.5159V20.5654V20.6151V20.6649V20.7148V20.7648V20.8149V20.8651V20.9154V20.9658V21.0164V21.067V21.1178V21.1687V21.2197V21.2707V21.3219V21.3732V21.4246V21.4762V21.5278V21.5795V21.6314V21.6833V21.7354V21.7875V21.8398V21.8922V21.9446V21.9972V22.0499V22.1027V22.1556V22.2086V22.2617V22.315V22.3683V22.4217V22.4752V22.5289V22.5826V22.6365V22.6904V22.7445V22.7986V22.8529V22.9073V22.9617V23.0163V23.071V23.1258V23.1806V23.2356V23.2907V23.3459V23.4012V23.4566V23.5121V23.5677V23.6234V23.6792V23.7351V23.7911V23.8472V23.9034V23.9597V24.0161V24.0726V24.1292V24.1859V24.2427V24.2996V24.3566V24.4137V24.4709V24.5282V24.5856V24.6431V24.7007V24.7583V24.8161V24.874V24.932V24.9901V25.0483V25.1066V25.1649V25.2234V25.282V25.3406V25.3994V25.4583V25.5172V25.5763V25.6354V25.6947V25.754V25.8134V25.873V25.9326V25.9923V26.0521V26.112V26.1721V26.2321V26.2923V26.3526V26.413V26.4735V26.5341V26.5947V26.6555V26.7163V26.7773V26.8383V26.8994V26.9607V27.022V27.0834V27.1449V27.2065V27.2681V27.3299V27.3918V27.4537V27.5158V27.5779V27.6402V27.7025V27.7649V27.8274V27.89V27.9527V28.0154V28.0783V28.1412V28.2043V28.2674V28.3306V28.3939V28.4573V28.5208V28.5844V28.648V28.7118V28.7756V28.8396V28.9036V28.9677V29.0319V29.0961V29.1605V29.2249V29.2895V29.3541C61.2884 31.9328 60.6295 33.7894 59.6944 35.1424C58.7541 36.5029 57.4909 37.4167 56.1921 38.0316C54.8898 38.6481 53.5745 38.9527 52.5756 39.1014C52.0786 39.1754 51.6666 39.2099 51.3825 39.2259C51.2407 39.2338 51.1312 39.2372 51.0597 39.2385C51.0239 39.2392 50.9977 39.2394 50.9816 39.2394L50.9653 39.2394L50.9648 39.2394V39.2393H50.9515V40.2393L50.9514 39.2393H50.9511H50.9507H50.95H50.9492H50.9482H50.947H50.9456H50.944H50.9423H50.9404H50.9382H50.936H50.9335H50.9308H50.928H50.925H50.9218H50.9184H50.9148H50.9111H50.9071H50.903H50.8987H50.8943H50.8896H50.8848H50.8798H50.8746H50.8692H50.8637H50.858H50.8521H50.846H50.8397H50.8333H50.8267H50.8199H50.8129H50.8057H50.7984H50.7909H50.7832H50.7754H50.7673H50.7591H50.7507H50.7422H50.7334H50.7245H50.7154H50.7061H50.6967H50.6871H50.6773H50.6673H50.6572H50.6469H50.6364H50.6257H50.6149H50.6039H50.5927H50.5813H50.5698H50.5581H50.5462H50.5341H50.5219H50.5095H50.497H50.4842H50.4713H50.4582H50.445H50.4316H50.418H50.4042H50.3903H50.3762H50.3619H50.3474H50.3328H50.318H50.3031H50.288H50.2727H50.2572H50.2416H50.2258H50.2098H50.1937H50.1774H50.1609H50.1442H50.1274H50.1105H50.0933H50.076H50.0585H50.0409H50.0231H50.0051H49.987H49.9687H49.9502H49.9316H49.9128H49.8938H49.8747H49.8554H49.8359H49.8163H49.7965H49.7765H49.7564H49.7361H49.7157H49.6951H49.6743H49.6534H49.6323H49.611H49.5896H49.568H49.5462H49.5243H49.5023H49.48H49.4576H49.4351H49.4124H49.3895H49.3665H49.3433H49.3199H49.2964H49.2727H49.2489H49.2249H49.2007H49.1764H49.1519H49.1273H49.1025H49.0775H49.0524H49.0272H49.0017H48.9762H48.9504H48.9245H48.8985H48.8723H48.8459H48.8194H48.7927H48.7658H48.7388H48.7117H48.6844H48.6569H48.6293H48.6015H48.5736H48.5455H48.5173H48.4889H48.4604H48.4317H48.4028H48.3738H48.3446H48.3153H48.2859H48.2562H48.2265H48.1965H48.1665H48.1362H48.1058H48.0753H48.0446H48.0138H47.9828H47.9516H47.9204H47.8889H47.8573H47.8256H47.7937H47.7616H47.7294H47.6971H47.6646H47.632H47.5992H47.5662H47.5331H47.4999H47.4665H47.433H47.3993H47.3654H47.3315H47.2973H47.2631H47.2286H47.1941H47.1593H47.1245H47.0895H47.0543H47.019H46.9836H46.948H46.9122H46.8763H46.8403H46.8041H46.7678H46.7313H46.6947H46.658H46.6211H46.584H46.5468H46.5095H46.472H46.4344H46.3967H46.3588H46.3207H46.2825H46.2442H46.2057H46.1671H46.1283H46.0894H46.0504H46.0112H45.9719H45.9324H45.8928H45.8531H45.8132H45.7732H45.733H45.6927H45.6523H45.6117H45.5709H45.5301H45.4891H45.4479H45.4067H45.3652H45.3237H45.282H45.2401H45.1982H45.1561H45.1138H45.0714H45.0289H44.9863H44.9435H44.9005H44.8575H44.8143H44.7709H44.7275H44.6838H44.6401H44.5962H44.5522H44.5081H44.4638H44.4193H44.3748H44.3301H44.2853H44.2403H44.1952H44.15H44.1047H44.0592H44.0135H43.9678H43.9219H43.8759H43.8297H43.7835H43.737H43.6905H43.6438H43.597H43.5501H43.503H43.4558H43.4085H43.361H43.3134H43.2657H43.2178H43.1698H43.1217H43.0735H43.0251H42.9766H42.928H42.8792H42.8304H42.7813H42.7322H42.6829H42.6335H42.584H42.5344H42.4846H42.4347H42.3846H42.3345H42.2842H42.2338H42.1833H42.1326H42.0818H42.0309H41.9799H41.9287H41.8774H41.826H41.7744H41.7228H41.671H41.6191H41.5671H41.5149H41.4626H41.4102H41.3577H41.305H41.2523H41.1994H41.1463H41.0932H41.0399H40.9865H40.933H40.8794H40.8257H40.7718H40.7178H40.6637H40.6095H40.5551H40.5006H40.446H40.3913H40.3365H40.2815H40.2265H40.1713H40.116H40.0605H40.005H39.9493H39.8935H39.8376H39.7816H39.7255H39.6692H39.6128H39.5563H39.4997H39.443H39.3862H39.3292H39.2721H39.215H39.1576H39.1002H39.0427H38.985H38.9273H38.8694H38.8114H38.7533H38.6951H38.6367H38.5783H38.5197H38.461H38.4022H38.3433H38.2843H38.2251H38.1659H38.1065H38.0471H37.9875H37.9278H37.868H37.808H37.748H37.6879H37.6276H37.5672H37.5068H37.4462H37.3855H37.3247H37.2637H37.2027H37.1416H37.0803H37.019H36.9575H36.8959H36.8342H36.7724H36.7105H36.6485H36.5864H36.5242H36.4618H36.3994H36.3369H36.2742H36.2114H36.1486H36.0856H36.0225H35.9593H35.896H35.8326H35.7691H35.7055H35.6418H35.5779H35.514H35.45H35.3858H35.3216H35.2572H35.1928H35.1282H35.0636H34.9988H34.9339H34.869H34.8039H34.7387H34.6734H34.608H34.5426H34.477H34.4113H34.3455H34.2796H34.2136H34.1475H34.0813H34.015H33.9486H33.8821H33.8155H33.7488H33.682H33.6151H33.5481H33.481H33.4138H33.3465H33.2791H33.2116H33.144H33.0763H33.0085H32.9407H32.8727H32.8046H32.7364H32.6681H32.5998H32.5313H32.4627H32.394H32.3253H32.2564H32.1875H32.1184H32.0493H31.98H31.9107H31.8412H31.7717H31.7021H31.6324H31.5626H31.4927H31.4227H31.3526H31.2824H31.2121H31.1417H31.0712H31.0007H30.93H30.8593H30.7884C27.5933 39.2393 25.1495 40.0256 23.2984 41.2622C21.4522 42.4954 20.2589 44.1339 19.4907 45.7423C18.7248 47.3459 18.3727 48.9363 18.21 50.1164C18.1283 50.7089 18.0935 51.2049 18.0792 51.5566C18.072 51.7327 18.0699 51.8731 18.0697 51.9721C18.0696 52.0216 18.07 52.0607 18.0705 52.0889L18.0711 52.1197V61.0098H11.995H11.9634L11.9373 61.0115L11.9367 61.0115L11.9365 61.0115L11.9348 61.0117L11.9263 61.0119C11.9136 61.0124 11.8904 61.013 11.8572 61.0131C11.7909 61.0133 11.6853 61.0116 11.5462 61.0026C11.2675 60.9846 10.8565 60.9376 10.3574 60.8203C9.36076 60.5858 8.01574 60.0717 6.66178 58.9451C3.9809 56.7142 1.04932 51.8902 1.04932 41.3732C1.04932 30.9365 4.36948 26.3534 7.41662 24.307C8.96848 23.2648 10.5218 22.8288 11.689 22.6539C12.2719 22.5666 12.7541 22.5451 13.0845 22.5448C13.2494 22.5447 13.3758 22.5498 13.4572 22.5546C13.4979 22.557 13.5272 22.5593 13.5444 22.5608L13.5599 22.5622L13.5609 22.5623L13.5609 22.5623L13.5621 22.5624L13.6135 22.5681H13.6689H42.1254H43.1254V21.5681V18.7712V17.7712H42.1254H22.7341V9.24663ZM35.1363 10.0026C35.1363 7.4923 33.0981 5.37414 30.4841 5.37414C27.8701 5.37414 25.8319 7.4923 25.8319 10.0026C25.8319 12.5264 27.9597 14.631 30.4841 14.631C33.0085 14.631 35.1363 12.5264 35.1363 10.0026Z" stroke="#564F7C" stroke-width="2"/>
<path d="M61.2869 73.871V73.8012V65.2766H41.8956H40.8956V64.2766V61.4041V60.4041H41.8956H70.3521H70.4075L70.4589 60.4099L70.46 60.41L70.4611 60.4101L70.4624 60.4102L70.4765 60.4115C70.4866 60.4123 70.5008 60.4135 70.5191 60.4148C70.532 60.4157 70.5468 60.4166 70.5636 60.4176C70.6449 60.4224 70.7713 60.4275 70.9361 60.4273C71.2664 60.4269 71.7484 60.4051 72.3311 60.3173C73.4978 60.1414 75.051 59.7034 76.6028 58.6569C79.6506 56.6016 82.9717 51.9993 82.9717 41.5235C82.9717 31.0065 80.0401 26.1825 77.3592 23.9516C76.0053 22.825 74.6603 22.3108 73.6636 22.0764C73.1645 21.959 72.7535 21.9121 72.4748 21.8941C72.3357 21.8851 72.2301 21.8833 72.1638 21.8836C72.1306 21.8837 72.1074 21.8843 72.0947 21.8847L72.0863 21.885L72.0845 21.8851L72.0844 21.8851L72.0837 21.8852L72.0577 21.8868H72.026H65.95V30.777L65.9506 30.8078C65.951 30.8359 65.9514 30.8751 65.9513 30.9246C65.9511 31.0236 65.949 31.164 65.9418 31.3401C65.9275 31.6918 65.8927 32.1877 65.811 32.7803C65.6483 33.9604 65.2962 35.5508 64.5303 37.1544C63.7621 38.7628 62.5688 40.4013 60.7226 41.6345C58.8715 42.8711 56.4277 43.6573 53.2326 43.6573H53.1617H53.091H53.0203H52.9498H52.8793H52.8089H52.7386H52.6684H52.5984H52.5283H52.4584H52.3886H52.3189H52.2493H52.1798H52.1103H52.041H51.9717H51.9026H51.8335H51.7646H51.6957H51.627H51.5583H51.4897H51.4213H51.3529H51.2846H51.2164H51.1483H51.0803H51.0125H50.9447H50.877H50.8094H50.7419H50.6745H50.6072H50.54H50.4729H50.4059H50.339H50.2722H50.2055H50.1389H50.0724H50.006H49.9397H49.8735H49.8074H49.7414H49.6755H49.6097H49.544H49.4784H49.413H49.3476H49.2823H49.2171H49.152H49.0871H49.0222H48.9574H48.8928H48.8282H48.7638H48.6994H48.6352H48.571H48.507H48.4431H48.3792H48.3155H48.2519H48.1884H48.125H48.0617H47.9985H47.9354H47.8724H47.8096H47.7468H47.6842H47.6216H47.5592H47.4968H47.4346H47.3725H47.3105H47.2486H47.1868H47.1251H47.0635H47.002H46.9407H46.8794H46.8183H46.7573H46.6963H46.6355H46.5748H46.5142H46.4538H46.3934H46.3331H46.273H46.213H46.153H46.0932H46.0335H45.9739H45.9145H45.8551H45.7959H45.7367H45.6777H45.6188H45.56H45.5013H45.4427H45.3843H45.326H45.2677H45.2096H45.1516H45.0937H45.036H44.9783H44.9208H44.8634H44.8061H44.7489H44.6918H44.6348H44.578H44.5213H44.4647H44.4082H44.3518H44.2955H44.2394H44.1834H44.1275H44.0717H44.016H43.9605H43.9051H43.8497H43.7945H43.7395H43.6845H43.6297H43.575H43.5204H43.4659H43.4116H43.3573H43.3032H43.2492H43.1953H43.1416H43.088H43.0345H42.9811H42.9278H42.8747H42.8216H42.7688H42.716H42.6633H42.6108H42.5584H42.5061H42.454H42.4019H42.35H42.2982H42.2466H42.195H42.1436H42.0923H42.0412H41.9901H41.9392H41.8884H41.8377H41.7872H41.7368H41.6865H41.6364H41.5863H41.5364H41.4866H41.437H41.3875H41.3381H41.2888H41.2397H41.1907H41.1418H41.093H41.0444H40.9959H40.9475H40.8993H40.8512H40.8032H40.7553H40.7076H40.66H40.6125H40.5652H40.518H40.4709H40.424H40.3772H40.3305H40.284H40.2376H40.1913H40.1451H40.0991H40.0532H40.0075H39.9618H39.9163H39.871H39.8258H39.7807H39.7357H39.6909H39.6462H39.6017H39.5572H39.513H39.4688H39.4248H39.3809H39.3372H39.2936H39.2501H39.2067H39.1635H39.1205H39.0775H39.0347H38.9921H38.9496H38.9072H38.8649H38.8228H38.7809H38.739H38.6973H38.6558H38.6144H38.5731H38.5319H38.4909H38.4501H38.4093H38.3688H38.3283H38.288H38.2478H38.2078H38.1679H38.1282H38.0886H38.0491H38.0098H37.9706H37.9316H37.8927H37.8539H37.8153H37.7768H37.7385H37.7003H37.6622H37.6243H37.5866H37.549H37.5115H37.4742H37.437H37.3999H37.363H37.3263H37.2897H37.2532H37.2169H37.1807H37.1447H37.1088H37.073H37.0374H37.002H36.9667H36.9315H36.8965H36.8617H36.8269H36.7924H36.7579H36.7237H36.6895H36.6556H36.6217H36.588H36.5545H36.5211H36.4879H36.4548H36.4218H36.3891H36.3564H36.3239H36.2916H36.2594H36.2273H36.1954H36.1637H36.1321H36.1007H36.0694H36.0382H36.0072H35.9764H35.9457H35.9152H35.8848H35.8546H35.8245H35.7945H35.7648H35.7352H35.7057H35.6764H35.6472H35.6182H35.5894H35.5607H35.5321H35.5037H35.4755H35.4474H35.4195H35.3917H35.3641H35.3366H35.3093H35.2822H35.2552H35.2283H35.2016H35.1751H35.1488H35.1225H35.0965H35.0706H35.0448H35.0193H34.9938H34.9686H34.9435H34.9185H34.8937H34.8691H34.8446H34.8203H34.7961H34.7721H34.7483H34.7246H34.7011H34.6777H34.6545H34.6315H34.6086H34.5859H34.5634H34.541H34.5187H34.4967H34.4748H34.453H34.4314H34.41H34.3887H34.3676H34.3467H34.3259H34.3053H34.2849H34.2646H34.2445H34.2245H34.2047H34.1851H34.1656H34.1463H34.1272H34.1082H34.0894H34.0708H34.0523H34.034H34.0159H33.9979H33.9801H33.9625H33.945H33.9277H33.9105H33.8936H33.8768H33.8601H33.8436H33.8273H33.8112H33.7952H33.7794H33.7638H33.7483H33.7331H33.7179H33.703H33.6882H33.6736H33.6591H33.6448H33.6307H33.6168H33.603H33.5894H33.576H33.5628H33.5497H33.5368H33.524H33.5115H33.4991H33.4869H33.4748H33.4629H33.4512H33.4397H33.4283H33.4172H33.4061H33.3953H33.3846H33.3742H33.3638H33.3537H33.3437H33.3339H33.3243H33.3149H33.3056H33.2965H33.2876H33.2789H33.2703H33.2619H33.2537H33.2457H33.2378H33.2301H33.2226H33.2153H33.2081H33.2011H33.1944H33.1877H33.1813H33.175H33.169H33.163H33.1573H33.1518H33.1464H33.1412H33.1362H33.1314H33.1267H33.1223H33.118H33.1139H33.1099H33.1062H33.1026H33.0992H33.096H33.093H33.0902H33.0875H33.0851H33.0828H33.0806H33.0787H33.077H33.0754H33.074H33.0728H33.0718H33.071H33.0703H33.0699H33.0696L33.0695 42.6573V43.6573H33.0562L33.0562 43.6573L33.0557 43.6572L33.0394 43.6572C33.0233 43.6573 32.9971 43.6575 32.9613 43.6581C32.8898 43.6595 32.7803 43.6628 32.6385 43.6708C32.3544 43.6868 31.9424 43.7212 31.4454 43.7952C30.4465 43.944 29.1312 44.2486 27.8289 44.8651C26.5302 45.48 25.2669 46.3938 24.3266 47.7543C23.3915 49.1073 22.7326 50.9639 22.7326 53.5426V53.6072V53.6717V53.7362V53.8006V53.8648V53.929V53.9931V54.0571V54.1211V54.1849V54.2486V54.3123V54.3759V54.4394V54.5028V54.5661V54.6293V54.6924V54.7555V54.8184V54.8813V54.944V55.0067V55.0693V55.1318V55.1942V55.2565V55.3188V55.3809V55.4429V55.5049V55.5668V55.6285V55.6902V55.7518V55.8133V55.8747V55.936V55.9972V56.0584V56.1194V56.1804V56.2412V56.302V56.3626V56.4232V56.4837V56.5441V56.6043V56.6645V56.7246V56.7846V56.8446V56.9044V56.9641V57.0237V57.0832V57.1427V57.202V57.2613V57.3204V57.3795V57.4384V57.4973V57.556V57.6147V57.6733V57.7318V57.7901V57.8484V57.9066V57.9647V58.0227V58.0806V58.1383V58.196V58.2536V58.3111V58.3685V58.4258V58.483V58.5401V58.5971V58.654V58.7108V58.7675V58.8241V58.8806V58.937V58.9933V59.0495V59.1056V59.1616V59.2175V59.2733V59.329V59.3846V59.4401V59.4955V59.5508V59.606V59.6611V59.716V59.7709V59.8257V59.8804V59.935V59.9894V60.0438V60.098V60.1522V60.2063V60.2602V60.3141V60.3678V60.4214V60.475V60.5284V60.5817V60.6349V60.6881V60.7411V60.794V60.8468V60.8995V60.952V61.0045V61.0569V61.1092V61.1613V61.2134V61.2653V61.3172V61.3689V61.4205V61.472V61.5234V61.5748V61.6259V61.677V61.728V61.7789V61.8296V61.8803V61.9308V61.9813V62.0316V62.0818V62.1319V62.1819V62.2318V62.2816V62.3312V62.3808V62.4302V62.4796V62.5288V62.5779V62.6269V62.6758V62.7246V62.7733V62.8218V62.8703V62.9186V62.9668V63.0149V63.0629V63.1108V63.1586V63.2062V63.2538V63.3012V63.3485V63.3957V63.4428V63.4898V63.5367V63.5834V63.63V63.6766V63.723V63.7693V63.8154V63.8615V63.9074V63.9533V63.999V64.0446V64.0901V64.1354V64.1807V64.2258V64.2708V64.3157V64.3605V64.4052V64.4497V64.4942V64.5385V64.5827V64.6268V64.6707V64.7146V64.7583V64.8019V64.8454V64.8887V64.932V64.9751V65.0181V65.061V65.1038V65.1465V65.189V65.2314V65.2737V65.3159V65.3579V65.3999V65.4417V65.4834V65.5249V65.5664V65.6077V65.6489V65.69V65.731V65.7718V65.8125V65.8531V65.8936V65.934V65.9742V66.0143V66.0543V66.0941V66.1339V66.1735V66.213V66.2523V66.2916V66.3307V66.3697V66.4086V66.4473V66.4859V66.5244V66.5628V66.601V66.6392V66.6772V66.715V66.7528V66.7904V66.8279V66.8652V66.9025V66.9396V66.9766V67.0134V67.0502V67.0868V67.1232V67.1596V67.1958V67.2319V67.2679V67.3037V67.3394V67.375V67.4104V67.4458V67.4809V67.516V67.5509V67.5857V67.6204V67.655V67.6894V67.7237V67.7578V67.7919V67.8257V67.8595V67.8931V67.9266V67.96V67.9933V68.0264V68.0593V68.0922V68.1249V68.1575V68.1899V68.2222V68.2544V68.2865V68.3184V68.3502V68.3818V68.4134V68.4447V68.476V68.5071V68.5381V68.569V68.5997V68.6302V68.6607V68.691V68.7212V68.7512V68.7811V68.8109V68.8405V68.87V68.8994V68.9286V68.9577V68.9867V69.0155V69.0442V69.0727V69.1012V69.1294V69.1576V69.1856V69.2134V69.2411V69.2687V69.2962V69.3235V69.3507V69.3777V69.4046V69.4314V69.458V69.4844V69.5108V69.537V69.563V69.589V69.6147V69.6404V69.6659V69.6912V69.7165V69.7415V69.7665V69.7913V69.8159V69.8405V69.8648V69.8891V69.9131V69.9371V69.9609V69.9846V70.0081V70.0315V70.0547V70.0778V70.1007V70.1236V70.1462V70.1687V70.1911V70.2134V70.2354V70.2574V70.2792V70.3009V70.3224V70.3437V70.365V70.386V70.407V70.4278V70.4484V70.4689V70.4893V70.5095V70.5295V70.5494V70.5692V70.5888V70.6083V70.6276V70.6468V70.6658V70.6847V70.7035V70.722V70.7405V70.7588V70.7769V70.7949V70.8128V70.8305V70.848V70.8654V70.8827V70.8998V70.9168V70.9336V70.9502V70.9667V70.9831V70.9993V71.0154V71.0313V71.047V71.0626V71.0781V71.0934V71.1085V71.1236V71.1384V71.1531V71.1676V71.182V71.1963V71.2104V71.2243V71.2381V71.2517V71.2652V71.2785V71.2917V71.3047V71.3176V71.3303V71.3429V71.3553V71.3675V71.3796V71.3916V71.4034V71.415V71.4265V71.4378V71.449V71.46V71.4708V71.4815V71.4921V71.5025V71.5127V71.5228V71.5327V71.5425V71.5521V71.5615V71.5708V71.58V71.5889V71.5978V71.6064V71.6149V71.6233V71.6315V71.6395V71.6474V71.6551V71.6626V71.67V71.6773V71.6843V71.6913V71.698V71.7046V71.7111V71.7173V71.7235V71.7294V71.7352V71.7409V71.7463V71.7517V71.7568V71.7618V71.7666V71.7713V71.7758V71.7802V71.7843V71.7884V71.7922V71.7959V71.7995V71.8028V71.806V71.8091V71.812V71.8147V71.8172V71.8196V71.8219V71.8239V71.8258V71.8276V71.8291V71.8305V71.8318V71.8329V71.8338V71.8345V71.8351V71.8355V71.8358L21.7326 71.8358H22.7326V71.9102L22.7226 71.9766L22.7224 71.978L22.7224 71.9783L22.7216 71.9847C22.7204 71.9951 22.7182 72.0153 22.7157 72.0446C22.7108 72.1033 22.705 72.1983 22.704 72.3243C22.702 72.5768 22.7196 72.9507 22.8021 73.4055C22.9664 74.3111 23.3879 75.5407 24.4372 76.785C26.5249 79.2605 31.3077 82.0235 42.276 82.0235C52.8214 82.0235 57.5037 79.735 59.5687 77.7001C60.5954 76.6883 61.0134 75.7046 61.1848 75.0045C61.2715 74.6505 61.2965 74.3625 61.3012 74.1728C61.3035 74.078 61.3008 74.0083 61.2982 73.9679C61.297 73.9488 61.2959 73.9363 61.2953 73.931C61.2953 73.9307 61.2953 73.9304 61.2952 73.9301M61.2869 73.871L61.2951 73.9289C61.2949 73.9273 61.295 73.9277 61.2952 73.9301M61.2869 73.871L61.2952 73.9301M61.2869 73.871L61.2952 73.9301M48.8847 72.9697C48.8847 75.48 50.9229 77.5981 53.5369 77.5981C56.1374 77.5981 58.1891 75.5691 58.1891 72.9697C58.1891 70.4459 56.0613 68.3413 53.5369 68.3413C51.0125 68.3413 48.8847 70.4459 48.8847 72.9697Z" stroke="#7A6FB9" stroke-width="2"/>
</g>
<defs>
<clipPath id="clip0_112_1424">
<rect width="84" height="83" fill="white"/>
</clipPath>
</defs>
</svg>
