<svg width="57" height="50" viewBox="0 0 57 50" fill="none" xmlns="http://www.w3.org/2000/svg">
<g clip-path="url(#clip0_116_1035)">
<path d="M46.8656 16.206C46.2589 16.0007 45.6473 15.8107 45.0307 15.6359C45.1329 15.2264 45.2274 14.8151 45.3142 14.402C46.7032 7.75446 45.795 2.39924 42.6937 0.636367C39.7203 -1.05445 34.8572 0.708496 29.9457 4.92239C29.4617 5.33858 28.9887 5.76661 28.5265 6.20649C28.2171 5.91408 27.9023 5.62739 27.582 5.34642C22.4346 0.840365 17.2751 -1.05829 14.1771 0.70979C11.2065 2.40525 10.3266 7.4399 11.577 13.7397C11.7015 14.3636 11.8419 14.9841 11.9984 15.6011C11.2683 15.8055 10.5632 16.0234 9.88868 16.2552C3.85404 18.3294 0 21.5806 0 24.9526C0 28.4355 4.13708 31.9289 10.4229 34.0469C10.9326 34.2178 11.4464 34.3761 11.9643 34.5219C11.7961 35.1865 11.6468 35.8553 11.5165 36.5283C10.3243 42.7186 11.2554 47.6339 14.2182 49.3189C17.2784 51.0586 22.4144 49.2704 27.4158 44.9603C27.8111 44.6196 28.2075 44.2593 28.6052 43.8794C29.1056 44.3554 29.6192 44.8174 30.146 45.2654C34.9904 49.3754 39.7748 51.035 42.7351 49.3455C45.7925 47.6006 46.7859 42.3202 45.4959 35.8957C45.3975 35.405 45.2836 34.9043 45.1541 34.3935C45.5148 34.2886 45.8682 34.1798 46.2141 34.0672C52.7486 31.9329 57 28.4821 57 24.9526C57 21.5684 53.0218 18.2954 46.8656 16.206ZM31.5443 6.73357C35.7525 3.12272 39.6855 1.69718 41.4776 2.71615C43.3862 3.80152 44.1286 8.17807 42.9294 13.9176C42.8507 14.2915 42.7653 14.6639 42.673 15.0348C40.162 14.4737 37.616 14.0771 35.0517 13.8477C33.5827 11.7669 31.9729 9.78617 30.2335 7.91893C30.6604 7.51316 31.0973 7.11804 31.5443 6.73357ZM16.8301 27.8332C17.3456 28.8148 17.8843 29.7842 18.4461 30.7411C19.0193 31.717 19.6158 32.679 20.2357 33.6272C18.4714 33.4384 16.718 33.1605 14.9826 32.7945C15.4858 31.1922 16.1059 29.5269 16.8301 27.8332ZM16.8274 22.187C16.1183 20.5288 15.5116 18.8985 15.0162 17.3242C16.6425 16.9653 18.3767 16.6721 20.1837 16.4494C19.5788 17.3796 18.9964 18.3233 18.4363 19.2808C17.8771 20.2369 17.3408 21.2057 16.8274 22.187ZM18.1217 25.0103C18.872 23.4707 19.6802 21.9605 20.5462 20.4798V20.4803C21.4114 19.0003 22.3327 17.5543 23.31 16.1423C25.0051 16.0159 26.7433 15.9498 28.5003 15.9498C30.2651 15.9498 32.0054 16.0164 33.7001 16.1438C34.6669 17.5526 35.5823 18.9937 36.4465 20.4671C37.315 21.9435 38.134 23.4465 38.9038 24.9762C38.1424 26.5207 37.326 28.037 36.4545 29.5251H36.4543C35.5909 31.004 34.6794 32.454 33.7198 33.8751C32.0286 33.9942 30.281 34.0557 28.5 34.0557C26.7264 34.0557 25.0009 34.0012 23.3392 33.895C22.3553 32.4779 21.4267 31.0257 20.5535 29.5383C19.6851 28.0599 18.8745 26.5505 18.1217 25.0103H18.1217ZM38.5637 30.7245C39.1371 29.7441 39.688 28.7516 40.2167 27.7469C40.9412 29.361 41.5801 31.0111 42.1309 32.6905C40.3755 33.0794 38.6007 33.3777 36.8137 33.5841C37.4163 32.6424 37.9996 31.6892 38.5637 30.7245H38.5637ZM40.1936 22.1887C39.6669 21.2032 39.1203 20.2284 38.5539 19.2644C37.9967 18.3154 37.4189 17.3786 36.8206 16.4539C38.6394 16.6803 40.3819 16.9812 42.018 17.3495C41.4928 18.9918 40.8839 20.6069 40.1936 22.1887H40.1936ZM28.5273 9.63576C29.7128 10.91 30.8324 12.2425 31.8816 13.6281C29.6372 13.5235 27.3916 13.523 25.1447 13.6266C26.2522 12.1868 27.3865 10.8492 28.5273 9.63576ZM15.397 2.78752C17.3041 1.69916 21.5207 3.2511 25.965 7.14161C26.2491 7.39033 26.5344 7.65072 26.8202 7.92007C25.0707 9.78695 23.4487 11.7661 21.9647 13.8445C19.4064 14.0707 16.8657 14.46 14.3585 15.0099C14.2131 14.4361 14.0825 13.8589 13.9667 13.2784V13.2787C12.8954 7.88086 13.6067 3.80931 15.397 2.78752ZM12.6176 32.2095C12.1451 32.0761 11.6761 31.9314 11.2105 31.7752C8.79664 31.0264 6.54311 29.8461 4.56248 28.2933C3.99503 27.9095 3.51345 27.415 3.14751 26.8404C2.78157 26.2658 2.53904 25.6233 2.43492 24.9526C2.43492 22.9065 5.5294 20.2962 10.6904 18.5222C11.3382 18.3005 11.9922 18.0976 12.6523 17.9136C13.4186 20.3372 14.3467 22.7082 15.4304 25.0111C14.3331 27.3468 13.3934 29.7516 12.6176 32.2095ZM25.8134 43.1526C23.9496 44.8402 21.7867 46.1752 19.4327 47.0909H19.4325C18.8118 47.3838 18.1368 47.548 17.4493 47.5735C16.7617 47.599 16.0761 47.4852 15.4349 47.2391C13.6368 46.2169 12.8896 42.2699 13.9089 36.9761C14.0302 36.3505 14.1689 35.7285 14.3253 35.1103C16.8576 35.6466 19.424 36.0129 22.0067 36.2066C23.5035 38.2968 25.1379 40.2878 26.8995 42.1667C26.5456 42.504 26.1836 42.8326 25.8134 43.1526ZM28.5946 40.4391C27.4405 39.2113 26.2894 37.8533 25.1651 36.3926C26.2564 36.435 27.368 36.4562 28.5 36.4563C29.6619 36.4563 30.8089 36.4312 31.9408 36.3809C30.8965 37.7891 29.7796 39.1436 28.5946 40.4391V40.4391ZM43.3812 43.7792C43.3286 44.4556 43.1358 45.1142 42.8148 45.7142C42.4939 46.3143 42.0515 46.8431 41.515 47.2679C39.7187 48.2931 35.877 46.9605 31.7344 43.4457C31.2594 43.0428 30.7816 42.6133 30.301 42.1574C32.0284 40.2719 33.6247 38.2736 35.0788 36.176C37.6764 35.9599 40.2558 35.5679 42.7988 35.0028C42.9148 35.4654 43.0177 35.9186 43.1073 36.3623C43.6595 38.7971 43.7523 41.3113 43.3812 43.7793V43.7792ZM45.4485 31.7886H45.4482C45.1367 31.8903 44.8168 31.9886 44.4909 32.0838C43.6938 29.6489 42.7295 27.2702 41.6045 24.9645C42.6869 22.6896 43.6137 20.3458 44.3786 17.9489C44.9616 18.1155 45.5277 18.2909 46.073 18.4761C51.3478 20.2661 54.5652 22.9131 54.5652 24.9526C54.5652 27.1251 51.0903 29.9455 45.4485 31.7887V31.7886Z" fill="#BFBBDA"/>
<path d="M28.5 19.9346C29.5068 19.9345 30.4909 20.2289 31.3279 20.7803C32.165 21.3317 32.8174 22.1154 33.2027 23.0324C33.5879 23.9494 33.6888 24.9585 33.4924 25.9319C33.296 26.9054 32.8112 27.7996 32.0993 28.5014C31.3875 29.2033 30.4805 29.6812 29.4931 29.8749C28.5058 30.0685 27.4823 29.9691 26.5522 29.5893C25.6222 29.2094 24.8272 28.5662 24.2679 27.7409C23.7086 26.9156 23.4101 25.9454 23.4102 24.9528C23.4102 23.6219 23.9464 22.3455 24.9009 21.4044C25.8555 20.4633 27.1501 19.9346 28.5 19.9346Z" fill="#BFBBDA"/>
</g>
<defs>
<clipPath id="clip0_116_1035">
<rect width="57" height="50" fill="white"/>
</clipPath>
</defs>
</svg>
