<svg width="103" height="77" viewBox="0 0 103 77" fill="none" xmlns="http://www.w3.org/2000/svg">
<g clip-path="url(#clip0_112_1996)">
<path d="M88.6294 44.2519C85.0381 44.2706 81.9169 45.1333 79.3033 46.4085C78.3444 44.5144 77.3855 42.8266 77.2162 41.5889C77.0282 40.145 76.8026 39.2636 77.0282 37.5383C77.2539 35.813 78.2692 33.3564 78.2504 33.1688C78.2316 32.9813 78.0248 32.0999 75.9565 32.0812C73.8882 32.0624 72.102 32.475 71.8951 33.0188C71.6883 33.5626 71.2935 34.8003 71.0302 36.0755C70.673 37.9508 66.8937 44.6457 64.7314 48.1525C64.0357 46.7835 63.434 45.5833 63.3024 44.6269C63.1144 43.1829 62.8888 42.3016 63.1144 40.5763C63.34 38.851 64.3553 36.3943 64.3365 36.2068C64.3177 36.0193 64.1109 35.1379 62.0426 35.1191C59.9744 35.1004 58.1881 35.513 57.9813 36.0568C57.7745 36.6006 57.5488 37.8758 57.1164 39.1135C56.6839 40.3512 51.6637 51.528 50.3475 54.416C49.6706 55.8975 49.0877 57.0789 48.6741 57.8853C48.6741 57.8853 48.6553 57.9416 48.5989 58.0354C48.2416 58.7292 48.0348 59.1043 48.0348 59.1043C48.0348 59.1043 48.0348 59.1043 48.0348 59.123C47.7528 59.6294 47.4519 60.0982 47.3015 60.0982C47.1887 60.0982 46.9818 58.748 47.3391 56.9102C48.0912 53.0283 49.8774 46.9898 49.8586 46.7835C49.8586 46.671 50.1971 45.6208 48.6929 45.077C47.2263 44.5332 46.6998 45.4333 46.5682 45.4333C46.4366 45.4333 46.3426 45.7521 46.3426 45.7521C46.3426 45.7521 47.9784 38.9635 43.2213 38.9635C40.2506 38.9635 36.1516 42.2078 34.1209 45.1333C32.8424 45.8271 30.116 47.3086 27.2016 48.9026C26.0923 49.5215 24.9453 50.1403 23.8736 50.7217C23.7984 50.6467 23.7232 50.5529 23.648 50.4779C17.8944 44.3456 7.25219 40.0137 7.70345 31.7811C7.87267 28.7806 8.90681 20.9043 28.1418 11.3403C43.9734 3.55777 56.5711 5.71437 58.7522 10.4964C61.8734 17.3225 52.0021 29.9996 35.6439 31.8374C29.4015 32.5312 26.1299 30.1308 25.3026 29.2307C24.4377 28.293 24.306 28.2368 23.9864 28.4243C23.4599 28.7056 23.7984 29.5495 23.9864 30.0371C24.4753 31.3123 26.4871 33.5626 29.8904 34.6691C32.8988 35.6442 40.213 36.1881 49.0689 32.775C58.9778 28.9494 66.7245 18.3164 64.4494 9.40872C62.1743 0.369753 47.1323 -2.61198 32.8988 2.43259C24.4377 5.43307 15.2621 10.1588 8.66238 16.3098C0.821741 23.6235 -0.419223 29.9808 0.0884443 32.6437C1.91229 42.0953 14.98 48.2463 20.2071 52.8033C19.9439 52.9533 19.6994 53.0846 19.4926 53.1971C16.8791 54.491 6.91375 59.6856 4.43182 65.1803C1.61145 71.4063 4.88308 75.8695 7.04536 76.4696C13.7579 78.3261 20.6584 74.9881 24.3625 69.4747C28.0665 63.9613 27.6153 56.7977 25.9043 53.5159C25.8855 53.4784 25.8667 53.4409 25.829 53.4034C26.5059 53.0095 27.2016 52.597 27.8785 52.2032C29.2135 51.4155 30.5297 50.6842 31.6578 50.0841C31.0185 51.8281 30.5485 53.9097 30.3228 56.9102C30.0408 60.4357 31.4886 65.0115 33.3876 66.8118C34.2338 67.5994 35.2303 67.6182 35.8696 67.6182C38.0883 67.6182 39.0848 65.7804 40.1941 63.605C41.5479 60.9421 42.7701 57.8478 42.7701 57.8478C42.7701 57.8478 41.2471 66.2117 45.3836 66.2117C46.8878 66.2117 48.4108 64.2614 49.0877 63.2675C49.0877 63.2862 49.0877 63.2862 49.0877 63.2862C49.0877 63.2862 49.1253 63.2299 49.2005 63.0987C49.351 62.8549 49.445 62.7049 49.445 62.7049C49.445 62.7049 49.445 62.6861 49.445 62.6674C50.0467 61.6172 51.4004 59.2355 53.4123 55.2787C56.007 50.1778 58.5078 43.8018 58.5078 43.8018C58.5078 43.8018 58.7334 45.3583 59.5043 47.9462C59.9556 49.4652 60.8957 51.1342 61.6478 52.747C61.0461 53.5909 60.6701 54.0597 60.6701 54.0597C60.6701 54.0597 60.6701 54.0597 60.6889 54.0785C60.2 54.7161 59.6735 55.4099 59.0906 56.085C57.0412 58.5229 54.5969 61.3171 54.2584 62.1235C53.8636 63.0799 53.9576 63.7738 54.7097 64.3364C55.2549 64.7489 56.2327 64.8052 57.2292 64.7489C59.0718 64.6177 60.3692 64.1676 61.0085 63.8863C62.005 63.53 63.1708 62.9862 64.2613 62.1798C66.2732 60.6983 67.4954 58.5792 67.3825 55.785C67.3261 54.2472 66.8185 52.7095 66.198 51.2655C66.386 51.003 66.5552 50.7404 66.7433 50.4779C69.9209 45.8459 72.384 40.7638 72.384 40.7638C72.384 40.7638 72.6096 42.3203 73.3805 44.9082C73.7566 46.2209 74.5275 47.6462 75.2044 49.0339C72.2148 51.453 70.3721 54.266 69.7141 56.1038C68.5295 59.5168 69.4508 61.0546 71.1995 61.4109C71.9892 61.5797 73.1173 61.2046 73.9446 60.8483C74.9976 60.5108 76.2385 59.9294 77.4231 59.0668C79.4349 57.5853 81.3716 55.5224 81.2588 52.7282C81.2024 51.453 80.8639 50.1966 80.3939 48.9776C82.9322 47.9275 86.2038 47.3461 90.378 47.8337C99.328 48.8839 101.095 54.4535 100.757 56.7977C100.419 59.1418 98.5383 60.417 97.9178 60.8108C97.2973 61.2046 97.0905 61.3359 97.1469 61.6172C97.2221 62.0298 97.5229 62.011 98.0494 61.936C98.7827 61.8047 102.75 60.0419 102.919 55.7287C103.201 50.2153 97.9366 44.1956 88.6294 44.2519ZM19.5866 67.4681C16.6158 70.6937 12.4793 71.9126 10.693 70.8812C8.77519 69.7748 9.52729 65.0115 13.175 61.5984C15.3937 59.5168 18.2516 57.5853 20.1507 56.4038C20.5832 56.1413 21.2224 55.7662 21.9933 55.2974C22.125 55.2224 22.2002 55.1849 22.2002 55.1849C22.3506 55.0911 22.501 54.9974 22.6514 54.9036C23.9864 59.7794 22.7078 64.0738 19.5866 67.4681ZM41.2095 52.8033C40.1753 55.3162 38.0131 61.7485 36.6969 61.3921C35.5687 61.0921 34.873 56.2163 36.4713 51.3968C37.2798 48.9776 38.9908 46.0897 39.9873 44.9645C41.6043 43.1642 43.3906 42.5641 43.823 43.2955C44.3683 44.2519 41.8488 51.228 41.2095 52.8033ZM59.053 61.3171C58.6206 61.5422 58.2069 61.6922 58.0189 61.5797C57.8873 61.5047 58.2069 61.2046 58.2069 61.2046C58.2069 61.2046 60.4444 58.8042 61.3281 57.7165C61.8358 57.0789 62.4375 56.3288 63.0768 55.4849C63.0768 55.56 63.0768 55.6537 63.0768 55.7287C63.0768 58.5979 60.294 60.5295 59.053 61.3171ZM72.8165 58.1854C72.4968 57.9603 72.5532 57.2102 73.625 54.8661C74.0386 53.9472 75.0164 52.4094 76.6898 50.928C76.8778 51.528 77.0094 52.1094 76.9906 52.6532C76.9718 56.2726 74.3771 57.6228 72.8165 58.1854Z" fill="#7A6FB9"/>
</g>
<defs>
<clipPath id="clip0_112_1996">
<rect width="103" height="77" fill="white"/>
</clipPath>
</defs>
</svg>
