<svg width="55" height="67" viewBox="0 0 55 67" fill="none" xmlns="http://www.w3.org/2000/svg">
<g clip-path="url(#clip0_116_1032)">
<path d="M51.4634 8.85558C45.3523 -0.0588298 33.1862 -2.67069 24.44 2.95049L9.02205 12.9437C4.81715 15.6124 1.90176 19.9844 1.06078 24.9242C0.331937 29.0691 0.948654 33.3276 2.91094 37.0183C1.56537 39.0624 0.668328 41.3335 0.275871 43.7183C-0.621172 48.7717 0.556197 53.9954 3.47159 58.1403C9.63876 67.0547 21.7489 69.6666 30.495 64.0454L45.913 54.109C50.1179 51.4403 53.0333 47.0683 53.8742 42.1285C54.6031 37.9835 53.9864 33.7251 52.0241 30.0344C53.3696 27.9903 54.2667 25.7191 54.6591 23.3344C55.6123 18.2242 54.4349 13.0005 51.4634 8.85558Z" fill="#BFBBDA"/>
<path d="M22.9306 58.994C17.9408 60.3 12.7267 58.3127 9.81131 54.0542C8.01722 51.5559 7.34444 48.433 7.84902 45.3669C7.96115 44.8559 8.07329 44.4017 8.18542 43.8906L8.46574 42.9822L9.25066 43.55C11.1008 44.9127 13.1192 45.9347 15.3057 46.6161L15.8664 46.7864L15.8103 47.3542C15.7542 48.1491 15.9785 49.0008 16.427 49.6822C17.324 50.9881 18.8939 51.6127 20.4076 51.2152C20.744 51.1017 21.0804 50.9881 21.3607 50.8178L36.7226 40.8813C37.5075 40.3703 38.0121 39.6322 38.1803 38.7237C38.3485 37.8152 38.1243 36.85 37.6197 36.1118C36.7226 34.8059 35.1528 34.2381 33.639 34.6356C33.3026 34.7491 32.9663 34.8627 32.6859 35.033L26.7991 38.8373C25.846 39.4618 24.7807 39.9161 23.6594 40.2C18.6696 41.5059 13.4555 39.5186 10.5402 35.2601C8.80213 32.7618 8.07328 29.6389 8.63394 26.5728C9.13852 23.6203 10.9326 20.9517 13.4555 19.3618L28.8735 9.42538C29.8266 8.80081 30.8918 8.34657 32.0131 8.00589C37.0029 6.69996 42.217 8.68725 45.1324 12.9457C46.9265 15.444 47.5993 18.5669 47.0947 21.633C46.9826 22.144 46.8704 22.5983 46.7022 23.1093L46.4219 24.0178L45.637 23.45C43.7868 22.0872 41.7685 21.0652 39.5819 20.3839L39.0213 20.2135L39.0774 19.6457C39.1334 18.8508 38.9092 17.9991 38.4606 17.3178C37.5636 16.0118 35.9938 15.444 34.48 15.8415C34.1436 15.955 33.8072 16.0686 33.5269 16.2389L18.165 26.1754C17.3801 26.6864 16.8755 27.4245 16.7073 28.333C16.5391 29.2415 16.7634 30.2067 17.268 30.9449C18.165 32.2508 19.7349 32.8186 21.2486 32.4211C21.585 32.3076 21.9214 32.194 22.2017 32.0237L28.0886 28.2195C29.0417 27.5949 30.1069 27.1406 31.2282 26.8C36.218 25.494 41.4321 27.4813 44.3475 31.7398C46.1416 34.2381 46.8144 37.361 46.3098 40.4271C45.8052 43.3796 44.0111 46.0483 41.4882 47.6381L26.0702 57.5745C25.1171 58.1991 24.0519 58.6534 22.9306 58.994Z" fill="white"/>
</g>
<defs>
<clipPath id="clip0_116_1032">
<rect width="55" height="67" fill="white"/>
</clipPath>
</defs>
</svg>
