<svg width="79" height="80" viewBox="0 0 79 80" fill="none" xmlns="http://www.w3.org/2000/svg">
<path d="M7.71484 1.5H71.2852C74.6998 1.5 77.5 4.30836 77.5 7.8125V72.1875C77.5 75.6916 74.6998 78.5 71.2852 78.5H7.71484C4.30021 78.5 1.5 75.6916 1.5 72.1875V7.8125C1.5 4.30836 4.30021 1.5 7.71484 1.5Z" stroke="#7A6FB9" stroke-width="3"/>
<path fill-rule="evenodd" clip-rule="evenodd" d="M48.9121 63.5936V71.4061C50.1619 72.0624 51.6895 72.5467 53.3867 72.8749C55.084 73.203 56.9356 73.3592 58.7871 73.3592C60.6387 73.3592 62.3359 73.1874 64.0332 72.828C65.7305 72.4686 67.1191 71.8749 68.3535 71.1092C69.6033 70.2811 70.668 69.2342 71.2852 67.828C71.9023 66.4217 72.3807 64.8592 72.3807 62.828C72.3807 61.4061 72.1647 60.1717 71.7481 59.078C71.3315 57.9842 70.7297 57.0467 69.8965 56.2655C69.1096 55.4374 68.1992 54.703 67.1191 54.078C66.0391 53.453 64.8047 52.7967 63.416 52.203C62.3977 51.7811 61.5645 51.3749 60.6387 50.9686C59.8363 50.5624 59.142 50.1561 58.6328 49.7499C58.0619 49.328 57.6299 48.8905 57.3213 48.4374C57.0127 47.9686 56.8584 47.453 56.8584 46.8749C56.8584 46.3436 56.9957 45.8592 57.275 45.4217C57.5543 44.9842 57.9385 44.6249 58.4322 44.3124C58.926 43.9999 59.5432 43.7655 60.2838 43.5936C61.009 43.4217 61.8113 43.3436 62.7525 43.3436C63.4006 43.3436 64.0795 43.392 64.7584 43.4905C65.4682 43.5889 66.1934 43.7405 66.9186 43.9436C67.6438 44.1467 68.3535 44.3967 69.0787 44.7092C69.7576 45.0217 70.3902 45.3811 70.9303 45.7874V38.4436C69.7576 37.9905 68.4615 37.6467 67.0729 37.428C65.6842 37.2092 64.1412 37.0999 62.2897 37.0999C60.4381 37.0999 58.7408 37.303 57.0436 37.6936C55.3463 38.0842 53.9576 38.7092 52.7232 39.5686C51.4734 40.4124 50.5631 41.4436 49.7916 42.8499C49.0664 44.1624 48.7115 45.6624 48.7115 47.5374C48.7115 49.8811 49.375 51.9124 50.7174 53.4749C52.0443 55.1936 54.1119 56.4436 56.735 57.6936C57.7996 58.1311 58.7408 58.5686 59.6666 58.9905C60.5924 59.4124 61.3639 59.8499 61.9811 60.303C62.6445 60.7561 63.1691 61.2561 63.524 61.7874C63.9098 62.3186 64.1104 62.9436 64.1104 63.6624C64.1104 64.1624 63.99 64.6311 63.7555 65.0686C63.5209 65.5061 63.1537 65.8811 62.66 66.1936C62.1662 66.5061 61.5645 66.7561 60.8084 66.9436C60.0832 67.1155 59.2654 67.2092 58.1854 67.2092C56.4881 67.2092 54.7908 66.9124 53.2479 66.3186C51.5506 65.7249 50.0076 64.8342 48.6189 63.6624L48.9121 63.5936ZM35.9512 44.3749H45.8262V37.9686H18.207V44.3749H28.082V72.9686H35.9512V44.3749Z" fill="#7A6FB9"/>
</svg>
