<svg width="635" height="368" viewBox="0 0 635 368" fill="none" xmlns="http://www.w3.org/2000/svg">
<path d="M145.264 175.236H150.724L155.3 187.768L159.928 175.236H165.388L159.044 191.668L164.556 205.24L176.048 175.08H182.444L167.312 212H162.268L155.352 195.464L148.384 212H143.288L128.208 175.08H134.552L146.096 205.24L151.608 191.668L145.264 175.236ZM194.791 212.52C191.983 212.52 189.522 211.879 187.407 210.596C185.292 209.313 183.646 207.615 182.467 205.5C181.288 203.351 180.699 201.011 180.699 198.48C180.699 195.915 181.288 193.557 182.467 191.408C183.646 189.259 185.292 187.543 187.407 186.26C189.522 184.977 192 184.336 194.843 184.336C197.686 184.336 200.147 184.995 202.227 186.312C204.307 187.595 205.902 189.293 207.011 191.408C208.155 193.523 208.727 195.793 208.727 198.22C208.727 199.087 208.675 199.78 208.571 200.3H186.783C186.887 201.895 187.32 203.299 188.083 204.512C188.88 205.691 189.868 206.627 191.047 207.32C192.26 207.979 193.578 208.308 194.999 208.308C196.524 208.308 197.963 207.927 199.315 207.164C200.667 206.401 201.603 205.396 202.123 204.148L207.011 205.552C206.075 207.597 204.515 209.279 202.331 210.596C200.182 211.879 197.668 212.52 194.791 212.52ZM186.627 196.504H203.059C202.92 194.944 202.47 193.575 201.707 192.396C200.944 191.183 199.956 190.247 198.743 189.588C197.564 188.895 196.247 188.548 194.791 188.548C193.37 188.548 192.052 188.895 190.839 189.588C189.66 190.247 188.69 191.183 187.927 192.396C187.164 193.575 186.731 194.944 186.627 196.504ZM228.057 212.52C225.977 212.52 224.088 212.035 222.389 211.064C220.69 210.059 219.373 208.724 218.437 207.06V212H213.393V174.04H219.113V189.952C220.188 188.219 221.522 186.849 223.117 185.844C224.746 184.839 226.653 184.336 228.837 184.336C231.264 184.336 233.378 184.995 235.181 186.312C236.984 187.629 238.388 189.38 239.393 191.564C240.398 193.713 240.901 196.036 240.901 198.532C240.901 201.097 240.329 203.437 239.185 205.552C238.076 207.667 236.55 209.365 234.609 210.648C232.668 211.896 230.484 212.52 228.057 212.52ZM226.549 207.632C228.213 207.632 229.686 207.216 230.969 206.384C232.252 205.517 233.24 204.391 233.933 203.004C234.661 201.617 235.025 200.127 235.025 198.532C235.025 196.903 234.678 195.377 233.985 193.956C233.326 192.535 232.39 191.391 231.177 190.524C229.964 189.657 228.56 189.224 226.965 189.224C225.232 189.224 223.672 189.796 222.285 190.94C220.898 192.084 219.841 193.471 219.113 195.1V202.276C219.39 203.316 219.928 204.235 220.725 205.032C221.522 205.829 222.441 206.471 223.481 206.956C224.556 207.407 225.578 207.632 226.549 207.632ZM257.177 198.428C257.177 195.828 257.697 193.471 258.737 191.356C259.812 189.207 261.268 187.508 263.105 186.26C264.942 184.977 267.057 184.336 269.449 184.336C271.529 184.336 273.401 184.873 275.065 185.948C276.764 187.023 278.081 188.357 279.017 189.952V174.04H284.737V205.552C284.737 206.211 284.858 206.679 285.101 206.956C285.344 207.233 285.742 207.389 286.297 207.424V212C285.222 212.173 284.39 212.26 283.801 212.26C282.726 212.26 281.808 211.965 281.045 211.376C280.317 210.752 279.936 209.989 279.901 209.088L279.849 207.06C278.809 208.793 277.405 210.145 275.637 211.116C273.869 212.052 272.032 212.52 270.125 212.52C267.629 212.52 265.393 211.879 263.417 210.596C261.476 209.313 259.95 207.615 258.841 205.5C257.732 203.351 257.177 200.993 257.177 198.428ZM279.017 202.224V195.1C278.601 193.991 277.977 193.003 277.145 192.136C276.313 191.235 275.36 190.524 274.285 190.004C273.245 189.484 272.205 189.224 271.165 189.224C269.536 189.224 268.114 189.675 266.901 190.576C265.722 191.443 264.786 192.587 264.093 194.008C263.434 195.429 263.105 196.937 263.105 198.532C263.105 200.196 263.469 201.721 264.197 203.108C264.96 204.495 265.982 205.604 267.265 206.436C268.548 207.233 269.986 207.632 271.581 207.632C272.552 207.632 273.557 207.407 274.597 206.956C275.672 206.471 276.608 205.829 277.405 205.032C278.202 204.2 278.74 203.264 279.017 202.224ZM304.326 212.52C301.518 212.52 299.057 211.879 296.942 210.596C294.828 209.313 293.181 207.615 292.002 205.5C290.824 203.351 290.234 201.011 290.234 198.48C290.234 195.915 290.824 193.557 292.002 191.408C293.181 189.259 294.828 187.543 296.942 186.26C299.057 184.977 301.536 184.336 304.378 184.336C307.221 184.336 309.682 184.995 311.762 186.312C313.842 187.595 315.437 189.293 316.546 191.408C317.69 193.523 318.262 195.793 318.262 198.22C318.262 199.087 318.21 199.78 318.106 200.3H296.318C296.422 201.895 296.856 203.299 297.618 204.512C298.416 205.691 299.404 206.627 300.582 207.32C301.796 207.979 303.113 208.308 304.534 208.308C306.06 208.308 307.498 207.927 308.85 207.164C310.202 206.401 311.138 205.396 311.658 204.148L316.546 205.552C315.61 207.597 314.05 209.279 311.866 210.596C309.717 211.879 307.204 212.52 304.326 212.52ZM296.162 196.504H312.594C312.456 194.944 312.005 193.575 311.242 192.396C310.48 191.183 309.492 190.247 308.278 189.588C307.1 188.895 305.782 188.548 304.326 188.548C302.905 188.548 301.588 188.895 300.374 189.588C299.196 190.247 298.225 191.183 297.462 192.396C296.7 193.575 296.266 194.944 296.162 196.504ZM329.758 212L319.41 184.804H325.338L333.086 206.696L340.834 184.804H346.346L335.998 212H329.758ZM361.861 212.52C359.053 212.52 356.592 211.879 354.477 210.596C352.363 209.313 350.716 207.615 349.537 205.5C348.359 203.351 347.769 201.011 347.769 198.48C347.769 195.915 348.359 193.557 349.537 191.408C350.716 189.259 352.363 187.543 354.477 186.26C356.592 184.977 359.071 184.336 361.913 184.336C364.756 184.336 367.217 184.995 369.297 186.312C371.377 187.595 372.972 189.293 374.081 191.408C375.225 193.523 375.797 195.793 375.797 198.22C375.797 199.087 375.745 199.78 375.641 200.3H353.853C353.957 201.895 354.391 203.299 355.153 204.512C355.951 205.691 356.939 206.627 358.117 207.32C359.331 207.979 360.648 208.308 362.069 208.308C363.595 208.308 365.033 207.927 366.385 207.164C367.737 206.401 368.673 205.396 369.193 204.148L374.081 205.552C373.145 207.597 371.585 209.279 369.401 210.596C367.252 211.879 364.739 212.52 361.861 212.52ZM353.697 196.504H370.129C369.991 194.944 369.54 193.575 368.777 192.396C368.015 191.183 367.027 190.247 365.813 189.588C364.635 188.895 363.317 188.548 361.861 188.548C360.44 188.548 359.123 188.895 357.909 189.588C356.731 190.247 355.76 191.183 354.997 192.396C354.235 193.575 353.801 194.944 353.697 196.504ZM380.515 174.04H386.235V204.148C386.235 205.535 386.443 206.419 386.859 206.8C387.275 207.181 387.795 207.372 388.419 207.372C389.113 207.372 389.771 207.303 390.395 207.164C391.019 207.025 391.539 206.852 391.955 206.644L392.787 211.168C391.955 211.515 390.967 211.809 389.823 212.052C388.679 212.295 387.657 212.416 386.755 212.416C384.814 212.416 383.289 211.879 382.179 210.804C381.07 209.695 380.515 208.169 380.515 206.228V174.04ZM408.324 212.52C405.481 212.52 403.003 211.879 400.888 210.596C398.808 209.279 397.196 207.563 396.052 205.448C394.908 203.299 394.336 200.959 394.336 198.428C394.336 195.897 394.908 193.575 396.052 191.46C397.231 189.311 398.86 187.595 400.94 186.312C403.055 184.995 405.516 184.336 408.324 184.336C411.132 184.336 413.576 184.995 415.656 186.312C417.771 187.595 419.4 189.311 420.544 191.46C421.723 193.575 422.312 195.897 422.312 198.428C422.312 200.959 421.74 203.299 420.596 205.448C419.452 207.563 417.823 209.279 415.708 210.596C413.628 211.879 411.167 212.52 408.324 212.52ZM400.212 198.48C400.212 200.213 400.576 201.773 401.304 203.16C402.032 204.547 403.003 205.639 404.216 206.436C405.429 207.233 406.799 207.632 408.324 207.632C409.815 207.632 411.167 207.233 412.38 206.436C413.628 205.604 414.616 204.495 415.344 203.108C416.072 201.721 416.436 200.161 416.436 198.428C416.436 196.695 416.072 195.135 415.344 193.748C414.616 192.361 413.628 191.269 412.38 190.472C411.167 189.64 409.815 189.224 408.324 189.224C406.833 189.224 405.464 189.64 404.216 190.472C403.003 191.269 402.032 192.379 401.304 193.8C400.576 195.187 400.212 196.747 400.212 198.48ZM442.829 212.52C440.645 212.52 438.721 212 437.057 210.96C435.393 209.92 434.076 208.568 433.105 206.904V223.076H427.385V184.804H432.429V189.692C433.469 188.063 434.821 186.763 436.485 185.792C438.149 184.821 440.004 184.336 442.049 184.336C444.545 184.336 446.746 184.995 448.653 186.312C450.594 187.595 452.12 189.311 453.229 191.46C454.338 193.575 454.893 195.88 454.893 198.376C454.893 201.011 454.373 203.403 453.333 205.552C452.293 207.667 450.872 209.365 449.069 210.648C447.266 211.896 445.186 212.52 442.829 212.52ZM440.957 207.632C442.586 207.632 443.99 207.199 445.169 206.332C446.382 205.431 447.318 204.287 447.977 202.9C448.67 201.479 449.017 199.971 449.017 198.376C449.017 196.712 448.636 195.187 447.873 193.8C447.145 192.413 446.14 191.304 444.857 190.472C443.609 189.64 442.17 189.224 440.541 189.224C439.57 189.224 438.548 189.467 437.473 189.952C436.433 190.437 435.514 191.079 434.717 191.876C433.92 192.673 433.382 193.575 433.105 194.58V201.704C433.798 203.368 434.856 204.772 436.277 205.916C437.733 207.06 439.293 207.632 440.957 207.632ZM472.361 212.52C469.553 212.52 467.092 211.879 464.977 210.596C462.863 209.313 461.216 207.615 460.037 205.5C458.859 203.351 458.269 201.011 458.269 198.48C458.269 195.915 458.859 193.557 460.037 191.408C461.216 189.259 462.863 187.543 464.977 186.26C467.092 184.977 469.571 184.336 472.413 184.336C475.256 184.336 477.717 184.995 479.797 186.312C481.877 187.595 483.472 189.293 484.581 191.408C485.725 193.523 486.297 195.793 486.297 198.22C486.297 199.087 486.245 199.78 486.141 200.3H464.353C464.457 201.895 464.891 203.299 465.653 204.512C466.451 205.691 467.439 206.627 468.617 207.32C469.831 207.979 471.148 208.308 472.569 208.308C474.095 208.308 475.533 207.927 476.885 207.164C478.237 206.401 479.173 205.396 479.693 204.148L484.581 205.552C483.645 207.597 482.085 209.279 479.901 210.596C477.752 211.879 475.239 212.52 472.361 212.52ZM464.197 196.504H480.629C480.491 194.944 480.04 193.575 479.277 192.396C478.515 191.183 477.527 190.247 476.313 189.588C475.135 188.895 473.817 188.548 472.361 188.548C470.94 188.548 469.623 188.895 468.409 189.588C467.231 190.247 466.26 191.183 465.497 192.396C464.735 193.575 464.301 194.944 464.197 196.504ZM506.251 189.744C504.033 189.813 502.057 190.333 500.323 191.304C498.625 192.24 497.411 193.592 496.683 195.36V212H490.963V184.804H496.267V190.888C497.203 189.016 498.434 187.525 499.959 186.416C501.485 185.272 503.097 184.648 504.795 184.544C505.107 184.544 505.385 184.544 505.627 184.544C505.87 184.544 506.078 184.561 506.251 184.596V189.744Z" fill="#585181"/>
<g clip-path="url(#clip0_152_1184)">
<path d="M3.11279 34.3051H631.887V343.229C631.887 345.663 630.643 347.997 628.428 349.719C626.213 351.44 623.208 352.407 620.076 352.407H14.9243C11.7917 352.407 8.78739 351.44 6.5723 349.719C4.35722 347.997 3.11279 345.663 3.11279 343.229V34.3051Z" stroke="#564F7C" stroke-width="5" stroke-miterlimit="10"/>
<path d="M15.2144 3.11865H622.902C625.81 3.11865 628.6 4.06227 630.657 5.74191C632.713 7.42155 633.869 9.69964 633.869 12.075V34.2772H3.11279V13.0015C3.11279 10.3804 4.38778 7.86668 6.65728 6.01328C8.92678 4.15988 12.0049 3.11865 15.2144 3.11865V3.11865Z" stroke="#564F7C" stroke-width="4" stroke-miterlimit="10"/>
<path d="M16.4926 23.9694C21.0064 23.9694 24.6654 20.9811 24.6654 17.295C24.6654 13.6088 21.0064 10.6206 16.4926 10.6206C11.9789 10.6206 8.31982 13.6088 8.31982 17.295C8.31982 20.9811 11.9789 23.9694 16.4926 23.9694Z" fill="#504070"/>
<path d="M41.4524 23.9694C45.9661 23.9694 49.6252 20.9811 49.6252 17.295C49.6252 13.6088 45.9661 10.6206 41.4524 10.6206C36.9386 10.6206 33.2795 13.6088 33.2795 17.295C33.2795 20.9811 36.9386 23.9694 41.4524 23.9694Z" fill="#504070"/>
<path d="M63.6386 23.9694C68.1523 23.9694 71.8114 20.9811 71.8114 17.295C71.8114 13.6088 68.1523 10.6206 63.6386 10.6206C59.1249 10.6206 55.4658 13.6088 55.4658 17.295C55.4658 20.9811 59.1249 23.9694 63.6386 23.9694Z" fill="#504070"/>
</g>
<defs>
<clipPath id="clip0_152_1184">
<rect width="635" height="368" fill="white"/>
</clipPath>
</defs>
</svg>
