<svg width="635" height="368" viewBox="0 0 635 368" fill="none" xmlns="http://www.w3.org/2000/svg">
<g clip-path="url(#clip0_78_772)">
<path d="M3.11279 34.3051H631.887V343.229C631.887 345.663 630.643 347.997 628.428 349.719C626.213 351.44 623.208 352.407 620.076 352.407H14.9243C11.7917 352.407 8.78739 351.44 6.5723 349.719C4.35722 347.997 3.11279 345.663 3.11279 343.229V34.3051Z" stroke="#564F7C" stroke-width="5" stroke-miterlimit="10"/>
<path d="M15.2144 3.11865H622.902C625.81 3.11865 628.6 4.06227 630.657 5.74191C632.713 7.42155 633.869 9.69964 633.869 12.075V34.2772H3.11279V13.0015C3.11279 10.3804 4.38778 7.86668 6.65728 6.01328C8.92678 4.15988 12.0049 3.11865 15.2144 3.11865V3.11865Z" stroke="#564F7C" stroke-width="4" stroke-miterlimit="10"/>
<path d="M16.4926 23.9694C21.0064 23.9694 24.6654 20.9811 24.6654 17.295C24.6654 13.6088 21.0064 10.6206 16.4926 10.6206C11.9789 10.6206 8.31982 13.6088 8.31982 17.295C8.31982 20.9811 11.9789 23.9694 16.4926 23.9694Z" fill="#504070"/>
<path d="M41.4521 23.9694C45.9658 23.9694 49.6249 20.9811 49.6249 17.295C49.6249 13.6088 45.9658 10.6206 41.4521 10.6206C36.9384 10.6206 33.2793 13.6088 33.2793 17.295C33.2793 20.9811 36.9384 23.9694 41.4521 23.9694Z" fill="#504070"/>
<path d="M63.6386 23.9694C68.1523 23.9694 71.8114 20.9811 71.8114 17.295C71.8114 13.6088 68.1523 10.6206 63.6386 10.6206C59.1249 10.6206 55.4658 13.6088 55.4658 17.295C55.4658 20.9811 59.1249 23.9694 63.6386 23.9694Z" fill="#504070"/>
</g>
<defs>
<clipPath id="clip0_78_772">
<rect width="635" height="368" fill="white"/>
</clipPath>
</defs>
</svg>
